ChironSungHKVF-weight1000-Master.ufo
<glyph name="cid40900" format="2">
  <advance height="1000" width="480"/>
  <unicode hex="0022"/>
  <outline>
    <contour>
      <point x="127" y="825" type="curve" smooth="yes"/>
      <point x="76" y="825"/>
      <point x="45" y="797"/>
      <point x="45" y="739" type="curve" smooth="yes"/>
      <point x="45" y="691"/>
      <point x="67" y="604"/>
      <point x="73" y="574" type="curve" smooth="yes"/>
      <point x="101" y="459" type="line"/>
      <point x="151" y="459" type="line"/>
      <point x="179" y="574" type="line" smooth="yes"/>
      <point x="187" y="605"/>
      <point x="207" y="691"/>
      <point x="207" y="739" type="curve" smooth="yes"/>
      <point x="207" y="797"/>
      <point x="177" y="825"/>
    </contour>
    <contour>
      <point x="354" y="825" type="curve" smooth="yes"/>
      <point x="304" y="825"/>
      <point x="272" y="797"/>
      <point x="272" y="739" type="curve" smooth="yes"/>
      <point x="272" y="691"/>
      <point x="295" y="604"/>
      <point x="300" y="574" type="curve"/>
      <point x="328" y="459" type="line"/>
      <point x="379" y="459" type="line"/>
      <point x="407" y="574" type="line" smooth="yes"/>
      <point x="414" y="605"/>
      <point x="435" y="691"/>
      <point x="435" y="739" type="curve" smooth="yes"/>
      <point x="435" y="797"/>
      <point x="404" y="825"/>
    </contour>
  </outline>
</glyph>
<glyph name="cid41002" format="2">
  <advance height="1000" width="634"/>
  <unicode hex="0023"/>
  <outline>
    <contour>
      <point x="103" y="10" type="line"/>
      <point x="184" y="10" type="line"/>
      <point x="293" y="730" type="line"/>
      <point x="212" y="730" type="line"/>
    </contour>
    <contour>
      <point x="21" y="307" type="line"/>
      <point x="21" y="193" type="line"/>
      <point x="577" y="193" type="line"/>
      <point x="577" y="307" type="line"/>
    </contour>
    <contour>
      <point x="615" y="433" type="line"/>
      <point x="615" y="548" type="line"/>
      <point x="58" y="548" type="line"/>
      <point x="58" y="433" type="line"/>
    </contour>
    <contour>
      <point x="348" y="10" type="line"/>
      <point x="429" y="10" type="line"/>
      <point x="538" y="730" type="line"/>
      <point x="457" y="730" type="line"/>
    </contour>
  </outline>
</glyph>
<glyph name="cid41228" format="2">
  <advance height="1000" width="596"/>
  <unicode hex="0024"/>
  <outline>
    <contour>
      <point x="279" y="-7" type="curve" smooth="yes"/>
      <point x="450" y="-7"/>
      <point x="553" y="85"/>
      <point x="553" y="213" type="curve" smooth="yes"/>
      <point x="553" y="320"/>
      <point x="489" y="391"/>
      <point x="340" y="442" type="curve"/>
      <point x="340" y="442"/>
      <point x="302" y="455"/>
      <point x="302" y="455" type="curve"/>
      <point x="225" y="482"/>
      <point x="193" y="513"/>
      <point x="193" y="574" type="curve" smooth="yes"/>
      <point x="193" y="650"/>
      <point x="248" y="683"/>
      <point x="324" y="683" type="curve" smooth="yes"/>
      <point x="366" y="683"/>
      <point x="399" y="678"/>
      <point x="452" y="653" type="curve"/>
      <point x="452" y="653"/>
      <point x="373" y="700"/>
      <point x="373" y="700" type="curve"/>
      <point x="373" y="700"/>
      <point x="388" y="618"/>
      <point x="388" y="618" type="curve"/>
      <point x="400" y="542"/>
      <point x="436" y="526"/>
      <point x="472" y="526" type="curve" smooth="yes"/>
      <point x="500" y="526"/>
      <point x="525" y="542"/>
      <point x="532" y="579" type="curve"/>
      <point x="524" y="674"/>
      <point x="439" y="734"/>
      <point x="311" y="734" type="curve" smooth="yes"/>
      <point x="152" y="734"/>
      <point x="58" y="644"/>
      <point x="58" y="518" type="curve" smooth="yes"/>
      <point x="58" y="412"/>
      <point x="131" y="343"/>
      <point x="256" y="299" type="curve"/>
      <point x="256" y="299"/>
      <point x="295" y="286"/>
      <point x="295" y="286" type="curve"/>
      <point x="381" y="254"/>
      <point x="413" y="227"/>
      <point x="413" y="161" type="curve" smooth="yes"/>
      <point x="413" y="87"/>
      <point x="362" y="44"/>
      <point x="279" y="44" type="curve" smooth="yes"/>
      <point x="216" y="44"/>
      <point x="180" y="55"/>
      <point x="129" y="79" type="curve"/>
      <point x="129" y="79"/>
      <point x="213" y="28"/>
      <point x="213" y="28" type="curve"/>
      <point x="213" y="28"/>
      <point x="196" y="122"/>
      <point x="196" y="122" type="curve"/>
      <point x="185" y="185"/>
      <point x="158" y="203"/>
      <point x="119" y="203" type="curve" smooth="yes"/>
      <point x="91" y="203"/>
      <point x="66" y="187"/>
      <point x="54" y="153" type="curve"/>
      <point x="57" y="53"/>
      <point x="138" y="-7"/>
    </contour>
    <contour>
      <point x="269" y="-119" type="curve"/>
      <point x="269" y="-119"/>
      <point x="327" y="-119"/>
      <point x="327" y="-119" type="curve"/>
      <point x="327" y="-119"/>
      <point x="327" y="364"/>
      <point x="327" y="364" type="curve"/>
      <point x="327" y="364"/>
      <point x="269" y="364"/>
      <point x="269" y="364" type="curve"/>
      <point x="269" y="364"/>
      <point x="269" y="-119"/>
    </contour>
    <contour>
      <point x="278" y="364" type="curve"/>
      <point x="278" y="364"/>
      <point x="336" y="364"/>
      <point x="336" y="364" type="curve"/>
      <point x="336" y="364"/>
      <point x="336" y="834"/>
      <point x="336" y="834" type="curve"/>
      <point x="336" y="834"/>
      <point x="278" y="834"/>
      <point x="278" y="834" type="curve"/>
      <point x="278" y="834"/>
      <point x="278" y="364"/>
    </contour>
  </outline>
</glyph>
<glyph name="cid40744" format="2">
  <advance height="1000" width="792"/>
  <unicode hex="0026"/>
  <outline>
    <contour>
      <point x="251" y="-7" type="curve" smooth="yes"/>
      <point x="385" y="-7"/>
      <point x="452" y="55"/>
      <point x="489" y="112" type="curve"/>
      <point x="491" y="113" type="line"/>
      <point x="459" y="137" type="line"/>
      <point x="428" y="101"/>
      <point x="383" y="82"/>
      <point x="325" y="82" type="curve" smooth="yes"/>
      <point x="240" y="82"/>
      <point x="175" y="140"/>
      <point x="175" y="234" type="curve" smooth="yes"/>
      <point x="175" y="294"/>
      <point x="195" y="349"/>
      <point x="250" y="392" type="curve"/>
      <point x="236" y="414" type="line"/>
      <point x="235" y="412" type="line"/>
      <point x="85" y="356"/>
      <point x="26" y="284"/>
      <point x="26" y="186" type="curve" smooth="yes"/>
      <point x="26" y="83"/>
      <point x="103" y="-7"/>
    </contour>
    <contour>
      <point x="542" y="154" type="line"/>
      <point x="618" y="254"/>
      <point x="654" y="330"/>
      <point x="691" y="460" type="curve"/>
      <point x="616" y="460" type="line"/>
      <point x="595" y="343"/>
      <point x="571" y="275"/>
      <point x="512" y="184" type="curve"/>
      <point x="502" y="184" type="line"/>
    </contour>
    <contour>
      <point x="631" y="427" type="line"/>
      <point x="655" y="427" type="line"/>
      <point x="763" y="443" type="line"/>
      <point x="763" y="486" type="line"/>
      <point x="522" y="486" type="line"/>
      <point x="522" y="443" type="line"/>
    </contour>
    <contour>
      <point x="645" y="-7" type="curve" smooth="yes"/>
      <point x="678" y="-7"/>
      <point x="706" y="-2"/>
      <point x="757" y="9" type="curve"/>
      <point x="763" y="72" type="line"/>
      <point x="600" y="104" type="line"/>
      <point x="690" y="66" type="line"/>
      <point x="595" y="170"/>
      <point x="538" y="232"/>
      <point x="437" y="344" type="curve" smooth="yes"/>
      <point x="340" y="452"/>
      <point x="314" y="484"/>
      <point x="291" y="516" type="curve" smooth="yes"/>
      <point x="260" y="562"/>
      <point x="252" y="597"/>
      <point x="252" y="629" type="curve" smooth="yes"/>
      <point x="252" y="683"/>
      <point x="282" y="720"/>
      <point x="326" y="720" type="curve" smooth="yes"/>
      <point x="372" y="720"/>
      <point x="400" y="685"/>
      <point x="400" y="630" type="curve" smooth="yes"/>
      <point x="400" y="579"/>
      <point x="375" y="517"/>
      <point x="315" y="454" type="curve"/>
      <point x="337" y="431" type="line"/>
      <point x="338" y="431" type="line"/>
      <point x="463" y="484"/>
      <point x="519" y="536"/>
      <point x="519" y="616" type="curve" smooth="yes"/>
      <point x="519" y="702"/>
      <point x="450" y="762"/>
      <point x="328" y="762" type="curve" smooth="yes"/>
      <point x="204" y="762"/>
      <point x="121" y="692"/>
      <point x="121" y="582" type="curve" smooth="yes"/>
      <point x="121" y="526"/>
      <point x="138" y="470"/>
      <point x="188" y="405" type="curve" smooth="yes"/>
      <point x="216" y="371"/>
      <point x="252" y="326"/>
      <point x="327" y="231" type="curve" smooth="yes"/>
      <point x="372" y="176"/>
      <point x="423" y="110"/>
      <point x="486" y="51" type="curve" smooth="yes"/>
      <point x="535" y="8"/>
      <point x="581" y="-7"/>
    </contour>
  </outline>
</glyph>
<glyph name="cid40899" format="2">
  <advance height="1000" width="253"/>
  <unicode hex="0027"/>
  <outline>
    <contour>
      <point x="127" y="825" type="curve" smooth="yes"/>
      <point x="76" y="825"/>
      <point x="45" y="797"/>
      <point x="45" y="739" type="curve" smooth="yes"/>
      <point x="45" y="691"/>
      <point x="67" y="604"/>
      <point x="73" y="574" type="curve" smooth="yes"/>
      <point x="101" y="459" type="line"/>
      <point x="151" y="459" type="line"/>
      <point x="179" y="574" type="line" smooth="yes"/>
      <point x="187" y="605"/>
      <point x="207" y="691"/>
      <point x="207" y="739" type="curve" smooth="yes"/>
      <point x="207" y="797"/>
      <point x="177" y="825"/>
    </contour>
  </outline>
</glyph>
<glyph name="cid40936" format="2">
  <advance height="1000" width="418"/>
  <unicode hex="0028"/>
  <outline>
    <contour>
      <point x="213" y="320" type="curve" smooth="yes"/>
      <point x="213" y="497"/>
      <point x="264" y="634"/>
      <point x="384" y="784" type="curve"/>
      <point x="343" y="820" type="line"/>
      <point x="178" y="690"/>
      <point x="84" y="522"/>
      <point x="84" y="320" type="curve" smooth="yes"/>
      <point x="84" y="120"/>
      <point x="178" y="-48"/>
      <point x="343" y="-179" type="curve"/>
      <point x="384" y="-142" type="line"/>
      <point x="264" y="8"/>
      <point x="213" y="144"/>
    </contour>
  </outline>
</glyph>
<glyph name="cid40938" format="2">
  <advance height="1000" width="418"/>
  <unicode hex="0029"/>
  <outline>
    <contour>
      <point x="205" y="322" type="curve" smooth="yes"/>
      <point x="205" y="146"/>
      <point x="153" y="9"/>
      <point x="34" y="-141" type="curve"/>
      <point x="34" y="-141"/>
      <point x="75" y="-177"/>
      <point x="75" y="-177" type="curve"/>
      <point x="240" y="-47"/>
      <point x="334" y="121"/>
      <point x="334" y="322" type="curve" smooth="yes"/>
      <point x="334" y="523"/>
      <point x="240" y="691"/>
      <point x="75" y="822" type="curve"/>
      <point x="75" y="822"/>
      <point x="34" y="785"/>
      <point x="34" y="785" type="curve"/>
      <point x="153" y="635"/>
      <point x="205" y="498"/>
    </contour>
  </outline>
</glyph>
<glyph name="cid40982" format="2">
  <advance height="1000" width="480"/>
  <unicode hex="002A"/>
  <outline>
    <contour>
      <point x="232" y="602" type="line"/>
      <point x="249" y="602" type="line"/>
      <point x="271" y="667" type="line" smooth="yes"/>
      <point x="287" y="713"/>
      <point x="296" y="750"/>
      <point x="296" y="775" type="curve" smooth="yes"/>
      <point x="296" y="809"/>
      <point x="278" y="834"/>
      <point x="240" y="834" type="curve" smooth="yes"/>
      <point x="203" y="834"/>
      <point x="185" y="809"/>
      <point x="185" y="775" type="curve" smooth="yes"/>
      <point x="185" y="753"/>
      <point x="193" y="714"/>
      <point x="208" y="667" type="curve" smooth="yes"/>
    </contour>
    <contour>
      <point x="237" y="594" type="line"/>
      <point x="243" y="610" type="line"/>
      <point x="187" y="653" type="line" smooth="yes"/>
      <point x="149" y="681"/>
      <point x="116" y="701"/>
      <point x="93" y="709" type="curve" smooth="yes"/>
      <point x="62" y="719"/>
      <point x="30" y="709"/>
      <point x="19" y="673" type="curve" smooth="yes"/>
      <point x="8" y="638"/>
      <point x="27" y="614"/>
      <point x="58" y="602" type="curve"/>
      <point x="80" y="596"/>
      <point x="119" y="591"/>
      <point x="168" y="592" type="curve" smooth="yes"/>
    </contour>
    <contour>
      <point x="246" y="597" type="line"/>
      <point x="233" y="607" type="line"/>
      <point x="176" y="567" type="line" smooth="yes"/>
      <point x="137" y="540"/>
      <point x="108" y="515"/>
      <point x="93" y="495" type="curve" smooth="yes"/>
      <point x="73" y="468"/>
      <point x="73" y="437"/>
      <point x="104" y="414" type="curve" smooth="yes"/>
      <point x="133" y="393"/>
      <point x="164" y="403"/>
      <point x="184" y="430" type="curve" smooth="yes"/>
      <point x="196" y="448"/>
      <point x="212" y="484"/>
      <point x="226" y="531" type="curve" smooth="yes"/>
    </contour>
    <contour>
      <point x="246" y="607" type="line"/>
      <point x="233" y="597" type="line"/>
      <point x="253" y="531" type="line" smooth="yes"/>
      <point x="268" y="485"/>
      <point x="281" y="449"/>
      <point x="296" y="429" type="curve" smooth="yes"/>
      <point x="316" y="402"/>
      <point x="346" y="392"/>
      <point x="376" y="414" type="curve" smooth="yes"/>
      <point x="407" y="437"/>
      <point x="407" y="467"/>
      <point x="386" y="494" type="curve" smooth="yes"/>
      <point x="373" y="512"/>
      <point x="344" y="539"/>
      <point x="304" y="567" type="curve" smooth="yes"/>
    </contour>
    <contour>
      <point x="237" y="610" type="line"/>
      <point x="243" y="594" type="line"/>
      <point x="312" y="592" type="line" smooth="yes"/>
      <point x="360" y="591"/>
      <point x="398" y="595"/>
      <point x="421" y="602" type="curve" smooth="yes"/>
      <point x="454" y="613"/>
      <point x="473" y="638"/>
      <point x="461" y="673" type="curve" smooth="yes"/>
      <point x="449" y="709"/>
      <point x="419" y="719"/>
      <point x="386" y="708" type="curve" smooth="yes"/>
      <point x="366" y="701"/>
      <point x="333" y="682"/>
      <point x="292" y="653" type="curve" smooth="yes"/>
    </contour>
  </outline>
</glyph>
<glyph name="cid41338" format="2">
  <advance height="1000" width="597"/>
  <unicode hex="002B"/>
  <outline>
    <contour>
      <point x="255" y="93" type="line"/>
      <point x="343" y="93" type="line"/>
      <point x="343" y="644" type="line"/>
      <point x="255" y="644" type="line"/>
    </contour>
    <contour>
      <point x="563" y="330" type="line"/>
      <point x="563" y="413" type="line"/>
      <point x="35" y="413" type="line"/>
      <point x="35" y="330" type="line"/>
    </contour>
  </outline>
</glyph>
<glyph name="cid40880" format="2">
  <advance height="1000" width="323"/>
  <unicode hex="002C"/>
  <outline>
    <contour>
      <point x="74" y="-174" type="curve"/>
      <point x="169" y="-143"/>
      <point x="256" y="-68"/>
      <point x="256" y="66" type="curve" smooth="yes"/>
      <point x="256" y="98"/>
      <point x="253" y="120"/>
      <point x="241" y="151" type="curve"/>
      <point x="216" y="175"/>
      <point x="193" y="181"/>
      <point x="162" y="181" type="curve" smooth="yes"/>
      <point x="104" y="181"/>
      <point x="67" y="140"/>
      <point x="67" y="91" type="curve" smooth="yes"/>
      <point x="67" y="55"/>
      <point x="85" y="25"/>
      <point x="130" y="1" type="curve"/>
      <point x="130" y="1"/>
      <point x="202" y="-36"/>
      <point x="202" y="-36" type="curve"/>
      <point x="202" y="-36"/>
      <point x="183" y="3"/>
      <point x="183" y="3" type="curve"/>
      <point x="161" y="-64"/>
      <point x="125" y="-95"/>
      <point x="54" y="-128" type="curve"/>
      <point x="54" y="-128"/>
      <point x="74" y="-174"/>
    </contour>
  </outline>
</glyph>
<glyph name="cid40878" format="2">
  <advance height="1000" width="323"/>
  <unicode hex="002E"/>
  <outline>
    <contour>
      <point x="161" y="-6" type="curve" smooth="yes"/>
      <point x="215" y="-6"/>
      <point x="258" y="37"/>
      <point x="258" y="90" type="curve" smooth="yes"/>
      <point x="258" y="142"/>
      <point x="215" y="186"/>
      <point x="161" y="186" type="curve" smooth="yes"/>
      <point x="108" y="186"/>
      <point x="66" y="142"/>
      <point x="66" y="90" type="curve" smooth="yes"/>
      <point x="66" y="37"/>
      <point x="108" y="-6"/>
    </contour>
  </outline>
</glyph>
<glyph name="cid40974" format="2">
  <advance height="1000" width="416"/>
  <unicode hex="002F"/>
  <outline>
    <contour>
      <point x="9" y="-169" type="line"/>
      <point x="109" y="-169" type="line"/>
      <point x="407" y="804" type="line"/>
      <point x="308" y="804" type="line"/>
    </contour>
  </outline>
</glyph>
<glyph name="cid40752" format="2">
  <advance height="1000" width="596"/>
  <unicode hex="0030"/>
  <outline>
    <contour>
      <point x="298" y="-7" type="curve" smooth="yes"/>
      <point x="437" y="-7"/>
      <point x="559" y="104"/>
      <point x="559" y="363" type="curve" smooth="yes"/>
      <point x="559" y="623"/>
      <point x="437" y="734"/>
      <point x="298" y="734" type="curve" smooth="yes"/>
      <point x="159" y="734"/>
      <point x="38" y="623"/>
      <point x="38" y="363" type="curve" smooth="yes"/>
      <point x="38" y="104"/>
      <point x="159" y="-7"/>
    </contour>
    <contour>
      <point x="298" y="42" type="curve" smooth="yes"/>
      <point x="244" y="42"/>
      <point x="204" y="104"/>
      <point x="204" y="363" type="curve" smooth="yes"/>
      <point x="204" y="623"/>
      <point x="244" y="684"/>
      <point x="298" y="684" type="curve" smooth="yes"/>
      <point x="351" y="684"/>
      <point x="392" y="622"/>
      <point x="392" y="363" type="curve" smooth="yes"/>
      <point x="392" y="105"/>
      <point x="351" y="42"/>
    </contour>
  </outline>
</glyph>
<glyph name="cid40755" format="2">
  <advance height="1000" width="596"/>
  <unicode hex="0031"/>
  <outline>
    <contour>
      <point x="83" y="10" type="curve"/>
      <point x="83" y="10"/>
      <point x="522" y="10"/>
      <point x="522" y="10" type="curve"/>
      <point x="522" y="10"/>
      <point x="522" y="54"/>
      <point x="522" y="54" type="curve"/>
      <point x="522" y="54"/>
      <point x="377" y="84"/>
      <point x="377" y="84" type="curve"/>
      <point x="377" y="84"/>
      <point x="233" y="84"/>
      <point x="233" y="84" type="curve"/>
      <point x="233" y="84"/>
      <point x="83" y="54"/>
      <point x="83" y="54" type="curve"/>
      <point x="83" y="54"/>
      <point x="83" y="10"/>
    </contour>
    <contour>
      <point x="215" y="10" type="curve"/>
      <point x="215" y="10"/>
      <point x="394" y="10"/>
      <point x="394" y="10" type="curve"/>
      <point x="391" y="82"/>
      <point x="390" y="168"/>
      <point x="390" y="243" type="curve"/>
      <point x="390" y="243"/>
      <point x="390" y="538"/>
      <point x="390" y="538" type="curve"/>
      <point x="390" y="538"/>
      <point x="394" y="717"/>
      <point x="394" y="717" type="curve"/>
      <point x="394" y="717"/>
      <point x="379" y="728"/>
      <point x="379" y="728" type="curve"/>
      <point x="379" y="728"/>
      <point x="108" y="661"/>
      <point x="108" y="661" type="curve"/>
      <point x="108" y="661"/>
      <point x="108" y="608"/>
      <point x="108" y="608" type="curve"/>
      <point x="108" y="608"/>
      <point x="218" y="618"/>
      <point x="218" y="618" type="curve"/>
      <point x="218" y="618"/>
      <point x="218" y="243"/>
      <point x="218" y="243" type="curve"/>
      <point x="218" y="168"/>
      <point x="217" y="82"/>
    </contour>
  </outline>
</glyph>
<glyph name="cid40757" format="2">
  <advance height="1000" width="596"/>
  <unicode hex="0032"/>
  <outline>
    <contour>
      <point x="58" y="10" type="curve"/>
      <point x="58" y="10"/>
      <point x="550" y="10"/>
      <point x="550" y="10" type="curve"/>
      <point x="550" y="10"/>
      <point x="550" y="144"/>
      <point x="550" y="144" type="curve"/>
      <point x="550" y="144"/>
      <point x="156" y="144"/>
      <point x="156" y="144" type="curve"/>
      <point x="156" y="144"/>
      <point x="156" y="168"/>
      <point x="156" y="168" type="curve"/>
      <point x="156" y="168"/>
      <point x="139" y="119"/>
      <point x="139" y="119" type="curve"/>
      <point x="183" y="152"/>
      <point x="227" y="184"/>
      <point x="269" y="214" type="curve" smooth="yes"/>
      <point x="450" y="340"/>
      <point x="534" y="427"/>
      <point x="534" y="539" type="curve" smooth="yes"/>
      <point x="534" y="648"/>
      <point x="468" y="734"/>
      <point x="304" y="734" type="curve" smooth="yes"/>
      <point x="170" y="734"/>
      <point x="59" y="671"/>
      <point x="54" y="552" type="curve"/>
      <point x="66" y="523"/>
      <point x="92" y="506"/>
      <point x="122" y="506" type="curve" smooth="yes"/>
      <point x="157" y="506"/>
      <point x="189" y="525"/>
      <point x="200" y="598" type="curve"/>
      <point x="200" y="598"/>
      <point x="220" y="706"/>
      <point x="220" y="706" type="curve"/>
      <point x="220" y="706"/>
      <point x="143" y="660"/>
      <point x="143" y="660" type="curve"/>
      <point x="185" y="680"/>
      <point x="216" y="684"/>
      <point x="249" y="684" type="curve" smooth="yes"/>
      <point x="318" y="684"/>
      <point x="364" y="634"/>
      <point x="364" y="539" type="curve" smooth="yes"/>
      <point x="364" y="438"/>
      <point x="306" y="357"/>
      <point x="203" y="249" type="curve" smooth="yes"/>
      <point x="157" y="200"/>
      <point x="108" y="151"/>
      <point x="58" y="101" type="curve"/>
      <point x="58" y="101"/>
      <point x="58" y="10"/>
    </contour>
  </outline>
</glyph>
<glyph name="cid40758" format="2">
  <advance height="1000" width="596"/>
  <unicode hex="0033"/>
  <outline>
    <contour>
      <point x="279" y="-7" type="curve" smooth="yes"/>
      <point x="457" y="-7"/>
      <point x="558" y="81"/>
      <point x="558" y="197" type="curve" smooth="yes"/>
      <point x="558" y="309"/>
      <point x="486" y="374"/>
      <point x="319" y="386" type="curve"/>
      <point x="319" y="386"/>
      <point x="319" y="372"/>
      <point x="319" y="372" type="curve"/>
      <point x="468" y="389"/>
      <point x="536" y="466"/>
      <point x="536" y="555" type="curve" smooth="yes"/>
      <point x="536" y="656"/>
      <point x="458" y="734"/>
      <point x="297" y="734" type="curve" smooth="yes"/>
      <point x="184" y="734"/>
      <point x="90" y="682"/>
      <point x="76" y="568" type="curve"/>
      <point x="87" y="540"/>
      <point x="111" y="527"/>
      <point x="137" y="527" type="curve" smooth="yes"/>
      <point x="176" y="527"/>
      <point x="206" y="548"/>
      <point x="216" y="606" type="curve"/>
      <point x="216" y="606"/>
      <point x="233" y="704"/>
      <point x="233" y="704" type="curve"/>
      <point x="233" y="704"/>
      <point x="172" y="667"/>
      <point x="172" y="667" type="curve"/>
      <point x="205" y="680"/>
      <point x="233" y="684"/>
      <point x="255" y="684" type="curve" smooth="yes"/>
      <point x="329" y="684"/>
      <point x="370" y="633"/>
      <point x="370" y="550" type="curve" smooth="yes"/>
      <point x="370" y="454"/>
      <point x="324" y="403"/>
      <point x="231" y="403" type="curve"/>
      <point x="231" y="403"/>
      <point x="198" y="403"/>
      <point x="198" y="403" type="curve"/>
      <point x="198" y="403"/>
      <point x="198" y="348"/>
      <point x="198" y="348" type="curve"/>
      <point x="198" y="348"/>
      <point x="236" y="348"/>
      <point x="236" y="348" type="curve"/>
      <point x="336" y="348"/>
      <point x="383" y="290"/>
      <point x="383" y="199" type="curve" smooth="yes"/>
      <point x="383" y="101"/>
      <point x="332" y="42"/>
      <point x="233" y="42" type="curve" smooth="yes"/>
      <point x="206" y="42"/>
      <point x="183" y="47"/>
      <point x="155" y="60" type="curve"/>
      <point x="155" y="60"/>
      <point x="206" y="19"/>
      <point x="206" y="19" type="curve"/>
      <point x="206" y="19"/>
      <point x="190" y="125"/>
      <point x="190" y="125" type="curve"/>
      <point x="180" y="198"/>
      <point x="155" y="219"/>
      <point x="112" y="219" type="curve" smooth="yes"/>
      <point x="85" y="219"/>
      <point x="58" y="206"/>
      <point x="46" y="172" type="curve"/>
      <point x="58" y="55"/>
      <point x="138" y="-7"/>
    </contour>
  </outline>
</glyph>
<glyph name="cid40761" format="2">
  <advance height="1000" width="596"/>
  <unicode hex="0034"/>
  <outline>
    <contour>
      <point x="312" y="-2" type="curve"/>
      <point x="312" y="-2"/>
      <point x="466" y="-2"/>
      <point x="466" y="-2" type="curve"/>
      <point x="466" y="-2"/>
      <point x="466" y="726"/>
      <point x="466" y="726" type="curve"/>
      <point x="466" y="726"/>
      <point x="345" y="726"/>
      <point x="345" y="726" type="curve"/>
      <point x="345" y="726"/>
      <point x="25" y="252"/>
      <point x="25" y="252" type="curve"/>
      <point x="25" y="252"/>
      <point x="25" y="152"/>
      <point x="25" y="152" type="curve"/>
      <point x="25" y="152"/>
      <point x="567" y="152"/>
      <point x="567" y="152" type="curve"/>
      <point x="567" y="152"/>
      <point x="567" y="273"/>
      <point x="567" y="273" type="curve"/>
      <point x="567" y="273"/>
      <point x="93" y="273"/>
      <point x="93" y="273" type="curve"/>
      <point x="93" y="273"/>
      <point x="93" y="308"/>
      <point x="93" y="308" type="curve"/>
      <point x="93" y="308"/>
      <point x="78" y="235"/>
      <point x="78" y="235" type="curve"/>
      <point x="78" y="235"/>
      <point x="212" y="436"/>
      <point x="212" y="436" type="curve"/>
      <point x="212" y="436"/>
      <point x="346" y="637"/>
      <point x="346" y="637" type="curve"/>
      <point x="346" y="637"/>
      <point x="292" y="608"/>
      <point x="292" y="608" type="curve"/>
      <point x="292" y="608"/>
      <point x="312" y="608"/>
      <point x="312" y="608" type="curve"/>
      <point x="312" y="608"/>
      <point x="312" y="227"/>
      <point x="312" y="227" type="curve"/>
      <point x="312" y="227"/>
      <point x="312" y="198"/>
      <point x="312" y="198" type="curve"/>
      <point x="312" y="198"/>
      <point x="312" y="-2"/>
    </contour>
  </outline>
</glyph>
<glyph name="cid40764" format="2">
  <advance height="1000" width="596"/>
  <unicode hex="0035"/>
  <outline>
    <contour>
      <point x="270" y="-7" type="curve" smooth="yes"/>
      <point x="438" y="-7"/>
      <point x="561" y="72"/>
      <point x="561" y="225" type="curve" smooth="yes"/>
      <point x="561" y="368"/>
      <point x="456" y="442"/>
      <point x="292" y="442" type="curve" smooth="yes"/>
      <point x="232" y="442"/>
      <point x="179" y="433"/>
      <point x="127" y="411" type="curve"/>
      <point x="127" y="411"/>
      <point x="169" y="383"/>
      <point x="169" y="383" type="curve"/>
      <point x="169" y="383"/>
      <point x="189" y="680"/>
      <point x="189" y="680" type="curve"/>
      <point x="189" y="680"/>
      <point x="150" y="582"/>
      <point x="150" y="582" type="curve"/>
      <point x="150" y="582"/>
      <point x="535" y="582"/>
      <point x="535" y="582" type="curve"/>
      <point x="535" y="582"/>
      <point x="535" y="717"/>
      <point x="535" y="717" type="curve"/>
      <point x="535" y="717"/>
      <point x="132" y="717"/>
      <point x="132" y="717" type="curve"/>
      <point x="132" y="717"/>
      <point x="110" y="374"/>
      <point x="110" y="374" type="curve"/>
      <point x="110" y="374"/>
      <point x="137" y="355"/>
      <point x="137" y="355" type="curve"/>
      <point x="172" y="366"/>
      <point x="208" y="371"/>
      <point x="244" y="371" type="curve" smooth="yes"/>
      <point x="333" y="371"/>
      <point x="381" y="310"/>
      <point x="381" y="208" type="curve" smooth="yes"/>
      <point x="381" y="110"/>
      <point x="327" y="42"/>
      <point x="242" y="42" type="curve" smooth="yes"/>
      <point x="214" y="42"/>
      <point x="195" y="46"/>
      <point x="166" y="60" type="curve"/>
      <point x="166" y="60"/>
      <point x="200" y="26"/>
      <point x="200" y="26" type="curve"/>
      <point x="200" y="26"/>
      <point x="187" y="129"/>
      <point x="187" y="129" type="curve"/>
      <point x="178" y="196"/>
      <point x="152" y="219"/>
      <point x="110" y="219" type="curve" smooth="yes"/>
      <point x="82" y="219"/>
      <point x="54" y="205"/>
      <point x="43" y="171" type="curve"/>
      <point x="52" y="60"/>
      <point x="132" y="-7"/>
    </contour>
  </outline>
</glyph>
<glyph name="cid40769" format="2">
  <advance height="1000" width="596"/>
  <unicode hex="0036"/>
  <outline>
    <contour>
      <point x="302" y="-7" type="curve" smooth="yes"/>
      <point x="431" y="-7"/>
      <point x="562" y="75"/>
      <point x="562" y="242" type="curve" smooth="yes"/>
      <point x="562" y="366"/>
      <point x="491" y="448"/>
      <point x="366" y="448" type="curve" smooth="yes"/>
      <point x="282" y="448"/>
      <point x="217" y="414"/>
      <point x="162" y="329" type="curve"/>
      <point x="156" y="329" type="line"/>
      <point x="177" y="314" type="line"/>
      <point x="220" y="361"/>
      <point x="260" y="376"/>
      <point x="298" y="376" type="curve" smooth="yes"/>
      <point x="355" y="376"/>
      <point x="391" y="325"/>
      <point x="391" y="226" type="curve" smooth="yes"/>
      <point x="391" y="97"/>
      <point x="351" y="42"/>
      <point x="300" y="42" type="curve" smooth="yes"/>
      <point x="242" y="42"/>
      <point x="207" y="112"/>
      <point x="207" y="270" type="curve" smooth="yes"/>
      <point x="207" y="506"/>
      <point x="301" y="632"/>
      <point x="514" y="686" type="curve"/>
      <point x="507" y="734" type="line"/>
      <point x="225" y="708"/>
      <point x="32" y="527"/>
      <point x="32" y="297" type="curve" smooth="yes"/>
      <point x="32" y="103"/>
      <point x="136" y="-7"/>
    </contour>
  </outline>
</glyph>
<glyph name="cid40771" format="2">
  <advance height="1000" width="596"/>
  <unicode hex="0037"/>
  <outline>
    <contour>
      <point x="130" y="10" type="line"/>
      <point x="291" y="10" type="line"/>
      <point x="550" y="633" type="line"/>
      <point x="550" y="717" type="line"/>
      <point x="57" y="717" type="line"/>
      <point x="57" y="582" type="line"/>
      <point x="466" y="582" type="line"/>
      <point x="475" y="560" type="line"/>
      <point x="479" y="628" type="line"/>
      <point x="120" y="22" type="line"/>
    </contour>
  </outline>
</glyph>
<glyph name="cid40776" format="2">
  <advance height="1000" width="596"/>
  <unicode hex="0038"/>
  <outline>
    <contour>
      <point x="283" y="-7" type="curve" smooth="yes"/>
      <point x="447" y="-7"/>
      <point x="549" y="72"/>
      <point x="549" y="197" type="curve" smooth="yes"/>
      <point x="549" y="302"/>
      <point x="476" y="368"/>
      <point x="362" y="424" type="curve" smooth="yes"/>
      <point x="246" y="480"/>
      <point x="207" y="526"/>
      <point x="207" y="586" type="curve" smooth="yes"/>
      <point x="207" y="648"/>
      <point x="250" y="684"/>
      <point x="300" y="684" type="curve" smooth="yes"/>
      <point x="356" y="684"/>
      <point x="389" y="638"/>
      <point x="389" y="577" type="curve" smooth="yes"/>
      <point x="389" y="520"/>
      <point x="373" y="477"/>
      <point x="317" y="411" type="curve"/>
      <point x="317" y="411"/>
      <point x="343" y="390"/>
      <point x="343" y="390" type="curve"/>
      <point x="343" y="390"/>
      <point x="343" y="398"/>
      <point x="343" y="398" type="curve"/>
      <point x="483" y="446"/>
      <point x="525" y="506"/>
      <point x="525" y="573" type="curve" smooth="yes"/>
      <point x="525" y="661"/>
      <point x="457" y="734"/>
      <point x="305" y="734" type="curve" smooth="yes"/>
      <point x="165" y="734"/>
      <point x="60" y="658"/>
      <point x="60" y="535" type="curve" smooth="yes"/>
      <point x="60" y="436"/>
      <point x="128" y="368"/>
      <point x="230" y="320" type="curve" smooth="yes"/>
      <point x="343" y="266"/>
      <point x="392" y="221"/>
      <point x="392" y="151" type="curve" smooth="yes"/>
      <point x="392" y="88"/>
      <point x="356" y="42"/>
      <point x="295" y="42" type="curve" smooth="yes"/>
      <point x="234" y="42"/>
      <point x="190" y="94"/>
      <point x="190" y="168" type="curve" smooth="yes"/>
      <point x="190" y="233"/>
      <point x="215" y="279"/>
      <point x="273" y="337" type="curve"/>
      <point x="273" y="337"/>
      <point x="245" y="359"/>
      <point x="245" y="359" type="curve"/>
      <point x="245" y="359"/>
      <point x="245" y="350"/>
      <point x="245" y="350" type="curve"/>
      <point x="111" y="309"/>
      <point x="46" y="249"/>
      <point x="46" y="161" type="curve" smooth="yes"/>
      <point x="46" y="62"/>
      <point x="124" y="-7"/>
    </contour>
  </outline>
</glyph>
<glyph name="cid40779" format="2">
  <advance height="1000" width="596"/>
  <unicode hex="0039"/>
  <outline>
    <contour>
      <point x="100" y="-10" type="line"/>
      <point x="386" y="32"/>
      <point x="562" y="203"/>
      <point x="562" y="431" type="curve" smooth="yes"/>
      <point x="562" y="622"/>
      <point x="464" y="734"/>
      <point x="292" y="734" type="curve" smooth="yes"/>
      <point x="157" y="734"/>
      <point x="31" y="646"/>
      <point x="31" y="494" type="curve" smooth="yes"/>
      <point x="31" y="355"/>
      <point x="125" y="281"/>
      <point x="246" y="281" type="curve" smooth="yes"/>
      <point x="327" y="281"/>
      <point x="388" y="316"/>
      <point x="429" y="383" type="curve"/>
      <point x="437" y="383" type="line"/>
      <point x="412" y="399" type="line"/>
      <point x="380" y="365"/>
      <point x="347" y="350"/>
      <point x="309" y="350" type="curve" smooth="yes"/>
      <point x="244" y="350"/>
      <point x="200" y="404"/>
      <point x="200" y="508" type="curve" smooth="yes"/>
      <point x="200" y="632"/>
      <point x="244" y="684"/>
      <point x="297" y="684" type="curve" smooth="yes"/>
      <point x="354" y="684"/>
      <point x="388" y="623"/>
      <point x="388" y="448" type="curve" smooth="yes"/>
      <point x="388" y="213"/>
      <point x="309" y="106"/>
      <point x="91" y="37" type="curve"/>
    </contour>
  </outline>
</glyph>
<glyph name="cid41354" format="2">
  <advance height="1000" width="597"/>
  <unicode hex="003C"/>
  <outline>
    <contour>
      <point x="46" y="339" type="line"/>
      <point x="506" y="92" type="line"/>
      <point x="547" y="172" type="line"/>
      <point x="102" y="401" type="line"/>
      <point x="102" y="345" type="line"/>
      <point x="547" y="571" type="line"/>
      <point x="506" y="652" type="line"/>
      <point x="46" y="406" type="line"/>
    </contour>
  </outline>
</glyph>
<glyph name="cid41353" format="2">
  <advance height="1000" width="597"/>
  <unicode hex="003D"/>
  <outline>
    <contour>
      <point x="563" y="213" type="line"/>
      <point x="563" y="296" type="line"/>
      <point x="35" y="296" type="line"/>
      <point x="35" y="213" type="line"/>
    </contour>
    <contour>
      <point x="563" y="448" type="line"/>
      <point x="563" y="531" type="line"/>
      <point x="35" y="531" type="line"/>
      <point x="35" y="448" type="line"/>
    </contour>
  </outline>
</glyph>
<glyph name="cid41355" format="2">
  <advance height="1000" width="597"/>
  <unicode hex="003E"/>
  <outline>
    <contour>
      <point x="552" y="405" type="line"/>
      <point x="92" y="653" type="line"/>
      <point x="52" y="572" type="line"/>
      <point x="496" y="344" type="line"/>
      <point x="496" y="400" type="line"/>
      <point x="52" y="174" type="line"/>
      <point x="92" y="93" type="line"/>
      <point x="552" y="338" type="line"/>
    </contour>
  </outline>
</glyph>
<glyph name="cid40999" format="2">
  <advance height="1000" width="992"/>
  <unicode hex="0040"/>
  <outline>
    <contour>
      <point x="385" y="55" type="curve" smooth="yes"/>
      <point x="460" y="55"/>
      <point x="524" y="105"/>
      <point x="581" y="214" type="curve"/>
      <point x="582" y="217" type="line"/>
      <point x="570" y="238" type="line"/>
      <point x="522" y="168"/>
      <point x="491" y="147"/>
      <point x="460" y="147" type="curve" smooth="yes"/>
      <point x="421" y="147"/>
      <point x="398" y="178"/>
      <point x="398" y="242" type="curve" smooth="yes"/>
      <point x="398" y="367"/>
      <point x="472" y="479"/>
      <point x="536" y="479" type="curve" smooth="yes"/>
      <point x="567" y="479"/>
      <point x="589" y="464"/>
      <point x="614" y="414" type="curve"/>
      <point x="671" y="470" type="line"/>
      <point x="643" y="521"/>
      <point x="601" y="551"/>
      <point x="540" y="551" type="curve" smooth="yes"/>
      <point x="399" y="551"/>
      <point x="260" y="370"/>
      <point x="260" y="207" type="curve" smooth="yes"/>
      <point x="260" y="102"/>
      <point x="319" y="55"/>
    </contour>
    <contour>
      <point x="681" y="55" type="curve" smooth="yes"/>
      <point x="809" y="55"/>
      <point x="941" y="181"/>
      <point x="941" y="387" type="curve" smooth="yes"/>
      <point x="941" y="583"/>
      <point x="808" y="742"/>
      <point x="560" y="742" type="curve" smooth="yes"/>
      <point x="244" y="742"/>
      <point x="52" y="488"/>
      <point x="52" y="230" type="curve" smooth="yes"/>
      <point x="52" y="0"/>
      <point x="198" y="-161"/>
      <point x="444" y="-161" type="curve" smooth="yes"/>
      <point x="523" y="-161"/>
      <point x="597" y="-142"/>
      <point x="662" y="-112" type="curve"/>
      <point x="648" y="-71" type="line"/>
      <point x="586" y="-93"/>
      <point x="529" y="-103"/>
      <point x="464" y="-103" type="curve" smooth="yes"/>
      <point x="267" y="-103"/>
      <point x="132" y="19"/>
      <point x="132" y="242" type="curve" smooth="yes"/>
      <point x="132" y="471"/>
      <point x="289" y="694"/>
      <point x="554" y="694" type="curve" smooth="yes"/>
      <point x="752" y="694"/>
      <point x="867" y="580"/>
      <point x="867" y="387" type="curve" smooth="yes"/>
      <point x="867" y="217"/>
      <point x="778" y="121"/>
      <point x="719" y="121" type="curve" smooth="yes"/>
      <point x="675" y="121"/>
      <point x="659" y="146"/>
      <point x="674" y="230" type="curve" smooth="yes"/>
      <point x="730" y="529" type="line"/>
      <point x="706" y="545" type="line"/>
      <point x="589" y="482" type="line"/>
      <point x="533" y="179" type="line"/>
      <point x="544" y="172" type="line"/>
      <point x="551" y="104"/>
      <point x="600" y="55"/>
    </contour>
  </outline>
</glyph>
<glyph name="cid40015" format="2">
  <advance height="1000" width="625"/>
  <unicode hex="0046"/>
  <outline>
    <contour>
      <point x="35" y="10" type="curve"/>
      <point x="35" y="10"/>
      <point x="396" y="10"/>
      <point x="396" y="10" type="curve"/>
      <point x="396" y="10"/>
      <point x="396" y="59"/>
      <point x="396" y="59" type="curve"/>
      <point x="396" y="59"/>
      <point x="244" y="76"/>
      <point x="244" y="76" type="curve"/>
      <point x="244" y="76"/>
      <point x="184" y="76"/>
      <point x="184" y="76" type="curve"/>
      <point x="184" y="76"/>
      <point x="35" y="59"/>
      <point x="35" y="59" type="curve"/>
      <point x="35" y="59"/>
      <point x="35" y="10"/>
    </contour>
    <contour>
      <point x="115" y="10" type="curve"/>
      <point x="115" y="10"/>
      <point x="301" y="10"/>
      <point x="301" y="10" type="curve"/>
      <point x="298" y="118"/>
      <point x="298" y="242"/>
      <point x="298" y="361" type="curve"/>
      <point x="298" y="361"/>
      <point x="298" y="401"/>
      <point x="298" y="401" type="curve"/>
      <point x="298" y="517"/>
      <point x="298" y="641"/>
      <point x="301" y="746" type="curve"/>
      <point x="301" y="746"/>
      <point x="115" y="746"/>
      <point x="115" y="746" type="curve"/>
      <point x="119" y="639"/>
      <point x="119" y="516"/>
      <point x="119" y="401" type="curve"/>
      <point x="119" y="401"/>
      <point x="119" y="357"/>
      <point x="119" y="357" type="curve"/>
      <point x="119" y="240"/>
      <point x="119" y="115"/>
    </contour>
    <contour>
      <point x="209" y="361" type="curve"/>
      <point x="209" y="361"/>
      <point x="444" y="361"/>
      <point x="444" y="361" type="curve"/>
      <point x="444" y="361"/>
      <point x="444" y="417"/>
      <point x="444" y="417" type="curve"/>
      <point x="444" y="417"/>
      <point x="209" y="417"/>
      <point x="209" y="417" type="curve"/>
      <point x="209" y="417"/>
      <point x="209" y="361"/>
    </contour>
    <contour>
      <point x="438" y="259" type="curve"/>
      <point x="438" y="259"/>
      <point x="491" y="259"/>
      <point x="491" y="259" type="curve"/>
      <point x="491" y="259"/>
      <point x="491" y="511"/>
      <point x="491" y="511" type="curve"/>
      <point x="491" y="511"/>
      <point x="438" y="511"/>
      <point x="438" y="511" type="curve"/>
      <point x="438" y="511"/>
      <point x="414" y="401"/>
      <point x="414" y="401" type="curve"/>
      <point x="414" y="401"/>
      <point x="414" y="373"/>
      <point x="414" y="373" type="curve"/>
      <point x="414" y="373"/>
      <point x="438" y="259"/>
    </contour>
    <contour>
      <point x="35" y="697" type="curve"/>
      <point x="35" y="697"/>
      <point x="184" y="680"/>
      <point x="184" y="680" type="curve"/>
      <point x="184" y="680"/>
      <point x="220" y="680"/>
      <point x="220" y="680" type="curve"/>
      <point x="220" y="680"/>
      <point x="220" y="746"/>
      <point x="220" y="746" type="curve"/>
      <point x="220" y="746"/>
      <point x="35" y="746"/>
      <point x="35" y="746" type="curve"/>
      <point x="35" y="746"/>
      <point x="35" y="697"/>
    </contour>
    <contour>
      <point x="526" y="552" type="curve"/>
      <point x="526" y="552"/>
      <point x="599" y="552"/>
      <point x="599" y="552" type="curve"/>
      <point x="599" y="552"/>
      <point x="589" y="746"/>
      <point x="589" y="746" type="curve"/>
      <point x="589" y="746"/>
      <point x="203" y="746"/>
      <point x="203" y="746" type="curve"/>
      <point x="203" y="746"/>
      <point x="203" y="693"/>
      <point x="203" y="693" type="curve"/>
      <point x="203" y="693"/>
      <point x="521" y="693"/>
      <point x="521" y="693" type="curve"/>
      <point x="521" y="693"/>
      <point x="480" y="721"/>
      <point x="480" y="721" type="curve"/>
      <point x="480" y="721"/>
      <point x="526" y="552"/>
    </contour>
  </outline>
</glyph>
<glyph name="cid40034" format="2">
  <advance height="1000" width="784"/>
  <unicode hex="004E"/>
  <outline>
    <contour>
      <point x="31" y="10" type="curve"/>
      <point x="31" y="10"/>
      <point x="299" y="10"/>
      <point x="299" y="10" type="curve"/>
      <point x="299" y="10"/>
      <point x="299" y="59"/>
      <point x="299" y="59" type="curve"/>
      <point x="299" y="59"/>
      <point x="170" y="75"/>
      <point x="170" y="75" type="curve"/>
      <point x="170" y="75"/>
      <point x="140" y="75"/>
      <point x="140" y="75" type="curve"/>
      <point x="140" y="75"/>
      <point x="31" y="59"/>
      <point x="31" y="59" type="curve"/>
      <point x="31" y="59"/>
      <point x="31" y="10"/>
    </contour>
    <contour>
      <point x="122" y="10" type="curve"/>
      <point x="122" y="10"/>
      <point x="183" y="10"/>
      <point x="183" y="10" type="curve"/>
      <point x="183" y="10"/>
      <point x="183" y="378"/>
      <point x="183" y="378" type="curve"/>
      <point x="183" y="378"/>
      <point x="183" y="720"/>
      <point x="183" y="720" type="curve"/>
      <point x="183" y="720"/>
      <point x="122" y="720"/>
      <point x="122" y="720" type="curve"/>
      <point x="122" y="720"/>
      <point x="122" y="10"/>
    </contour>
    <contour>
      <point x="484" y="697" type="curve"/>
      <point x="484" y="697"/>
      <point x="619" y="682"/>
      <point x="619" y="682" type="curve"/>
      <point x="619" y="682"/>
      <point x="648" y="682"/>
      <point x="648" y="682" type="curve"/>
      <point x="648" y="682"/>
      <point x="752" y="697"/>
      <point x="752" y="697" type="curve"/>
      <point x="752" y="697"/>
      <point x="752" y="746"/>
      <point x="752" y="746" type="curve"/>
      <point x="752" y="746"/>
      <point x="484" y="746"/>
      <point x="484" y="746" type="curve"/>
      <point x="484" y="746"/>
      <point x="484" y="697"/>
    </contour>
    <contour>
      <point x="577" y="8" type="curve"/>
      <point x="577" y="8"/>
      <point x="663" y="8"/>
      <point x="663" y="8" type="curve"/>
      <point x="663" y="8"/>
      <point x="663" y="746"/>
      <point x="663" y="746" type="curve"/>
      <point x="663" y="746"/>
      <point x="603" y="746"/>
      <point x="603" y="746" type="curve"/>
      <point x="603" y="746"/>
      <point x="603" y="411"/>
      <point x="603" y="411" type="curve"/>
      <point x="603" y="411"/>
      <point x="603" y="245"/>
      <point x="603" y="245" type="curve"/>
      <point x="603" y="245"/>
      <point x="623" y="250"/>
      <point x="623" y="250" type="curve"/>
      <point x="623" y="250"/>
      <point x="282" y="746"/>
      <point x="282" y="746" type="curve"/>
      <point x="282" y="746"/>
      <point x="38" y="746"/>
      <point x="38" y="746" type="curve"/>
      <point x="38" y="746"/>
      <point x="38" y="697"/>
      <point x="38" y="697" type="curve"/>
      <point x="38" y="697"/>
      <point x="111" y="689"/>
      <point x="111" y="689" type="curve"/>
      <point x="111" y="689"/>
      <point x="169" y="602"/>
      <point x="169" y="602" type="curve"/>
      <point x="169" y="602"/>
      <point x="172" y="602"/>
      <point x="172" y="602" type="curve"/>
      <point x="172" y="602"/>
      <point x="577" y="8"/>
    </contour>
  </outline>
</glyph>
<glyph name="cid40041" format="2">
  <advance height="1000" width="664"/>
  <unicode hex="0050"/>
  <outline>
    <contour>
      <point x="35" y="10" type="line"/>
      <point x="396" y="10" type="line"/>
      <point x="396" y="59" type="line"/>
      <point x="245" y="76" type="line"/>
      <point x="184" y="76" type="line"/>
      <point x="35" y="59" type="line"/>
    </contour>
    <contour>
      <point x="115" y="10" type="curve"/>
      <point x="301" y="10" type="line"/>
      <point x="298" y="118"/>
      <point x="298" y="240"/>
      <point x="298" y="338" type="curve" smooth="yes"/>
      <point x="298" y="401" type="line" smooth="yes"/>
      <point x="298" y="517"/>
      <point x="298" y="641"/>
      <point x="301" y="746" type="curve"/>
      <point x="115" y="746" type="line"/>
      <point x="119" y="639"/>
      <point x="119" y="516"/>
      <point x="119" y="401" type="curve" smooth="yes"/>
      <point x="119" y="357" type="line" smooth="yes"/>
      <point x="119" y="240"/>
      <point x="119" y="115"/>
    </contour>
    <contour>
      <point x="205" y="300" type="line"/>
      <point x="327" y="300" type="line" smooth="yes"/>
      <point x="566" y="300"/>
      <point x="645" y="404"/>
      <point x="645" y="530" type="curve" smooth="yes"/>
      <point x="645" y="662"/>
      <point x="556" y="746"/>
      <point x="328" y="746" type="curve" smooth="yes"/>
      <point x="205" y="746" type="line"/>
      <point x="205" y="692" type="line"/>
      <point x="326" y="692" type="line" smooth="yes"/>
      <point x="421" y="692"/>
      <point x="475" y="635"/>
      <point x="475" y="531" type="curve" smooth="yes"/>
      <point x="475" y="426"/>
      <point x="427" y="353"/>
      <point x="329" y="353" type="curve" smooth="yes"/>
      <point x="205" y="353" type="line"/>
    </contour>
    <contour>
      <point x="35" y="697" type="line"/>
      <point x="184" y="680" type="line"/>
      <point x="220" y="680" type="line"/>
      <point x="220" y="746" type="line"/>
      <point x="35" y="746" type="line"/>
    </contour>
  </outline>
</glyph>
<glyph name="cid40042" format="2">
  <advance height="1000" width="767"/>
  <unicode hex="0051"/>
  <outline>
    <contour>
      <point x="540" y="-220" type="curve" smooth="yes"/>
      <point x="597" y="-220"/>
      <point x="654" y="-206"/>
      <point x="690" y="-178" type="curve"/>
      <point x="690" y="-178"/>
      <point x="671" y="-129"/>
      <point x="671" y="-129" type="curve"/>
      <point x="643" y="-140"/>
      <point x="613" y="-142"/>
      <point x="590" y="-142" type="curve" smooth="yes"/>
      <point x="505" y="-142"/>
      <point x="450" y="-77"/>
      <point x="465" y="32" type="curve"/>
      <point x="465" y="32"/>
      <point x="296" y="35"/>
      <point x="296" y="35" type="curve"/>
      <point x="296" y="35"/>
      <point x="296" y="16"/>
      <point x="296" y="16" type="curve"/>
      <point x="296" y="-123"/>
      <point x="382" y="-220"/>
    </contour>
    <contour>
      <point x="384" y="-10" type="curve" smooth="yes"/>
      <point x="563" y="-10"/>
      <point x="729" y="120"/>
      <point x="729" y="377" type="curve" smooth="yes"/>
      <point x="729" y="638"/>
      <point x="562" y="766"/>
      <point x="384" y="766" type="curve" smooth="yes"/>
      <point x="205" y="766"/>
      <point x="38" y="636"/>
      <point x="38" y="378" type="curve" smooth="yes"/>
      <point x="38" y="116"/>
      <point x="204" y="-10"/>
    </contour>
    <contour>
      <point x="384" y="45" type="curve" smooth="yes"/>
      <point x="272" y="45"/>
      <point x="228" y="184"/>
      <point x="228" y="378" type="curve" smooth="yes"/>
      <point x="228" y="572"/>
      <point x="272" y="712"/>
      <point x="384" y="712" type="curve" smooth="yes"/>
      <point x="495" y="712"/>
      <point x="539" y="571"/>
      <point x="539" y="378" type="curve" smooth="yes"/>
      <point x="539" y="184"/>
      <point x="495" y="45"/>
    </contour>
  </outline>
</glyph>
<glyph name="cid40050" format="2">
  <advance height="1000" width="724"/>
  <unicode hex="0056"/>
  <outline>
    <contour>
      <point x="309" y="8" type="line"/>
      <point x="412" y="8" type="line"/>
      <point x="661" y="746" type="line"/>
      <point x="598" y="746" type="line"/>
      <point x="416" y="188" type="line"/>
      <point x="411" y="174" type="line"/>
      <point x="430" y="174" type="line"/>
      <point x="246" y="746" type="line"/>
      <point x="55" y="746" type="line"/>
    </contour>
    <contour>
      <point x="10" y="697" type="line"/>
      <point x="151" y="680" type="line"/>
      <point x="208" y="680" type="line"/>
      <point x="358" y="699" type="line"/>
      <point x="358" y="746" type="line"/>
      <point x="10" y="746" type="line"/>
    </contour>
    <contour>
      <point x="491" y="699" type="line"/>
      <point x="601" y="682" type="line"/>
      <point x="619" y="682" type="line"/>
      <point x="718" y="697" type="line"/>
      <point x="718" y="746" type="line"/>
      <point x="491" y="746" type="line"/>
    </contour>
  </outline>
</glyph>
<glyph name="cid40057" format="2">
  <advance height="1000" width="720"/>
  <unicode hex="0058"/>
  <outline>
    <contour>
      <point x="10" y="10" type="line"/>
      <point x="237" y="10" type="line"/>
      <point x="237" y="59" type="line"/>
      <point x="137" y="69" type="line"/>
      <point x="106" y="69" type="line"/>
      <point x="10" y="59" type="line"/>
    </contour>
    <contour>
      <point x="56" y="10" type="line"/>
      <point x="128" y="10" type="line"/>
      <point x="332" y="338" type="line"/>
      <point x="355" y="376" type="line"/>
      <point x="368" y="376" type="line"/>
      <point x="312" y="402" type="line"/>
    </contour>
    <contour>
      <point x="356" y="10" type="line"/>
      <point x="711" y="10" type="line"/>
      <point x="711" y="59" type="line"/>
      <point x="567" y="76" type="line"/>
      <point x="503" y="76" type="line"/>
      <point x="356" y="59" type="line"/>
    </contour>
    <contour>
      <point x="405" y="390" type="line"/>
      <point x="631" y="746" type="line"/>
      <point x="560" y="746" type="line"/>
      <point x="386" y="456" type="line"/>
      <point x="364" y="418" type="line"/>
      <point x="352" y="418" type="line"/>
    </contour>
    <contour>
      <point x="472" y="10" type="line"/>
      <point x="669" y="10" type="line"/>
      <point x="252" y="746" type="line"/>
      <point x="55" y="746" type="line"/>
    </contour>
    <contour>
      <point x="16" y="697" type="line"/>
      <point x="146" y="680" type="line"/>
      <point x="213" y="680" type="line"/>
      <point x="356" y="697" type="line"/>
      <point x="356" y="746" type="line"/>
      <point x="16" y="746" type="line"/>
    </contour>
    <contour>
      <point x="451" y="697" type="line"/>
      <point x="550" y="688" type="line"/>
      <point x="580" y="688" type="line"/>
      <point x="676" y="697" type="line"/>
      <point x="676" y="746" type="line"/>
      <point x="451" y="746" type="line"/>
    </contour>
  </outline>
</glyph>
<glyph name="cid40060" format="2">
  <advance height="1000" width="616"/>
  <unicode hex="005A"/>
  <outline>
    <contour>
      <point x="24" y="10" type="line"/>
      <point x="582" y="10" type="line"/>
      <point x="592" y="218" type="line"/>
      <point x="523" y="218" type="line"/>
      <point x="473" y="36" type="line"/>
      <point x="513" y="64" type="line"/>
      <point x="365" y="64" type="line"/>
      <point x="221" y="64" type="line"/>
      <point x="221" y="78" type="line"/>
      <point x="212" y="38" type="line"/>
      <point x="580" y="704" type="line"/>
      <point x="580" y="746" type="line"/>
      <point x="45" y="746" type="line"/>
      <point x="35" y="540" type="line"/>
      <point x="104" y="540" type="line"/>
      <point x="155" y="720" type="line"/>
      <point x="114" y="692" type="line"/>
      <point x="250" y="692" type="line"/>
      <point x="383" y="692" type="line"/>
      <point x="383" y="678" type="line"/>
      <point x="392" y="718" type="line"/>
      <point x="24" y="53" type="line"/>
    </contour>
  </outline>
</glyph>
<glyph name="cid40940" format="2">
  <advance height="1000" width="389"/>
  <unicode hex="005B"/>
  <outline>
    <contour>
      <point x="113" y="-169" type="curve"/>
      <point x="113" y="-169"/>
      <point x="253" y="-169"/>
      <point x="253" y="-169" type="curve"/>
      <point x="250" y="-61"/>
      <point x="250" y="66"/>
      <point x="250" y="184" type="curve"/>
      <point x="250" y="184"/>
      <point x="250" y="460"/>
      <point x="250" y="460" type="curve"/>
      <point x="250" y="578"/>
      <point x="250" y="703"/>
      <point x="254" y="810" type="curve"/>
      <point x="254" y="810"/>
      <point x="113" y="810"/>
      <point x="113" y="810" type="curve"/>
      <point x="118" y="701"/>
      <point x="118" y="577"/>
      <point x="118" y="460" type="curve"/>
      <point x="118" y="460"/>
      <point x="118" y="184"/>
      <point x="118" y="184" type="curve"/>
      <point x="118" y="65"/>
      <point x="118" y="-62"/>
    </contour>
    <contour>
      <point x="178" y="-169" type="curve"/>
      <point x="178" y="-169"/>
      <point x="364" y="-169"/>
      <point x="364" y="-169" type="curve"/>
      <point x="364" y="-169"/>
      <point x="364" y="-120"/>
      <point x="364" y="-120" type="curve"/>
      <point x="364" y="-120"/>
      <point x="208" y="-103"/>
      <point x="208" y="-103" type="curve"/>
      <point x="208" y="-103"/>
      <point x="178" y="-103"/>
      <point x="178" y="-103" type="curve"/>
      <point x="178" y="-103"/>
      <point x="178" y="-169"/>
    </contour>
    <contour>
      <point x="178" y="744" type="curve"/>
      <point x="178" y="744"/>
      <point x="208" y="744"/>
      <point x="208" y="744" type="curve"/>
      <point x="208" y="744"/>
      <point x="364" y="760"/>
      <point x="364" y="760" type="curve"/>
      <point x="364" y="760"/>
      <point x="364" y="810"/>
      <point x="364" y="810" type="curve"/>
      <point x="364" y="810"/>
      <point x="178" y="810"/>
      <point x="178" y="810" type="curve"/>
      <point x="178" y="810"/>
      <point x="178" y="744"/>
    </contour>
  </outline>
</glyph>
<glyph name="cid40978" format="2">
  <advance height="1000" width="416"/>
  <unicode hex="005C"/>
  <outline>
    <contour>
      <point x="405" y="-169" type="curve"/>
      <point x="405" y="-169"/>
      <point x="108" y="804"/>
      <point x="108" y="804" type="curve"/>
      <point x="108" y="804"/>
      <point x="9" y="804"/>
      <point x="9" y="804" type="curve"/>
      <point x="9" y="804"/>
      <point x="307" y="-169"/>
      <point x="307" y="-169" type="curve"/>
      <point x="307" y="-169"/>
      <point x="405" y="-169"/>
    </contour>
  </outline>
</glyph>
<glyph name="cid40941" format="2">
  <advance height="1000" width="389"/>
  <unicode hex="005D"/>
  <outline>
    <contour>
      <point x="276" y="810" type="curve"/>
      <point x="136" y="810" type="line"/>
      <point x="139" y="701"/>
      <point x="139" y="574"/>
      <point x="139" y="457" type="curve" smooth="yes"/>
      <point x="139" y="180" type="line" smooth="yes"/>
      <point x="139" y="63"/>
      <point x="139" y="-63"/>
      <point x="134" y="-169" type="curve"/>
      <point x="276" y="-169" type="line"/>
      <point x="271" y="-61"/>
      <point x="271" y="64"/>
      <point x="271" y="180" type="curve" smooth="yes"/>
      <point x="271" y="457" type="line" smooth="yes"/>
      <point x="271" y="576"/>
      <point x="271" y="702"/>
    </contour>
    <contour>
      <point x="211" y="810" type="line"/>
      <point x="25" y="810" type="line"/>
      <point x="25" y="760" type="line"/>
      <point x="180" y="744" type="line"/>
      <point x="211" y="744" type="line"/>
    </contour>
    <contour>
      <point x="211" y="-103" type="line"/>
      <point x="180" y="-103" type="line"/>
      <point x="25" y="-120" type="line"/>
      <point x="25" y="-169" type="line"/>
      <point x="211" y="-169" type="line"/>
    </contour>
  </outline>
</glyph>
<glyph name="cid41362" format="2">
  <advance height="1000" width="597"/>
  <unicode hex="005E"/>
  <outline>
    <contour>
      <point x="67" y="270" type="line"/>
      <point x="134" y="223" type="line"/>
      <point x="325" y="520" type="line"/>
      <point x="272" y="520" type="line"/>
      <point x="464" y="223" type="line"/>
      <point x="532" y="270" type="line"/>
      <point x="336" y="576" type="line"/>
      <point x="262" y="576" type="line"/>
    </contour>
  </outline>
</glyph>
<glyph name="cid40933" format="2">
  <advance height="1000" width="591"/>
  <unicode hex="005F"/>
  <outline>
    <contour>
      <point x="-6" y="-90" type="curve"/>
      <point x="-6" y="-90"/>
      <point x="597" y="-90"/>
      <point x="597" y="-90" type="curve"/>
      <point x="597" y="-90"/>
      <point x="597" y="-3"/>
      <point x="597" y="-3" type="curve"/>
      <point x="597" y="-3"/>
      <point x="-6" y="-3"/>
      <point x="-6" y="-3" type="curve"/>
      <point x="-6" y="-3"/>
      <point x="-6" y="-90"/>
    </contour>
  </outline>
</glyph>
<glyph name="cid41521" format="2">
  <advance height="1000" width="448"/>
  <unicode hex="0060"/>
  <outline>
    <contour>
      <point x="309" y="651" type="line"/>
      <point x="290" y="684"/>
      <point x="269" y="720"/>
      <point x="223" y="796" type="curve" smooth="yes"/>
      <point x="194" y="843"/>
      <point x="174" y="865"/>
      <point x="139" y="865" type="curve" smooth="yes"/>
      <point x="109" y="865"/>
      <point x="80" y="843"/>
      <point x="80" y="805" type="curve" smooth="yes"/>
      <point x="80" y="774"/>
      <point x="108" y="747"/>
      <point x="150" y="714" type="curve" smooth="yes"/>
      <point x="216" y="665"/>
      <point x="245" y="644"/>
      <point x="274" y="622" type="curve"/>
    </contour>
  </outline>
</glyph>
<glyph name="cid40064" format="2">
  <advance height="1000" width="664"/>
  <unicode hex="0062"/>
  <outline>
    <contour>
      <point x="31" y="10" type="curve"/>
      <point x="31" y="10"/>
      <point x="243" y="-6"/>
      <point x="243" y="-6" type="curve"/>
      <point x="243" y="-6"/>
      <point x="263" y="93"/>
      <point x="263" y="93" type="curve"/>
      <point x="263" y="93"/>
      <point x="263" y="96"/>
      <point x="263" y="96" type="curve"/>
      <point x="263" y="96"/>
      <point x="263" y="460"/>
      <point x="263" y="460" type="curve"/>
      <point x="263" y="460"/>
      <point x="260" y="470"/>
      <point x="260" y="470" type="curve"/>
      <point x="260" y="470"/>
      <point x="260" y="635"/>
      <point x="260" y="635" type="curve"/>
      <point x="260" y="635"/>
      <point x="264" y="813"/>
      <point x="264" y="813" type="curve"/>
      <point x="264" y="813"/>
      <point x="248" y="825"/>
      <point x="248" y="825" type="curve"/>
      <point x="248" y="825"/>
      <point x="25" y="774"/>
      <point x="25" y="774" type="curve"/>
      <point x="25" y="774"/>
      <point x="25" y="735"/>
      <point x="25" y="735" type="curve"/>
      <point x="25" y="735"/>
      <point x="93" y="723"/>
      <point x="93" y="723" type="curve"/>
      <point x="93" y="723"/>
      <point x="93" y="243"/>
      <point x="93" y="243" type="curve"/>
      <point x="93" y="191"/>
      <point x="93" y="121"/>
      <point x="92" y="65" type="curve"/>
      <point x="92" y="65"/>
      <point x="31" y="54"/>
      <point x="31" y="54" type="curve"/>
      <point x="31" y="54"/>
      <point x="31" y="10"/>
    </contour>
    <contour>
      <point x="401" y="-7" type="curve" smooth="yes"/>
      <point x="526" y="-7"/>
      <point x="631" y="104"/>
      <point x="631" y="284" type="curve" smooth="yes"/>
      <point x="631" y="465"/>
      <point x="539" y="560"/>
      <point x="420" y="560" type="curve" smooth="yes"/>
      <point x="345" y="560"/>
      <point x="284" y="523"/>
      <point x="237" y="452" type="curve"/>
      <point x="237" y="452"/>
      <point x="200" y="452"/>
      <point x="200" y="452" type="curve"/>
      <point x="200" y="452"/>
      <point x="209" y="378"/>
      <point x="209" y="378" type="curve"/>
      <point x="243" y="418"/>
      <point x="288" y="469"/>
      <point x="340" y="469" type="curve" smooth="yes"/>
      <point x="405" y="469"/>
      <point x="451" y="414"/>
      <point x="451" y="280" type="curve" smooth="yes"/>
      <point x="451" y="143"/>
      <point x="403" y="83"/>
      <point x="340" y="83" type="curve" smooth="yes"/>
      <point x="289" y="83"/>
      <point x="258" y="113"/>
      <point x="215" y="169" type="curve"/>
      <point x="215" y="169"/>
      <point x="205" y="109"/>
      <point x="205" y="109" type="curve"/>
      <point x="205" y="109"/>
      <point x="228" y="109"/>
      <point x="228" y="109" type="curve"/>
      <point x="271" y="29"/>
      <point x="326" y="-7"/>
    </contour>
  </outline>
</glyph>
<glyph name="cid40067" format="2">
  <advance height="1000" width="648"/>
  <unicode hex="0064"/>
  <outline>
    <contour>
      <point x="249" y="-7" type="curve" smooth="yes"/>
      <point x="328" y="-7"/>
      <point x="385" y="32"/>
      <point x="431" y="109" type="curve"/>
      <point x="431" y="109"/>
      <point x="456" y="109"/>
      <point x="456" y="109" type="curve"/>
      <point x="456" y="109"/>
      <point x="445" y="170"/>
      <point x="445" y="170" type="curve"/>
      <point x="411" y="121"/>
      <point x="376" y="84"/>
      <point x="327" y="84" type="curve" smooth="yes"/>
      <point x="260" y="84"/>
      <point x="214" y="143"/>
      <point x="214" y="272" type="curve" smooth="yes"/>
      <point x="214" y="410"/>
      <point x="264" y="470"/>
      <point x="329" y="470" type="curve" smooth="yes"/>
      <point x="373" y="470"/>
      <point x="402" y="447"/>
      <point x="444" y="396" type="curve"/>
      <point x="444" y="396"/>
      <point x="456" y="456"/>
      <point x="456" y="456" type="curve"/>
      <point x="456" y="456"/>
      <point x="430" y="456"/>
      <point x="430" y="456" type="curve"/>
      <point x="390" y="526"/>
      <point x="343" y="560"/>
      <point x="270" y="560" type="curve" smooth="yes"/>
      <point x="146" y="560"/>
      <point x="34" y="450"/>
      <point x="34" y="269" type="curve" smooth="yes"/>
      <point x="34" y="91"/>
      <point x="125" y="-7"/>
    </contour>
    <contour>
      <point x="409" y="-3" type="curve"/>
      <point x="409" y="-3"/>
      <point x="624" y="10"/>
      <point x="624" y="10" type="curve"/>
      <point x="624" y="10"/>
      <point x="624" y="54"/>
      <point x="624" y="54" type="curve"/>
      <point x="624" y="54"/>
      <point x="568" y="65"/>
      <point x="568" y="65" type="curve"/>
      <point x="568" y="65"/>
      <point x="568" y="635"/>
      <point x="568" y="635" type="curve"/>
      <point x="568" y="635"/>
      <point x="572" y="813"/>
      <point x="572" y="813" type="curve"/>
      <point x="572" y="813"/>
      <point x="556" y="825"/>
      <point x="556" y="825" type="curve"/>
      <point x="556" y="825"/>
      <point x="329" y="774"/>
      <point x="329" y="774" type="curve"/>
      <point x="329" y="774"/>
      <point x="329" y="735"/>
      <point x="329" y="735" type="curve"/>
      <point x="329" y="735"/>
      <point x="404" y="721"/>
      <point x="404" y="721" type="curve"/>
      <point x="404" y="721"/>
      <point x="404" y="470"/>
      <point x="404" y="470" type="curve"/>
      <point x="404" y="470"/>
      <point x="399" y="458"/>
      <point x="399" y="458" type="curve"/>
      <point x="399" y="458"/>
      <point x="399" y="101"/>
      <point x="399" y="101" type="curve"/>
      <point x="399" y="101"/>
      <point x="399" y="96"/>
      <point x="399" y="96" type="curve"/>
      <point x="399" y="96"/>
      <point x="409" y="-3"/>
    </contour>
  </outline>
</glyph>
<glyph name="cid40070" format="2">
  <advance height="1000" width="395"/>
  <unicode hex="0066"/>
  <outline>
    <contour>
      <point x="31" y="10" type="line"/>
      <point x="353" y="10" type="line"/>
      <point x="353" y="54" type="line"/>
      <point x="245" y="75" type="line"/>
      <point x="137" y="75" type="line"/>
      <point x="31" y="54" type="line"/>
    </contour>
    <contour>
      <point x="91" y="10" type="curve"/>
      <point x="269" y="10" type="line"/>
      <point x="265" y="82"/>
      <point x="264" y="168"/>
      <point x="264" y="245" type="curve" smooth="yes"/>
      <point x="264" y="498" type="line"/>
      <point x="255" y="658"/>
      <point x="265" y="714"/>
      <point x="304" y="773" type="curve"/>
      <point x="317" y="795"/>
      <point x="334" y="802"/>
      <point x="349" y="806" type="curve"/>
      <point x="349" y="818" type="line"/>
      <point x="298" y="818" type="line"/>
      <point x="298" y="804" type="line"/>
      <point x="326" y="765" type="line"/>
      <point x="357" y="708"/>
      <point x="386" y="689"/>
      <point x="424" y="689" type="curve" smooth="yes"/>
      <point x="469" y="689"/>
      <point x="498" y="717"/>
      <point x="501" y="757" type="curve"/>
      <point x="487" y="813"/>
      <point x="430" y="837"/>
      <point x="370" y="837" type="curve" smooth="yes"/>
      <point x="306" y="837"/>
      <point x="240" y="814"/>
      <point x="192" y="768" type="curve" smooth="yes"/>
      <point x="134" y="716"/>
      <point x="108" y="648"/>
      <point x="97" y="540" type="curve" smooth="yes"/>
      <point x="95" y="517" type="line"/>
      <point x="146" y="551" type="line"/>
      <point x="24" y="533" type="line"/>
      <point x="24" y="479" type="line"/>
      <point x="95" y="479" type="line"/>
      <point x="95" y="245" type="line" smooth="yes"/>
      <point x="95" y="168"/>
      <point x="94" y="82"/>
    </contour>
    <contour>
      <point x="181" y="479" type="line"/>
      <point x="382" y="479" type="line"/>
      <point x="382" y="543" type="line"/>
      <point x="181" y="543" type="line"/>
    </contour>
  </outline>
</glyph>
<glyph name="cid40071" format="2">
  <advance height="1000" width="595"/>
  <unicode hex="0067"/>
  <outline>
    <contour>
      <point x="233" y="-251" type="curve" smooth="yes"/>
      <point x="450" y="-251"/>
      <point x="569" y="-148"/>
      <point x="569" y="-38" type="curve" smooth="yes"/>
      <point x="569" y="55"/>
      <point x="510" y="118"/>
      <point x="353" y="118" type="curve" smooth="yes"/>
      <point x="222" y="118" type="line" smooth="yes"/>
      <point x="172" y="118"/>
      <point x="149" y="133"/>
      <point x="149" y="167" type="curve" smooth="yes"/>
      <point x="149" y="191"/>
      <point x="161" y="212"/>
      <point x="183" y="230" type="curve"/>
      <point x="148" y="252" type="line"/>
      <point x="148" y="241" type="line"/>
      <point x="83" y="197"/>
      <point x="44" y="150"/>
      <point x="44" y="93" type="curve" smooth="yes"/>
      <point x="44" y="37"/>
      <point x="81" y="1"/>
      <point x="139" y="-14" type="curve"/>
      <point x="140" y="-17" type="line"/>
      <point x="165" y="-24"/>
      <point x="194" y="-25"/>
      <point x="232" y="-25" type="curve" smooth="yes"/>
      <point x="342" y="-25" type="line" smooth="yes"/>
      <point x="409" y="-25"/>
      <point x="437" y="-54"/>
      <point x="437" y="-100" type="curve" smooth="yes"/>
      <point x="437" y="-156"/>
      <point x="382" y="-196"/>
      <point x="262" y="-196" type="curve" smooth="yes"/>
      <point x="166" y="-196"/>
      <point x="130" y="-158"/>
      <point x="130" y="-101" type="curve" smooth="yes"/>
      <point x="130" y="-58"/>
      <point x="148" y="-34"/>
      <point x="184" y="-9" type="curve"/>
      <point x="171" y="0" type="line"/>
      <point x="76" y="-22"/>
      <point x="17" y="-64"/>
      <point x="17" y="-129" type="curve" smooth="yes"/>
      <point x="17" y="-192"/>
      <point x="71" y="-251"/>
    </contour>
    <contour>
      <point x="269" y="200" type="curve" smooth="yes"/>
      <point x="419" y="200"/>
      <point x="496" y="277"/>
      <point x="496" y="378" type="curve" smooth="yes"/>
      <point x="496" y="420"/>
      <point x="484" y="456"/>
      <point x="461" y="485" type="curve"/>
      <point x="458" y="490" type="line"/>
      <point x="422" y="533"/>
      <point x="360" y="560"/>
      <point x="270" y="560" type="curve" smooth="yes"/>
      <point x="120" y="560"/>
      <point x="43" y="485"/>
      <point x="43" y="380" type="curve" smooth="yes"/>
      <point x="43" y="275"/>
      <point x="116" y="200"/>
    </contour>
    <contour>
      <point x="269" y="243" type="curve" smooth="yes"/>
      <point x="220" y="243"/>
      <point x="195" y="290"/>
      <point x="195" y="380" type="curve" smooth="yes"/>
      <point x="195" y="470"/>
      <point x="222" y="516"/>
      <point x="270" y="516" type="curve" smooth="yes"/>
      <point x="318" y="516"/>
      <point x="345" y="470"/>
      <point x="345" y="381" type="curve" smooth="yes"/>
      <point x="345" y="291"/>
      <point x="319" y="243"/>
    </contour>
    <contour>
      <point x="428" y="462" type="line"/>
      <point x="582" y="462" type="line"/>
      <point x="582" y="551" type="line"/>
      <point x="566" y="561" type="line"/>
      <point x="432" y="495" type="line"/>
      <point x="426" y="495" type="line"/>
    </contour>
  </outline>
</glyph>
<glyph name="cid40075" format="2">
  <advance height="1000" width="344"/>
  <unicode hex="0069"/>
  <outline>
    <contour>
      <point x="31" y="10" type="curve"/>
      <point x="31" y="10"/>
      <point x="320" y="10"/>
      <point x="320" y="10" type="curve"/>
      <point x="320" y="10"/>
      <point x="320" y="54"/>
      <point x="320" y="54" type="curve"/>
      <point x="320" y="54"/>
      <point x="216" y="75"/>
      <point x="216" y="75" type="curve"/>
      <point x="216" y="75"/>
      <point x="133" y="75"/>
      <point x="133" y="75" type="curve"/>
      <point x="133" y="75"/>
      <point x="31" y="54"/>
      <point x="31" y="54" type="curve"/>
      <point x="31" y="54"/>
      <point x="31" y="10"/>
    </contour>
    <contour>
      <point x="90" y="10" type="curve"/>
      <point x="90" y="10"/>
      <point x="267" y="10"/>
      <point x="267" y="10" type="curve"/>
      <point x="264" y="63"/>
      <point x="263" y="174"/>
      <point x="263" y="245" type="curve"/>
      <point x="263" y="245"/>
      <point x="263" y="390"/>
      <point x="263" y="390" type="curve"/>
      <point x="263" y="390"/>
      <point x="267" y="548"/>
      <point x="267" y="548" type="curve"/>
      <point x="267" y="548"/>
      <point x="249" y="560"/>
      <point x="249" y="560" type="curve"/>
      <point x="249" y="560"/>
      <point x="22" y="489"/>
      <point x="22" y="489" type="curve"/>
      <point x="22" y="489"/>
      <point x="22" y="452"/>
      <point x="22" y="452" type="curve"/>
      <point x="22" y="452"/>
      <point x="91" y="440"/>
      <point x="91" y="440" type="curve"/>
      <point x="93" y="394"/>
      <point x="93" y="356"/>
      <point x="93" y="292" type="curve"/>
      <point x="93" y="292"/>
      <point x="93" y="245"/>
      <point x="93" y="245" type="curve"/>
      <point x="93" y="174"/>
      <point x="93" y="63"/>
    </contour>
    <contour>
      <point x="175" y="641" type="curve" smooth="yes"/>
      <point x="225" y="641"/>
      <point x="265" y="676"/>
      <point x="265" y="727" type="curve" smooth="yes"/>
      <point x="265" y="776"/>
      <point x="225" y="812"/>
      <point x="175" y="812" type="curve" smooth="yes"/>
      <point x="125" y="812"/>
      <point x="85" y="776"/>
      <point x="85" y="727" type="curve" smooth="yes"/>
      <point x="85" y="676"/>
      <point x="125" y="641"/>
    </contour>
  </outline>
</glyph>
<glyph name="cid40077" format="2">
  <advance height="1000" width="335"/>
  <unicode hex="006A"/>
  <outline>
    <contour>
      <point x="19" y="-259" type="curve" smooth="yes"/>
      <point x="72" y="-259"/>
      <point x="136" y="-242"/>
      <point x="189" y="-187" type="curve" smooth="yes"/>
      <point x="242" y="-134"/>
      <point x="260" y="-75"/>
      <point x="260" y="53" type="curve"/>
      <point x="260" y="53"/>
      <point x="260" y="390"/>
      <point x="260" y="390" type="curve"/>
      <point x="260" y="390"/>
      <point x="263" y="548"/>
      <point x="263" y="548" type="curve"/>
      <point x="263" y="548"/>
      <point x="245" y="560"/>
      <point x="245" y="560" type="curve"/>
      <point x="245" y="560"/>
      <point x="20" y="489"/>
      <point x="20" y="489" type="curve"/>
      <point x="20" y="489"/>
      <point x="20" y="452"/>
      <point x="20" y="452" type="curve"/>
      <point x="20" y="452"/>
      <point x="88" y="440"/>
      <point x="88" y="440" type="curve"/>
      <point x="90" y="394"/>
      <point x="91" y="357"/>
      <point x="91" y="293" type="curve"/>
      <point x="91" y="293"/>
      <point x="91" y="113"/>
      <point x="91" y="113" type="curve"/>
      <point x="91" y="-5"/>
      <point x="101" y="-103"/>
      <point x="90" y="-164" type="curve" smooth="yes"/>
      <point x="85" y="-188"/>
      <point x="80" y="-199"/>
      <point x="71" y="-214" type="curve"/>
      <point x="71" y="-214"/>
      <point x="71" y="-235"/>
      <point x="71" y="-235" type="curve"/>
      <point x="71" y="-235"/>
      <point x="96" y="-235"/>
      <point x="96" y="-235" type="curve"/>
      <point x="96" y="-235"/>
      <point x="96" y="-230"/>
      <point x="96" y="-230" type="curve"/>
      <point x="96" y="-230"/>
      <point x="64" y="-171"/>
      <point x="64" y="-171" type="curve"/>
      <point x="40" y="-127"/>
      <point x="16" y="-110"/>
      <point x="-21" y="-110" type="curve" smooth="yes"/>
      <point x="-65" y="-110"/>
      <point x="-95" y="-134"/>
      <point x="-103" y="-182" type="curve"/>
      <point x="-91" y="-231"/>
      <point x="-50" y="-259"/>
    </contour>
    <contour>
      <point x="171" y="641" type="curve" smooth="yes"/>
      <point x="222" y="641"/>
      <point x="261" y="676"/>
      <point x="261" y="727" type="curve" smooth="yes"/>
      <point x="261" y="776"/>
      <point x="222" y="812"/>
      <point x="171" y="812" type="curve" smooth="yes"/>
      <point x="122" y="812"/>
      <point x="82" y="776"/>
      <point x="82" y="727" type="curve" smooth="yes"/>
      <point x="82" y="676"/>
      <point x="122" y="641"/>
    </contour>
  </outline>
</glyph>
<glyph name="cid40078" format="2">
  <advance height="1000" width="652"/>
  <unicode hex="006B"/>
  <outline>
    <contour>
      <point x="29" y="10" type="line"/>
      <point x="323" y="10" type="line"/>
      <point x="323" y="54" type="line"/>
      <point x="215" y="75" type="line"/>
      <point x="131" y="75" type="line"/>
      <point x="29" y="54" type="line"/>
    </contour>
    <contour>
      <point x="88" y="10" type="curve"/>
      <point x="265" y="10" type="line"/>
      <point x="263" y="60"/>
      <point x="262" y="176"/>
      <point x="262" y="251" type="curve" smooth="yes"/>
      <point x="262" y="635" type="line"/>
      <point x="267" y="813" type="line"/>
      <point x="249" y="825" type="line"/>
      <point x="24" y="774" type="line"/>
      <point x="24" y="735" type="line"/>
      <point x="93" y="721" type="line"/>
      <point x="93" y="245" type="line" smooth="yes"/>
      <point x="93" y="176"/>
      <point x="92" y="60"/>
    </contour>
    <contour>
      <point x="174" y="153" type="line"/>
      <point x="579" y="543" type="line"/>
      <point x="504" y="543" type="line"/>
      <point x="342" y="381" type="line"/>
      <point x="180" y="218" type="line"/>
      <point x="174" y="218" type="line"/>
    </contour>
    <contour>
      <point x="424" y="10" type="line"/>
      <point x="645" y="10" type="line"/>
      <point x="645" y="54" type="line"/>
      <point x="580" y="69" type="line"/>
      <point x="412" y="409" type="line"/>
      <point x="292" y="298" type="line"/>
    </contour>
    <contour>
      <point x="361" y="501" type="line"/>
      <point x="474" y="482" type="line"/>
      <point x="501" y="484" type="line"/>
      <point x="617" y="501" type="line"/>
      <point x="617" y="543" type="line"/>
      <point x="361" y="543" type="line"/>
    </contour>
  </outline>
</glyph>
<glyph name="cid40080" format="2">
  <advance height="1000" width="349"/>
  <unicode hex="006C"/>
  <outline>
    <contour>
      <point x="29" y="10" type="curve"/>
      <point x="29" y="10"/>
      <point x="324" y="10"/>
      <point x="324" y="10" type="curve"/>
      <point x="324" y="10"/>
      <point x="324" y="54"/>
      <point x="324" y="54" type="curve"/>
      <point x="324" y="54"/>
      <point x="216" y="75"/>
      <point x="216" y="75" type="curve"/>
      <point x="216" y="75"/>
      <point x="132" y="75"/>
      <point x="132" y="75" type="curve"/>
      <point x="132" y="75"/>
      <point x="29" y="54"/>
      <point x="29" y="54" type="curve"/>
      <point x="29" y="54"/>
      <point x="29" y="10"/>
    </contour>
    <contour>
      <point x="88" y="10" type="curve"/>
      <point x="88" y="10"/>
      <point x="265" y="10"/>
      <point x="265" y="10" type="curve"/>
      <point x="263" y="82"/>
      <point x="262" y="168"/>
      <point x="262" y="245" type="curve"/>
      <point x="262" y="245"/>
      <point x="262" y="637"/>
      <point x="262" y="637" type="curve"/>
      <point x="262" y="637"/>
      <point x="267" y="813"/>
      <point x="267" y="813" type="curve"/>
      <point x="267" y="813"/>
      <point x="249" y="825"/>
      <point x="249" y="825" type="curve"/>
      <point x="249" y="825"/>
      <point x="24" y="774"/>
      <point x="24" y="774" type="curve"/>
      <point x="24" y="774"/>
      <point x="24" y="735"/>
      <point x="24" y="735" type="curve"/>
      <point x="24" y="735"/>
      <point x="93" y="721"/>
      <point x="93" y="721" type="curve"/>
      <point x="93" y="721"/>
      <point x="93" y="245"/>
      <point x="93" y="245" type="curve"/>
      <point x="93" y="168"/>
      <point x="92" y="82"/>
    </contour>
  </outline>
</glyph>
<glyph name="cid40088" format="2">
  <advance height="1000" width="635"/>
  <unicode hex="0071"/>
  <outline>
    <contour>
      <point x="329" y="-251" type="line"/>
      <point x="628" y="-251" type="line"/>
      <point x="628" y="-206" type="line"/>
      <point x="528" y="-186" type="line"/>
      <point x="429" y="-186" type="line"/>
      <point x="329" y="-206" type="line"/>
    </contour>
    <contour>
      <point x="249" y="-7" type="curve" smooth="yes"/>
      <point x="326" y="-7"/>
      <point x="385" y="31"/>
      <point x="431" y="110" type="curve"/>
      <point x="456" y="110" type="line"/>
      <point x="445" y="170" type="line"/>
      <point x="411" y="120"/>
      <point x="376" y="84"/>
      <point x="327" y="84" type="curve" smooth="yes"/>
      <point x="260" y="84"/>
      <point x="214" y="143"/>
      <point x="214" y="272" type="curve" smooth="yes"/>
      <point x="214" y="409"/>
      <point x="263" y="470"/>
      <point x="330" y="470" type="curve" smooth="yes"/>
      <point x="370" y="470"/>
      <point x="404" y="452"/>
      <point x="449" y="400" type="curve"/>
      <point x="461" y="457" type="line"/>
      <point x="436" y="457" type="line"/>
      <point x="390" y="530"/>
      <point x="339" y="560"/>
      <point x="276" y="560" type="curve" smooth="yes"/>
      <point x="143" y="560"/>
      <point x="34" y="450"/>
      <point x="34" y="268" type="curve" smooth="yes"/>
      <point x="34" y="90"/>
      <point x="125" y="-7"/>
    </contour>
    <contour>
      <point x="399" y="-251" type="curve"/>
      <point x="573" y="-251" type="line"/>
      <point x="570" y="-178"/>
      <point x="569" y="-93"/>
      <point x="569" y="-15" type="curve" smooth="yes"/>
      <point x="569" y="398" type="line"/>
      <point x="572" y="549" type="line"/>
      <point x="544" y="560" type="line"/>
      <point x="400" y="478" type="line"/>
      <point x="400" y="476" type="line"/>
      <point x="400" y="103" type="line"/>
      <point x="402" y="91" type="line"/>
      <point x="402" y="-15" type="line" smooth="yes"/>
      <point x="402" y="-93"/>
      <point x="402" y="-178"/>
    </contour>
  </outline>
</glyph>
<glyph name="cid40094" format="2">
  <advance height="1000" width="663"/>
  <unicode hex="0075"/>
  <outline>
    <contour>
      <point x="234" y="-7" type="curve" smooth="yes"/>
      <point x="321" y="-7"/>
      <point x="392" y="46"/>
      <point x="442" y="135" type="curve"/>
      <point x="461" y="135" type="line"/>
      <point x="442" y="180" type="line"/>
      <point x="408" y="132"/>
      <point x="356" y="94"/>
      <point x="315" y="94" type="curve" smooth="yes"/>
      <point x="274" y="94"/>
      <point x="251" y="115"/>
      <point x="251" y="184" type="curve" smooth="yes"/>
      <point x="251" y="390" type="line"/>
      <point x="256" y="544" type="line"/>
      <point x="240" y="555" type="line"/>
      <point x="21" y="520" type="line"/>
      <point x="21" y="479" type="line"/>
      <point x="119" y="457" type="line"/>
      <point x="85" y="492" type="line"/>
      <point x="81" y="189" type="line" smooth="yes"/>
      <point x="78" y="46"/>
      <point x="140" y="-7"/>
    </contour>
    <contour>
      <point x="418" y="-2" type="line"/>
      <point x="641" y="10" type="line"/>
      <point x="641" y="54" type="line"/>
      <point x="582" y="65" type="line"/>
      <point x="582" y="390" type="line"/>
      <point x="586" y="544" type="line"/>
      <point x="569" y="555" type="line"/>
      <point x="353" y="516" type="line"/>
      <point x="353" y="479" type="line"/>
      <point x="414" y="466" type="line"/>
      <point x="411" y="123" type="line"/>
      <point x="411" y="121" type="line"/>
    </contour>
  </outline>
</glyph>
<glyph name="cid40096" format="2">
  <advance height="1000" width="578"/>
  <unicode hex="0076"/>
  <outline>
    <contour>
      <point x="249" y="8" type="curve"/>
      <point x="249" y="8"/>
      <point x="327" y="8"/>
      <point x="327" y="8" type="curve"/>
      <point x="327" y="8"/>
      <point x="529" y="543"/>
      <point x="529" y="543" type="curve"/>
      <point x="529" y="543"/>
      <point x="463" y="543"/>
      <point x="463" y="543" type="curve"/>
      <point x="463" y="543"/>
      <point x="336" y="175"/>
      <point x="336" y="175" type="curve"/>
      <point x="336" y="175"/>
      <point x="332" y="160"/>
      <point x="332" y="160" type="curve"/>
      <point x="332" y="160"/>
      <point x="353" y="160"/>
      <point x="353" y="160" type="curve"/>
      <point x="353" y="160"/>
      <point x="212" y="543"/>
      <point x="212" y="543" type="curve"/>
      <point x="212" y="543"/>
      <point x="28" y="543"/>
      <point x="28" y="543" type="curve"/>
      <point x="28" y="543"/>
      <point x="249" y="8"/>
    </contour>
    <contour>
      <point x="-3" y="501" type="curve"/>
      <point x="-3" y="501"/>
      <point x="93" y="482"/>
      <point x="93" y="482" type="curve"/>
      <point x="93" y="482"/>
      <point x="205" y="482"/>
      <point x="205" y="482" type="curve"/>
      <point x="205" y="482"/>
      <point x="306" y="501"/>
      <point x="306" y="501" type="curve"/>
      <point x="306" y="501"/>
      <point x="306" y="543"/>
      <point x="306" y="543" type="curve"/>
      <point x="306" y="543"/>
      <point x="-3" y="543"/>
      <point x="-3" y="543" type="curve"/>
      <point x="-3" y="543"/>
      <point x="-3" y="501"/>
    </contour>
    <contour>
      <point x="373" y="501" type="curve"/>
      <point x="373" y="501"/>
      <point x="465" y="485"/>
      <point x="465" y="485" type="curve"/>
      <point x="465" y="485"/>
      <point x="486" y="485"/>
      <point x="486" y="485" type="curve"/>
      <point x="486" y="485"/>
      <point x="570" y="501"/>
      <point x="570" y="501" type="curve"/>
      <point x="570" y="501"/>
      <point x="570" y="543"/>
      <point x="570" y="543" type="curve"/>
      <point x="570" y="543"/>
      <point x="373" y="543"/>
      <point x="373" y="543" type="curve"/>
      <point x="373" y="543"/>
      <point x="373" y="501"/>
    </contour>
  </outline>
</glyph>
<glyph name="cid40097" format="2">
  <advance height="1000" width="866"/>
  <unicode hex="0077"/>
  <outline>
    <contour>
      <point x="218" y="8" type="curve"/>
      <point x="218" y="8"/>
      <point x="299" y="8"/>
      <point x="299" y="8" type="curve"/>
      <point x="299" y="8"/>
      <point x="430" y="385"/>
      <point x="430" y="385" type="curve"/>
      <point x="430" y="385"/>
      <point x="435" y="399"/>
      <point x="435" y="399" type="curve"/>
      <point x="435" y="399"/>
      <point x="413" y="399"/>
      <point x="413" y="399" type="curve"/>
      <point x="413" y="399"/>
      <point x="550" y="8"/>
      <point x="550" y="8" type="curve"/>
      <point x="550" y="8"/>
      <point x="629" y="8"/>
      <point x="629" y="8" type="curve"/>
      <point x="629" y="8"/>
      <point x="814" y="543"/>
      <point x="814" y="543" type="curve"/>
      <point x="814" y="543"/>
      <point x="749" y="543"/>
      <point x="749" y="543" type="curve"/>
      <point x="749" y="543"/>
      <point x="634" y="182"/>
      <point x="634" y="182" type="curve"/>
      <point x="634" y="182"/>
      <point x="629" y="168"/>
      <point x="629" y="168" type="curve"/>
      <point x="629" y="168"/>
      <point x="650" y="168"/>
      <point x="650" y="168" type="curve"/>
      <point x="650" y="168"/>
      <point x="528" y="543"/>
      <point x="528" y="543" type="curve"/>
      <point x="528" y="543"/>
      <point x="427" y="543"/>
      <point x="427" y="543" type="curve"/>
      <point x="427" y="543"/>
      <point x="305" y="178"/>
      <point x="305" y="178" type="curve"/>
      <point x="305" y="178"/>
      <point x="300" y="163"/>
      <point x="300" y="163" type="curve"/>
      <point x="300" y="163"/>
      <point x="320" y="163"/>
      <point x="320" y="163" type="curve"/>
      <point x="320" y="163"/>
      <point x="205" y="543"/>
      <point x="205" y="543" type="curve"/>
      <point x="205" y="543"/>
      <point x="27" y="543"/>
      <point x="27" y="543" type="curve"/>
      <point x="27" y="543"/>
      <point x="218" y="8"/>
    </contour>
    <contour>
      <point x="-3" y="501" type="curve"/>
      <point x="-3" y="501"/>
      <point x="97" y="484"/>
      <point x="97" y="484" type="curve"/>
      <point x="97" y="484"/>
      <point x="169" y="484"/>
      <point x="169" y="484" type="curve"/>
      <point x="169" y="484"/>
      <point x="286" y="501"/>
      <point x="286" y="501" type="curve"/>
      <point x="286" y="501"/>
      <point x="286" y="543"/>
      <point x="286" y="543" type="curve"/>
      <point x="286" y="543"/>
      <point x="-3" y="543"/>
      <point x="-3" y="543" type="curve"/>
      <point x="-3" y="543"/>
      <point x="-3" y="501"/>
    </contour>
    <contour>
      <point x="344" y="501" type="curve"/>
      <point x="344" y="501"/>
      <point x="452" y="485"/>
      <point x="452" y="485" type="curve"/>
      <point x="452" y="485"/>
      <point x="504" y="484"/>
      <point x="504" y="484" type="curve"/>
      <point x="504" y="484"/>
      <point x="607" y="501"/>
      <point x="607" y="501" type="curve"/>
      <point x="607" y="501"/>
      <point x="607" y="543"/>
      <point x="607" y="543" type="curve"/>
      <point x="607" y="543"/>
      <point x="344" y="543"/>
      <point x="344" y="543" type="curve"/>
      <point x="344" y="543"/>
      <point x="344" y="501"/>
    </contour>
    <contour>
      <point x="665" y="501" type="curve"/>
      <point x="665" y="501"/>
      <point x="757" y="487"/>
      <point x="757" y="487" type="curve"/>
      <point x="757" y="487"/>
      <point x="773" y="487"/>
      <point x="773" y="487" type="curve"/>
      <point x="773" y="487"/>
      <point x="858" y="501"/>
      <point x="858" y="501" type="curve"/>
      <point x="858" y="501"/>
      <point x="858" y="543"/>
      <point x="858" y="543" type="curve"/>
      <point x="858" y="543"/>
      <point x="665" y="543"/>
      <point x="665" y="543" type="curve"/>
      <point x="665" y="543"/>
      <point x="665" y="501"/>
    </contour>
  </outline>
</glyph>
<glyph name="cid40101" format="2">
  <advance height="1000" width="599"/>
  <unicode hex="0078"/>
  <outline>
    <contour>
      <point x="12" y="10" type="curve"/>
      <point x="12" y="10"/>
      <point x="211" y="10"/>
      <point x="211" y="10" type="curve"/>
      <point x="211" y="10"/>
      <point x="211" y="54"/>
      <point x="211" y="54" type="curve"/>
      <point x="211" y="54"/>
      <point x="131" y="68"/>
      <point x="131" y="68" type="curve"/>
      <point x="131" y="68"/>
      <point x="102" y="68"/>
      <point x="102" y="68" type="curve"/>
      <point x="102" y="68"/>
      <point x="12" y="54"/>
      <point x="12" y="54" type="curve"/>
      <point x="12" y="54"/>
      <point x="12" y="10"/>
    </contour>
    <contour>
      <point x="45" y="10" type="curve"/>
      <point x="45" y="10"/>
      <point x="115" y="10"/>
      <point x="115" y="10" type="curve"/>
      <point x="115" y="10"/>
      <point x="212" y="154"/>
      <point x="212" y="154" type="curve"/>
      <point x="212" y="154"/>
      <point x="308" y="299"/>
      <point x="308" y="299" type="curve"/>
      <point x="308" y="299"/>
      <point x="308" y="301"/>
      <point x="308" y="301" type="curve"/>
      <point x="308" y="301"/>
      <point x="272" y="326"/>
      <point x="272" y="326" type="curve"/>
      <point x="272" y="326"/>
      <point x="45" y="10"/>
    </contour>
    <contour>
      <point x="278" y="10" type="curve"/>
      <point x="278" y="10"/>
      <point x="588" y="10"/>
      <point x="588" y="10" type="curve"/>
      <point x="588" y="10"/>
      <point x="588" y="54"/>
      <point x="588" y="54" type="curve"/>
      <point x="588" y="54"/>
      <point x="476" y="75"/>
      <point x="476" y="75" type="curve"/>
      <point x="476" y="75"/>
      <point x="409" y="75"/>
      <point x="409" y="75" type="curve"/>
      <point x="409" y="75"/>
      <point x="278" y="54"/>
      <point x="278" y="54" type="curve"/>
      <point x="278" y="54"/>
      <point x="278" y="10"/>
    </contour>
    <contour>
      <point x="326" y="241" type="curve"/>
      <point x="326" y="241"/>
      <point x="545" y="543"/>
      <point x="545" y="543" type="curve"/>
      <point x="545" y="543"/>
      <point x="475" y="543"/>
      <point x="475" y="543" type="curve"/>
      <point x="475" y="543"/>
      <point x="385" y="406"/>
      <point x="385" y="406" type="curve"/>
      <point x="385" y="406"/>
      <point x="295" y="270"/>
      <point x="295" y="270" type="curve"/>
      <point x="295" y="270"/>
      <point x="295" y="268"/>
      <point x="295" y="268" type="curve"/>
      <point x="295" y="268"/>
      <point x="326" y="241"/>
    </contour>
    <contour>
      <point x="365" y="10" type="curve"/>
      <point x="365" y="10"/>
      <point x="562" y="10"/>
      <point x="562" y="10" type="curve"/>
      <point x="562" y="10"/>
      <point x="365" y="328"/>
      <point x="365" y="328" type="curve"/>
      <point x="365" y="328"/>
      <point x="234" y="543"/>
      <point x="234" y="543" type="curve"/>
      <point x="234" y="543"/>
      <point x="43" y="543"/>
      <point x="43" y="543" type="curve"/>
      <point x="43" y="543"/>
      <point x="231" y="234"/>
      <point x="231" y="234" type="curve"/>
      <point x="231" y="234"/>
      <point x="365" y="10"/>
    </contour>
    <contour>
      <point x="16" y="501" type="curve"/>
      <point x="16" y="501"/>
      <point x="122" y="484"/>
      <point x="122" y="484" type="curve"/>
      <point x="122" y="484"/>
      <point x="216" y="484"/>
      <point x="216" y="484" type="curve"/>
      <point x="216" y="484"/>
      <point x="320" y="501"/>
      <point x="320" y="501" type="curve"/>
      <point x="320" y="501"/>
      <point x="320" y="543"/>
      <point x="320" y="543" type="curve"/>
      <point x="320" y="543"/>
      <point x="16" y="543"/>
      <point x="16" y="543" type="curve"/>
      <point x="16" y="543"/>
      <point x="16" y="501"/>
    </contour>
    <contour>
      <point x="383" y="501" type="curve"/>
      <point x="383" y="501"/>
      <point x="459" y="486"/>
      <point x="459" y="486" type="curve"/>
      <point x="459" y="486"/>
      <point x="488" y="486"/>
      <point x="488" y="486" type="curve"/>
      <point x="488" y="486"/>
      <point x="569" y="501"/>
      <point x="569" y="501" type="curve"/>
      <point x="569" y="501"/>
      <point x="569" y="543"/>
      <point x="569" y="543" type="curve"/>
      <point x="569" y="543"/>
      <point x="383" y="543"/>
      <point x="383" y="543" type="curve"/>
      <point x="383" y="543"/>
      <point x="383" y="501"/>
    </contour>
  </outline>
</glyph>
<glyph name="cid40945" format="2">
  <advance height="1000" width="377"/>
  <unicode hex="007B"/>
  <outline>
    <contour>
      <point x="49" y="296" type="curve"/>
      <point x="142" y="277"/>
      <point x="166" y="249"/>
      <point x="166" y="204" type="curve" smooth="yes"/>
      <point x="166" y="129"/>
      <point x="103" y="60"/>
      <point x="103" y="-28" type="curve" smooth="yes"/>
      <point x="103" y="-126"/>
      <point x="184" y="-169"/>
      <point x="305" y="-169" type="curve"/>
      <point x="305" y="-169"/>
      <point x="340" y="-169"/>
      <point x="340" y="-169" type="curve"/>
      <point x="340" y="-169"/>
      <point x="340" y="-120"/>
      <point x="340" y="-120" type="curve"/>
      <point x="340" y="-120"/>
      <point x="310" y="-117"/>
      <point x="310" y="-117" type="curve"/>
      <point x="258" y="-111"/>
      <point x="235" y="-81"/>
      <point x="235" y="-29" type="curve" smooth="yes"/>
      <point x="235" y="32"/>
      <point x="267" y="111"/>
      <point x="267" y="172" type="curve" smooth="yes"/>
      <point x="267" y="261"/>
      <point x="208" y="324"/>
      <point x="85" y="330" type="curve"/>
      <point x="85" y="330"/>
      <point x="85" y="310"/>
      <point x="85" y="310" type="curve"/>
      <point x="208" y="318"/>
      <point x="267" y="380"/>
      <point x="267" y="468" type="curve" smooth="yes"/>
      <point x="267" y="531"/>
      <point x="235" y="608"/>
      <point x="235" y="671" type="curve" smooth="yes"/>
      <point x="235" y="721"/>
      <point x="258" y="751"/>
      <point x="310" y="757" type="curve"/>
      <point x="310" y="757"/>
      <point x="340" y="762"/>
      <point x="340" y="762" type="curve"/>
      <point x="340" y="762"/>
      <point x="340" y="810"/>
      <point x="340" y="810" type="curve"/>
      <point x="340" y="810"/>
      <point x="305" y="810"/>
      <point x="305" y="810" type="curve"/>
      <point x="184" y="810"/>
      <point x="103" y="766"/>
      <point x="103" y="669" type="curve" smooth="yes"/>
      <point x="103" y="581"/>
      <point x="166" y="512"/>
      <point x="166" y="437" type="curve" smooth="yes"/>
      <point x="166" y="392"/>
      <point x="142" y="365"/>
      <point x="49" y="345" type="curve"/>
      <point x="49" y="345"/>
      <point x="49" y="296"/>
    </contour>
  </outline>
</glyph>
<glyph name="cid40976" format="2">
  <advance height="1000" width="338"/>
  <unicode hex="007C"/>
  <outline>
    <contour>
      <point x="121" y="-271" type="line"/>
      <point x="217" y="-271" type="line"/>
      <point x="217" y="849" type="line"/>
      <point x="121" y="849" type="line"/>
    </contour>
  </outline>
</glyph>
<glyph name="cid40946" format="2">
  <advance height="1000" width="377"/>
  <unicode hex="007D"/>
  <outline>
    <contour>
      <point x="328" y="345" type="curve"/>
      <point x="235" y="364"/>
      <point x="212" y="392"/>
      <point x="212" y="437" type="curve" smooth="yes"/>
      <point x="212" y="512"/>
      <point x="274" y="580"/>
      <point x="274" y="669" type="curve" smooth="yes"/>
      <point x="274" y="766"/>
      <point x="194" y="810"/>
      <point x="73" y="810" type="curve"/>
      <point x="73" y="810"/>
      <point x="37" y="810"/>
      <point x="37" y="810" type="curve"/>
      <point x="37" y="810"/>
      <point x="37" y="760"/>
      <point x="37" y="760" type="curve"/>
      <point x="37" y="760"/>
      <point x="67" y="757"/>
      <point x="67" y="757" type="curve"/>
      <point x="120" y="751"/>
      <point x="142" y="721"/>
      <point x="142" y="670" type="curve" smooth="yes"/>
      <point x="142" y="608"/>
      <point x="111" y="530"/>
      <point x="111" y="468" type="curve" smooth="yes"/>
      <point x="111" y="380"/>
      <point x="169" y="317"/>
      <point x="292" y="310" type="curve"/>
      <point x="292" y="310"/>
      <point x="292" y="330"/>
      <point x="292" y="330" type="curve"/>
      <point x="169" y="322"/>
      <point x="111" y="261"/>
      <point x="111" y="172" type="curve" smooth="yes"/>
      <point x="111" y="110"/>
      <point x="142" y="32"/>
      <point x="142" y="-30" type="curve" smooth="yes"/>
      <point x="142" y="-81"/>
      <point x="120" y="-111"/>
      <point x="67" y="-117" type="curve"/>
      <point x="67" y="-117"/>
      <point x="37" y="-121"/>
      <point x="37" y="-121" type="curve"/>
      <point x="37" y="-121"/>
      <point x="37" y="-169"/>
      <point x="37" y="-169" type="curve"/>
      <point x="37" y="-169"/>
      <point x="73" y="-169"/>
      <point x="73" y="-169" type="curve"/>
      <point x="194" y="-169"/>
      <point x="274" y="-126"/>
      <point x="274" y="-28" type="curve" smooth="yes"/>
      <point x="274" y="59"/>
      <point x="212" y="129"/>
      <point x="212" y="204" type="curve" smooth="yes"/>
      <point x="212" y="249"/>
      <point x="235" y="275"/>
      <point x="328" y="296" type="curve"/>
      <point x="328" y="296"/>
      <point x="328" y="345"/>
    </contour>
  </outline>
</glyph>
<glyph name="cid40891" format="2">
  <advance height="1000" width="360"/>
  <unicode hex="00A1"/>
  <outline>
    <contour>
      <point x="179" y="560" type="curve" smooth="yes"/>
      <point x="124" y="560"/>
      <point x="82" y="516"/>
      <point x="82" y="462" type="curve" smooth="yes"/>
      <point x="82" y="409"/>
      <point x="124" y="365"/>
      <point x="179" y="365" type="curve" smooth="yes"/>
      <point x="234" y="365"/>
      <point x="278" y="409"/>
      <point x="278" y="462" type="curve" smooth="yes"/>
      <point x="278" y="516"/>
      <point x="234" y="560"/>
    </contour>
    <contour>
      <point x="179" y="-205" type="curve" smooth="yes"/>
      <point x="242" y="-205"/>
      <point x="280" y="-170"/>
      <point x="280" y="-102" type="curve" smooth="yes"/>
      <point x="280" y="-61"/>
      <point x="268" y="19"/>
      <point x="233" y="161" type="curve" smooth="yes"/>
      <point x="208" y="270" type="line"/>
      <point x="151" y="270" type="line"/>
      <point x="127" y="161" type="line" smooth="yes"/>
      <point x="92" y="20"/>
      <point x="80" y="-61"/>
      <point x="80" y="-102" type="curve" smooth="yes"/>
      <point x="80" y="-170"/>
      <point x="118" y="-205"/>
    </contour>
  </outline>
</glyph>
<glyph name="cid41229" format="2">
  <advance height="1000" width="596"/>
  <unicode hex="00A2"/>
  <outline>
    <contour>
      <point x="372" y="-40" type="curve"/>
      <point x="372" y="-40"/>
      <point x="372" y="741"/>
      <point x="372" y="741" type="curve"/>
      <point x="372" y="741"/>
      <point x="315" y="741"/>
      <point x="315" y="741" type="curve"/>
      <point x="315" y="741"/>
      <point x="315" y="-40"/>
      <point x="315" y="-40" type="curve"/>
      <point x="315" y="-40"/>
      <point x="372" y="-40"/>
    </contour>
    <contour>
      <point x="352" y="594" type="curve" smooth="yes"/>
      <point x="399" y="594"/>
      <point x="426" y="588"/>
      <point x="466" y="569" type="curve"/>
      <point x="466" y="569"/>
      <point x="404" y="610"/>
      <point x="404" y="610" type="curve"/>
      <point x="404" y="610"/>
      <point x="420" y="523"/>
      <point x="420" y="523" type="curve"/>
      <point x="432" y="451"/>
      <point x="463" y="431"/>
      <point x="503" y="431" type="curve" smooth="yes"/>
      <point x="536" y="431"/>
      <point x="556" y="449"/>
      <point x="564" y="484" type="curve"/>
      <point x="558" y="574"/>
      <point x="475" y="643"/>
      <point x="353" y="643" type="curve" smooth="yes"/>
      <point x="167" y="643"/>
      <point x="40" y="534"/>
      <point x="40" y="353" type="curve" smooth="yes"/>
      <point x="40" y="175"/>
      <point x="162" y="68"/>
      <point x="333" y="68" type="curve" smooth="yes"/>
      <point x="439" y="68"/>
      <point x="517" y="116"/>
      <point x="560" y="200" type="curve"/>
      <point x="560" y="200"/>
      <point x="528" y="230"/>
      <point x="528" y="230" type="curve"/>
      <point x="486" y="186"/>
      <point x="433" y="157"/>
      <point x="365" y="157" type="curve" smooth="yes"/>
      <point x="273" y="157"/>
      <point x="206" y="238"/>
      <point x="206" y="371" type="curve" smooth="yes"/>
      <point x="206" y="520"/>
      <point x="270" y="594"/>
    </contour>
  </outline>
</glyph>
<glyph name="cid41230" format="2">
  <advance height="1000" width="596"/>
  <unicode hex="00A3"/>
  <outline>
    <contour>
      <point x="62" y="325" type="line"/>
      <point x="456" y="325" type="line"/>
      <point x="456" y="378" type="line"/>
      <point x="62" y="378" type="line"/>
    </contour>
    <contour>
      <point x="50" y="10" type="line"/>
      <point x="544" y="10" type="line"/>
      <point x="544" y="144" type="line"/>
      <point x="148" y="144" type="line"/>
      <point x="148" y="163" type="line"/>
      <point x="121" y="121" type="line"/>
      <point x="221" y="154"/>
      <point x="279" y="223"/>
      <point x="279" y="316" type="curve" smooth="yes"/>
      <point x="279" y="393"/>
      <point x="245" y="458"/>
      <point x="245" y="552" type="curve" smooth="yes"/>
      <point x="245" y="636"/>
      <point x="289" y="684"/>
      <point x="364" y="684" type="curve" smooth="yes"/>
      <point x="389" y="684"/>
      <point x="416" y="679"/>
      <point x="461" y="662" type="curve"/>
      <point x="379" y="700" type="line"/>
      <point x="394" y="611" type="line" smooth="yes"/>
      <point x="408" y="538"/>
      <point x="439" y="521"/>
      <point x="478" y="521" type="curve" smooth="yes"/>
      <point x="508" y="521"/>
      <point x="533" y="536"/>
      <point x="543" y="571" type="curve"/>
      <point x="534" y="673"/>
      <point x="457" y="734"/>
      <point x="335" y="734" type="curve" smooth="yes"/>
      <point x="205" y="734"/>
      <point x="91" y="667"/>
      <point x="91" y="536" type="curve" smooth="yes"/>
      <point x="91" y="422"/>
      <point x="159" y="380"/>
      <point x="159" y="277" type="curve" smooth="yes"/>
      <point x="159" y="214"/>
      <point x="119" y="151"/>
      <point x="50" y="110" type="curve"/>
    </contour>
  </outline>
</glyph>
<glyph name="cid41227" format="2">
  <advance height="1000" width="597"/>
  <unicode hex="00A4"/>
  <outline>
    <contour>
      <point x="426" y="483" type="curve"/>
      <point x="426" y="483"/>
      <point x="485" y="514"/>
      <point x="485" y="514" type="curve"/>
      <point x="526" y="538"/>
      <point x="564" y="561"/>
      <point x="564" y="596" type="curve" smooth="yes"/>
      <point x="564" y="622"/>
      <point x="542" y="643"/>
      <point x="516" y="643" type="curve" smooth="yes"/>
      <point x="483" y="643"/>
      <point x="460" y="606"/>
      <point x="438" y="562" type="curve"/>
      <point x="438" y="562"/>
      <point x="405" y="503"/>
      <point x="405" y="503" type="curve"/>
      <point x="405" y="503"/>
      <point x="426" y="483"/>
    </contour>
    <contour>
      <point x="183" y="373" type="curve" smooth="yes"/>
      <point x="183" y="445"/>
      <point x="235" y="496"/>
      <point x="298" y="496" type="curve" smooth="yes"/>
      <point x="363" y="496"/>
      <point x="414" y="445"/>
      <point x="414" y="373" type="curve" smooth="yes"/>
      <point x="414" y="301"/>
      <point x="363" y="251"/>
      <point x="298" y="251" type="curve" smooth="yes"/>
      <point x="235" y="251"/>
      <point x="183" y="301"/>
    </contour>
    <contour>
      <point x="106" y="373" type="curve" smooth="yes"/>
      <point x="106" y="260"/>
      <point x="194" y="180"/>
      <point x="298" y="180" type="curve" smooth="yes"/>
      <point x="404" y="180"/>
      <point x="491" y="261"/>
      <point x="491" y="373" type="curve" smooth="yes"/>
      <point x="491" y="487"/>
      <point x="404" y="567"/>
      <point x="298" y="567" type="curve" smooth="yes"/>
      <point x="194" y="567"/>
      <point x="106" y="487"/>
    </contour>
    <contour>
      <point x="190" y="502" type="curve"/>
      <point x="190" y="502"/>
      <point x="159" y="562"/>
      <point x="159" y="562" type="curve"/>
      <point x="137" y="606"/>
      <point x="114" y="643"/>
      <point x="81" y="643" type="curve" smooth="yes"/>
      <point x="55" y="643"/>
      <point x="32" y="620"/>
      <point x="32" y="596" type="curve" smooth="yes"/>
      <point x="32" y="561"/>
      <point x="71" y="538"/>
      <point x="112" y="514" type="curve"/>
      <point x="112" y="514"/>
      <point x="171" y="483"/>
      <point x="171" y="483" type="curve"/>
      <point x="171" y="483"/>
      <point x="190" y="502"/>
    </contour>
    <contour>
      <point x="171" y="263" type="curve"/>
      <point x="171" y="263"/>
      <point x="112" y="232"/>
      <point x="112" y="232" type="curve"/>
      <point x="71" y="208"/>
      <point x="32" y="186"/>
      <point x="32" y="151" type="curve" smooth="yes"/>
      <point x="32" y="125"/>
      <point x="55" y="103"/>
      <point x="81" y="103" type="curve" smooth="yes"/>
      <point x="114" y="103"/>
      <point x="137" y="141"/>
      <point x="159" y="184" type="curve"/>
      <point x="159" y="184"/>
      <point x="192" y="244"/>
      <point x="192" y="244" type="curve"/>
      <point x="192" y="244"/>
      <point x="171" y="263"/>
    </contour>
    <contour>
      <point x="407" y="244" type="curve"/>
      <point x="407" y="244"/>
      <point x="438" y="184"/>
      <point x="438" y="184" type="curve"/>
      <point x="460" y="141"/>
      <point x="483" y="103"/>
      <point x="516" y="103" type="curve" smooth="yes"/>
      <point x="542" y="103"/>
      <point x="564" y="125"/>
      <point x="564" y="151" type="curve" smooth="yes"/>
      <point x="564" y="186"/>
      <point x="526" y="209"/>
      <point x="485" y="232" type="curve"/>
      <point x="485" y="232"/>
      <point x="426" y="264"/>
      <point x="426" y="264" type="curve"/>
      <point x="426" y="264"/>
      <point x="407" y="244"/>
    </contour>
  </outline>
</glyph>
<glyph name="cid41231" format="2">
  <advance height="1000" width="596"/>
  <unicode hex="00A5"/>
  <outline>
    <contour>
      <point x="354" y="266" type="line"/>
      <point x="566" y="717" type="line"/>
      <point x="497" y="717" type="line"/>
      <point x="345" y="372" type="line"/>
      <point x="337" y="355" type="line"/>
      <point x="363" y="355" type="line"/>
      <point x="205" y="717" type="line"/>
      <point x="25" y="717" type="line"/>
      <point x="243" y="266" type="line"/>
    </contour>
    <contour>
      <point x="125" y="653" type="line"/>
      <point x="170" y="653" type="line"/>
      <point x="312" y="669" type="line"/>
      <point x="312" y="717" type="line"/>
      <point x="-6" y="717" type="line"/>
      <point x="-6" y="669" type="line"/>
    </contour>
    <contour>
      <point x="264" y="75" type="line"/>
      <point x="118" y="58" type="line"/>
      <point x="118" y="10" type="line"/>
      <point x="479" y="10" type="line"/>
      <point x="479" y="58" type="line"/>
      <point x="333" y="75" type="line"/>
    </contour>
    <contour>
      <point x="216" y="219" type="line" smooth="yes"/>
      <point x="216" y="152"/>
      <point x="215" y="104"/>
      <point x="212" y="10" type="curve"/>
      <point x="385" y="10" type="line"/>
      <point x="382" y="104"/>
      <point x="381" y="152"/>
      <point x="381" y="219" type="curve" smooth="yes"/>
      <point x="381" y="347" type="line"/>
      <point x="216" y="347" type="line"/>
    </contour>
    <contour>
      <point x="487" y="654" type="line"/>
      <point x="520" y="654" type="line"/>
      <point x="601" y="669" type="line"/>
      <point x="601" y="717" type="line"/>
      <point x="393" y="717" type="line"/>
      <point x="393" y="669" type="line"/>
    </contour>
    <contour>
      <point x="67" y="176" type="line"/>
      <point x="533" y="176" type="line"/>
      <point x="533" y="230" type="line"/>
      <point x="67" y="230" type="line"/>
    </contour>
    <contour>
      <point x="67" y="309" type="line"/>
      <point x="533" y="309" type="line"/>
      <point x="533" y="362" type="line"/>
      <point x="67" y="362" type="line"/>
    </contour>
  </outline>
</glyph>
<glyph name="cid40980" format="2">
  <advance height="1000" width="338"/>
  <unicode hex="00A6"/>
  <outline>
    <contour>
      <point x="121" y="-271" type="line"/>
      <point x="217" y="-271" type="line"/>
      <point x="217" y="234" type="line"/>
      <point x="121" y="234" type="line"/>
    </contour>
    <contour>
      <point x="217" y="368" type="line"/>
      <point x="217" y="849" type="line"/>
      <point x="121" y="849" type="line"/>
      <point x="121" y="368" type="line"/>
    </contour>
  </outline>
</glyph>
<glyph name="cid40988" format="2">
  <advance height="1000" width="585"/>
  <unicode hex="00A7"/>
  <outline>
    <contour>
      <point x="274" y="-112" type="curve" smooth="yes"/>
      <point x="416" y="-112"/>
      <point x="485" y="-42"/>
      <point x="485" y="48" type="curve" smooth="yes"/>
      <point x="485" y="119"/>
      <point x="454" y="157"/>
      <point x="401" y="190" type="curve"/>
      <point x="400" y="197" type="line"/>
      <point x="364" y="217"/>
      <point x="339" y="231"/>
      <point x="296" y="250" type="curve" smooth="yes"/>
      <point x="195" y="297"/>
      <point x="158" y="320"/>
      <point x="158" y="370" type="curve" smooth="yes"/>
      <point x="158" y="408"/>
      <point x="177" y="436"/>
      <point x="221" y="454" type="curve"/>
      <point x="202" y="502" type="line"/>
      <point x="202" y="488" type="line"/>
      <point x="108" y="460"/>
      <point x="52" y="401"/>
      <point x="52" y="321" type="curve" smooth="yes"/>
      <point x="52" y="226"/>
      <point x="119" y="181"/>
      <point x="234" y="130" type="curve" smooth="yes"/>
      <point x="326" y="88"/>
      <point x="371" y="63"/>
      <point x="371" y="13" type="curve" smooth="yes"/>
      <point x="371" y="-34"/>
      <point x="340" y="-64"/>
      <point x="268" y="-64" type="curve" smooth="yes"/>
      <point x="234" y="-64"/>
      <point x="215" y="-61"/>
      <point x="189" y="-52" type="curve"/>
      <point x="241" y="-82" type="line"/>
      <point x="216" y="-10" type="line" smooth="yes"/>
      <point x="197" y="51"/>
      <point x="170" y="67"/>
      <point x="136" y="67" type="curve" smooth="yes"/>
      <point x="112" y="67"/>
      <point x="85" y="55"/>
      <point x="77" y="19" type="curve"/>
      <point x="80" y="-55"/>
      <point x="152" y="-112"/>
    </contour>
    <contour>
      <point x="309" y="766" type="curve" smooth="yes"/>
      <point x="168" y="766"/>
      <point x="100" y="693"/>
      <point x="100" y="605" type="curve" smooth="yes"/>
      <point x="100" y="541"/>
      <point x="129" y="501"/>
      <point x="181" y="466" type="curve"/>
      <point x="183" y="460" type="line"/>
      <point x="217" y="439"/>
      <point x="243" y="426"/>
      <point x="289" y="405" type="curve" smooth="yes"/>
      <point x="390" y="361"/>
      <point x="426" y="334"/>
      <point x="426" y="287" type="curve" smooth="yes"/>
      <point x="426" y="247"/>
      <point x="403" y="219"/>
      <point x="364" y="203" type="curve"/>
      <point x="382" y="157" type="line"/>
      <point x="383" y="168" type="line"/>
      <point x="476" y="196"/>
      <point x="533" y="254"/>
      <point x="533" y="334" type="curve" smooth="yes"/>
      <point x="533" y="429"/>
      <point x="468" y="474"/>
      <point x="349" y="526" type="curve" smooth="yes"/>
      <point x="258" y="569"/>
      <point x="214" y="594"/>
      <point x="214" y="644" type="curve" smooth="yes"/>
      <point x="214" y="686"/>
      <point x="243" y="718"/>
      <point x="316" y="718" type="curve" smooth="yes"/>
      <point x="349" y="718"/>
      <point x="368" y="716"/>
      <point x="395" y="706" type="curve"/>
      <point x="342" y="737" type="line"/>
      <point x="366" y="665" type="line" smooth="yes"/>
      <point x="385" y="602"/>
      <point x="413" y="587"/>
      <point x="447" y="587" type="curve" smooth="yes"/>
      <point x="470" y="587"/>
      <point x="496" y="599"/>
      <point x="505" y="636" type="curve"/>
      <point x="503" y="709"/>
      <point x="431" y="766"/>
    </contour>
  </outline>
</glyph>
<glyph name="cid41536" format="2">
  <advance height="1000" width="448"/>
  <unicode hex="00A8"/>
  <outline>
    <contour>
      <point x="103" y="648" type="curve" smooth="yes"/>
      <point x="147" y="648"/>
      <point x="184" y="678"/>
      <point x="184" y="726" type="curve" smooth="yes"/>
      <point x="184" y="773"/>
      <point x="147" y="802"/>
      <point x="103" y="802" type="curve" smooth="yes"/>
      <point x="60" y="802"/>
      <point x="22" y="773"/>
      <point x="22" y="726" type="curve" smooth="yes"/>
      <point x="22" y="678"/>
      <point x="60" y="648"/>
    </contour>
    <contour>
      <point x="345" y="648" type="curve" smooth="yes"/>
      <point x="389" y="648"/>
      <point x="426" y="678"/>
      <point x="426" y="726" type="curve" smooth="yes"/>
      <point x="426" y="773"/>
      <point x="389" y="802"/>
      <point x="345" y="802" type="curve" smooth="yes"/>
      <point x="302" y="802"/>
      <point x="264" y="773"/>
      <point x="264" y="726" type="curve" smooth="yes"/>
      <point x="264" y="678"/>
      <point x="302" y="648"/>
    </contour>
  </outline>
</glyph>
<glyph name="cid40991" format="2">
  <advance height="1000" width="833"/>
  <unicode hex="00A9"/>
  <outline>
    <contour>
      <point x="418" y="-10" type="curve" smooth="yes"/>
      <point x="624" y="-10"/>
      <point x="801" y="141"/>
      <point x="801" y="378" type="curve" smooth="yes"/>
      <point x="801" y="616"/>
      <point x="624" y="766"/>
      <point x="418" y="766" type="curve" smooth="yes"/>
      <point x="212" y="766"/>
      <point x="34" y="616"/>
      <point x="34" y="378" type="curve" smooth="yes"/>
      <point x="34" y="141"/>
      <point x="212" y="-10"/>
    </contour>
    <contour>
      <point x="418" y="42" type="curve" smooth="yes"/>
      <point x="243" y="42"/>
      <point x="95" y="172"/>
      <point x="95" y="378" type="curve" smooth="yes"/>
      <point x="95" y="583"/>
      <point x="243" y="713"/>
      <point x="418" y="713" type="curve" smooth="yes"/>
      <point x="592" y="713"/>
      <point x="740" y="583"/>
      <point x="740" y="378" type="curve" smooth="yes"/>
      <point x="740" y="174"/>
      <point x="592" y="42"/>
    </contour>
    <contour>
      <point x="438" y="150" type="curve" smooth="yes"/>
      <point x="491" y="150"/>
      <point x="536" y="163"/>
      <point x="570" y="180" type="curve"/>
      <point x="570" y="180"/>
      <point x="575" y="291"/>
      <point x="575" y="291" type="curve"/>
      <point x="575" y="291"/>
      <point x="532" y="291"/>
      <point x="532" y="291" type="curve"/>
      <point x="532" y="291"/>
      <point x="497" y="177"/>
      <point x="497" y="177" type="curve"/>
      <point x="497" y="177"/>
      <point x="548" y="225"/>
      <point x="548" y="225" type="curve"/>
      <point x="519" y="204"/>
      <point x="486" y="191"/>
      <point x="457" y="191" type="curve" smooth="yes"/>
      <point x="390" y="191"/>
      <point x="334" y="249"/>
      <point x="334" y="380" type="curve" smooth="yes"/>
      <point x="334" y="511"/>
      <point x="392" y="571"/>
      <point x="458" y="571" type="curve" smooth="yes"/>
      <point x="486" y="571"/>
      <point x="514" y="560"/>
      <point x="544" y="536" type="curve"/>
      <point x="544" y="536"/>
      <point x="494" y="585"/>
      <point x="494" y="585" type="curve"/>
      <point x="494" y="585"/>
      <point x="529" y="473"/>
      <point x="529" y="473" type="curve"/>
      <point x="529" y="473"/>
      <point x="571" y="473"/>
      <point x="571" y="473" type="curve"/>
      <point x="571" y="473"/>
      <point x="567" y="581"/>
      <point x="567" y="581" type="curve"/>
      <point x="530" y="600"/>
      <point x="492" y="611"/>
      <point x="441" y="611" type="curve" smooth="yes"/>
      <point x="323" y="611"/>
      <point x="209" y="536"/>
      <point x="209" y="378" type="curve" smooth="yes"/>
      <point x="209" y="225"/>
      <point x="315" y="150"/>
    </contour>
  </outline>
</glyph>
<glyph name="cid41133" format="2">
  <advance height="1000" width="393"/>
  <unicode hex="00AA"/>
  <outline>
    <contour>
      <point x="309" y="469" type="curve" smooth="yes"/>
      <point x="349" y="469"/>
      <point x="376" y="484"/>
      <point x="393" y="520" type="curve"/>
      <point x="393" y="520"/>
      <point x="376" y="532"/>
      <point x="376" y="532" type="curve"/>
      <point x="366" y="520"/>
      <point x="360" y="516"/>
      <point x="351" y="516" type="curve" smooth="yes"/>
      <point x="339" y="516"/>
      <point x="334" y="524"/>
      <point x="334" y="540" type="curve"/>
      <point x="334" y="540"/>
      <point x="334" y="702"/>
      <point x="334" y="702" type="curve"/>
      <point x="334" y="796"/>
      <point x="296" y="835"/>
      <point x="202" y="835" type="curve" smooth="yes"/>
      <point x="101" y="835"/>
      <point x="40" y="796"/>
      <point x="36" y="738" type="curve"/>
      <point x="41" y="714"/>
      <point x="58" y="703"/>
      <point x="83" y="703" type="curve" smooth="yes"/>
      <point x="110" y="703"/>
      <point x="134" y="720"/>
      <point x="138" y="765" type="curve"/>
      <point x="138" y="765"/>
      <point x="143" y="818"/>
      <point x="143" y="818" type="curve"/>
      <point x="143" y="818"/>
      <point x="102" y="793"/>
      <point x="102" y="793" type="curve"/>
      <point x="128" y="801"/>
      <point x="147" y="804"/>
      <point x="164" y="804" type="curve" smooth="yes"/>
      <point x="212" y="804"/>
      <point x="224" y="784"/>
      <point x="224" y="717" type="curve"/>
      <point x="224" y="717"/>
      <point x="224" y="541"/>
      <point x="224" y="541" type="curve"/>
      <point x="224" y="541"/>
      <point x="224" y="540"/>
      <point x="224" y="540" type="curve"/>
      <point x="228" y="496"/>
      <point x="255" y="469"/>
    </contour>
    <contour>
      <point x="121" y="468" type="curve" smooth="yes"/>
      <point x="171" y="468"/>
      <point x="196" y="488"/>
      <point x="232" y="527" type="curve"/>
      <point x="232" y="527"/>
      <point x="261" y="549"/>
      <point x="261" y="549" type="curve"/>
      <point x="261" y="549"/>
      <point x="235" y="552"/>
      <point x="235" y="552" type="curve"/>
      <point x="206" y="531"/>
      <point x="194" y="523"/>
      <point x="176" y="523" type="curve" smooth="yes"/>
      <point x="150" y="523"/>
      <point x="128" y="540"/>
      <point x="128" y="577" type="curve" smooth="yes"/>
      <point x="128" y="613"/>
      <point x="150" y="637"/>
      <point x="187" y="653" type="curve" smooth="yes"/>
      <point x="209" y="662"/>
      <point x="248" y="672"/>
      <point x="283" y="681" type="curve"/>
      <point x="283" y="681"/>
      <point x="283" y="707"/>
      <point x="283" y="707" type="curve"/>
      <point x="248" y="698"/>
      <point x="197" y="685"/>
      <point x="166" y="676" type="curve" smooth="yes"/>
      <point x="55" y="646"/>
      <point x="24" y="608"/>
      <point x="24" y="559" type="curve" smooth="yes"/>
      <point x="24" y="501"/>
      <point x="64" y="468"/>
    </contour>
  </outline>
</glyph>
<glyph name="cid40917" format="2">
  <advance height="1000" width="604"/>
  <unicode hex="00AB"/>
  <outline>
    <contour>
      <point x="291" y="44" type="curve"/>
      <point x="291" y="44"/>
      <point x="323" y="75"/>
      <point x="323" y="75" type="curve"/>
      <point x="323" y="75"/>
      <point x="121" y="328"/>
      <point x="121" y="328" type="curve"/>
      <point x="121" y="328"/>
      <point x="121" y="250"/>
      <point x="121" y="250" type="curve"/>
      <point x="121" y="250"/>
      <point x="323" y="503"/>
      <point x="323" y="503" type="curve"/>
      <point x="323" y="503"/>
      <point x="291" y="535"/>
      <point x="291" y="535" type="curve"/>
      <point x="291" y="535"/>
      <point x="28" y="320"/>
      <point x="28" y="320" type="curve"/>
      <point x="28" y="320"/>
      <point x="28" y="258"/>
      <point x="28" y="258" type="curve"/>
      <point x="28" y="258"/>
      <point x="291" y="44"/>
    </contour>
    <contour>
      <point x="530" y="44" type="curve"/>
      <point x="530" y="44"/>
      <point x="561" y="75"/>
      <point x="561" y="75" type="curve"/>
      <point x="561" y="75"/>
      <point x="360" y="328"/>
      <point x="360" y="328" type="curve"/>
      <point x="360" y="328"/>
      <point x="360" y="250"/>
      <point x="360" y="250" type="curve"/>
      <point x="360" y="250"/>
      <point x="561" y="503"/>
      <point x="561" y="503" type="curve"/>
      <point x="561" y="503"/>
      <point x="530" y="535"/>
      <point x="530" y="535" type="curve"/>
      <point x="530" y="535"/>
      <point x="267" y="320"/>
      <point x="267" y="320" type="curve"/>
      <point x="267" y="320"/>
      <point x="267" y="258"/>
      <point x="267" y="258" type="curve"/>
      <point x="267" y="258"/>
      <point x="530" y="44"/>
    </contour>
  </outline>
</glyph>
<glyph name="cid41369" format="2">
  <advance height="1000" width="597"/>
  <unicode hex="00AC"/>
  <outline>
    <contour>
      <point x="35" y="375" type="line"/>
      <point x="514" y="375" type="line"/>
      <point x="476" y="415" type="line"/>
      <point x="476" y="179" type="line"/>
      <point x="563" y="179" type="line"/>
      <point x="563" y="459" type="line"/>
      <point x="35" y="459" type="line"/>
    </contour>
  </outline>
</glyph>
<glyph name="cid40994" format="2">
  <advance height="1000" width="526"/>
  <unicode hex="00AE"/>
  <outline>
    <contour>
      <point x="385" y="496" type="line"/>
      <point x="335" y="502" type="line"/>
      <point x="363" y="484" type="line"/>
      <point x="354" y="535" type="line" smooth="yes"/>
      <point x="346" y="572"/>
      <point x="327" y="591"/>
      <point x="268" y="591" type="curve"/>
      <point x="264" y="588" type="line"/>
      <point x="333" y="589"/>
      <point x="355" y="617"/>
      <point x="355" y="645" type="curve" smooth="yes"/>
      <point x="355" y="679"/>
      <point x="326" y="700"/>
      <point x="265" y="700" type="curve" smooth="yes"/>
      <point x="214" y="700" type="line"/>
      <point x="214" y="681" type="line"/>
      <point x="254" y="681" type="line" smooth="yes"/>
      <point x="280" y="681"/>
      <point x="295" y="666"/>
      <point x="295" y="639" type="curve" smooth="yes"/>
      <point x="295" y="619"/>
      <point x="286" y="598"/>
      <point x="254" y="598" type="curve" smooth="yes"/>
      <point x="214" y="598" type="line"/>
      <point x="214" y="579" type="line"/>
      <point x="255" y="579" type="line" smooth="yes"/>
      <point x="274" y="579"/>
      <point x="283" y="567"/>
      <point x="286" y="546" type="curve" smooth="yes"/>
      <point x="291" y="510" type="line" smooth="yes"/>
      <point x="296" y="482"/>
      <point x="315" y="474"/>
      <point x="346" y="474" type="curve" smooth="yes"/>
      <point x="361" y="474"/>
      <point x="368" y="475"/>
      <point x="385" y="478" type="curve"/>
    </contour>
    <contour>
      <point x="204" y="502" type="line"/>
      <point x="157" y="496" type="line"/>
      <point x="157" y="478" type="line"/>
      <point x="271" y="478" type="line"/>
      <point x="271" y="496" type="line"/>
      <point x="223" y="502" type="line"/>
    </contour>
    <contour>
      <point x="204" y="676" type="line"/>
      <point x="220" y="676" type="line"/>
      <point x="220" y="700" type="line"/>
      <point x="157" y="700" type="line"/>
      <point x="157" y="682" type="line"/>
    </contour>
    <contour>
      <point x="81" y="583" type="curve" smooth="yes"/>
      <point x="81" y="699"/>
      <point x="164" y="767"/>
      <point x="263" y="767" type="curve" smooth="yes"/>
      <point x="363" y="767"/>
      <point x="445" y="699"/>
      <point x="445" y="583" type="curve" smooth="yes"/>
      <point x="445" y="469"/>
      <point x="363" y="399"/>
      <point x="263" y="399" type="curve" smooth="yes"/>
      <point x="164" y="399"/>
      <point x="81" y="469"/>
    </contour>
    <contour>
      <point x="181" y="478" type="line"/>
      <point x="245" y="478" type="line"/>
      <point x="245" y="700" type="line"/>
      <point x="181" y="700" type="line"/>
    </contour>
    <contour>
      <point x="34" y="583" type="curve" smooth="yes"/>
      <point x="34" y="443"/>
      <point x="139" y="356"/>
      <point x="263" y="356" type="curve" smooth="yes"/>
      <point x="386" y="356"/>
      <point x="493" y="443"/>
      <point x="493" y="583" type="curve" smooth="yes"/>
      <point x="493" y="725"/>
      <point x="386" y="810"/>
      <point x="263" y="810" type="curve" smooth="yes"/>
      <point x="140" y="810"/>
      <point x="34" y="725"/>
    </contour>
  </outline>
</glyph>
<glyph name="cid41538" format="2">
  <advance height="1000" width="448"/>
  <unicode hex="00AF"/>
  <outline>
    <contour>
      <point x="75" y="657" type="curve"/>
      <point x="75" y="657"/>
      <point x="373" y="657"/>
      <point x="373" y="657" type="curve"/>
      <point x="373" y="657"/>
      <point x="373" y="750"/>
      <point x="373" y="750" type="curve"/>
      <point x="373" y="750"/>
      <point x="75" y="750"/>
      <point x="75" y="750" type="curve"/>
      <point x="75" y="750"/>
      <point x="75" y="657"/>
    </contour>
  </outline>
</glyph>
<glyph name="cid41225" format="2">
  <advance height="1000" width="367"/>
  <unicode hex="00B0"/>
  <outline>
    <contour>
      <point x="184" y="518" type="curve" smooth="yes"/>
      <point x="132" y="518"/>
      <point x="93" y="555"/>
      <point x="93" y="616" type="curve" smooth="yes"/>
      <point x="93" y="675"/>
      <point x="132" y="714"/>
      <point x="184" y="714" type="curve" smooth="yes"/>
      <point x="235" y="714"/>
      <point x="274" y="675"/>
      <point x="274" y="616" type="curve" smooth="yes"/>
      <point x="274" y="555"/>
      <point x="235" y="518"/>
    </contour>
    <contour>
      <point x="184" y="466" type="curve" smooth="yes"/>
      <point x="262" y="466"/>
      <point x="333" y="523"/>
      <point x="333" y="616" type="curve" smooth="yes"/>
      <point x="333" y="709"/>
      <point x="262" y="766"/>
      <point x="184" y="766" type="curve" smooth="yes"/>
      <point x="105" y="766"/>
      <point x="35" y="709"/>
      <point x="35" y="616" type="curve" smooth="yes"/>
      <point x="35" y="523"/>
      <point x="105" y="466"/>
    </contour>
  </outline>
</glyph>
<glyph name="cid41361" format="2">
  <advance height="1000" width="597"/>
  <unicode hex="00B1"/>
  <outline>
    <contour>
      <point x="255" y="146" type="line"/>
      <point x="343" y="146" type="line"/>
      <point x="343" y="638" type="line"/>
      <point x="255" y="638" type="line"/>
    </contour>
    <contour>
      <point x="563" y="354" type="line"/>
      <point x="563" y="437" type="line"/>
      <point x="35" y="437" type="line"/>
      <point x="35" y="354" type="line"/>
    </contour>
    <contour>
      <point x="563" y="10" type="line"/>
      <point x="563" y="93" type="line"/>
      <point x="35" y="93" type="line"/>
      <point x="35" y="10" type="line"/>
    </contour>
  </outline>
</glyph>
<glyph name="cid41010" format="2">
  <advance height="1000" width="412"/>
  <unicode hex="00B2"/>
  <outline>
    <contour>
      <point x="45" y="478" type="line"/>
      <point x="370" y="478" type="line"/>
      <point x="370" y="572" type="line"/>
      <point x="122" y="572" type="line"/>
      <point x="122" y="586" type="line"/>
      <point x="97" y="548" type="line"/>
      <point x="185" y="607" type="line" smooth="yes"/>
      <point x="302" y="684"/>
      <point x="362" y="737"/>
      <point x="362" y="809" type="curve" smooth="yes"/>
      <point x="362" y="876"/>
      <point x="317" y="931"/>
      <point x="213" y="931" type="curve" smooth="yes"/>
      <point x="119" y="931"/>
      <point x="45" y="894"/>
      <point x="41" y="815" type="curve"/>
      <point x="49" y="796"/>
      <point x="68" y="786"/>
      <point x="87" y="786" type="curve" smooth="yes"/>
      <point x="111" y="786"/>
      <point x="132" y="797"/>
      <point x="140" y="846" type="curve" smooth="yes"/>
      <point x="152" y="913" type="line"/>
      <point x="101" y="884" type="line"/>
      <point x="128" y="896"/>
      <point x="148" y="898"/>
      <point x="169" y="898" type="curve" smooth="yes"/>
      <point x="214" y="898"/>
      <point x="243" y="868"/>
      <point x="243" y="809" type="curve" smooth="yes"/>
      <point x="243" y="744"/>
      <point x="206" y="694"/>
      <point x="139" y="629" type="curve" smooth="yes"/>
      <point x="45" y="538" type="line"/>
    </contour>
  </outline>
</glyph>
<glyph name="cid41012" format="2">
  <advance height="1000" width="412"/>
  <unicode hex="00B3"/>
  <outline>
    <contour>
      <point x="190" y="467" type="curve" smooth="yes"/>
      <point x="307" y="467"/>
      <point x="376" y="517"/>
      <point x="376" y="595" type="curve" smooth="yes"/>
      <point x="376" y="667"/>
      <point x="326" y="708"/>
      <point x="216" y="713" type="curve"/>
      <point x="217" y="704" type="line"/>
      <point x="314" y="712"/>
      <point x="361" y="760"/>
      <point x="361" y="819" type="curve" smooth="yes"/>
      <point x="361" y="882"/>
      <point x="309" y="931"/>
      <point x="203" y="931" type="curve" smooth="yes"/>
      <point x="122" y="931"/>
      <point x="58" y="896"/>
      <point x="55" y="822" type="curve"/>
      <point x="64" y="806"/>
      <point x="80" y="797"/>
      <point x="96" y="797" type="curve" smooth="yes"/>
      <point x="121" y="797"/>
      <point x="143" y="810"/>
      <point x="149" y="849" type="curve" smooth="yes"/>
      <point x="160" y="913" type="line"/>
      <point x="120" y="889" type="line"/>
      <point x="141" y="896"/>
      <point x="158" y="898"/>
      <point x="172" y="898" type="curve" smooth="yes"/>
      <point x="220" y="898"/>
      <point x="246" y="867"/>
      <point x="246" y="814" type="curve" smooth="yes"/>
      <point x="246" y="754"/>
      <point x="218" y="725"/>
      <point x="157" y="725" type="curve" smooth="yes"/>
      <point x="137" y="725" type="line"/>
      <point x="137" y="688" type="line"/>
      <point x="161" y="688" type="line" smooth="yes"/>
      <point x="226" y="688"/>
      <point x="255" y="653"/>
      <point x="255" y="598" type="curve" smooth="yes"/>
      <point x="255" y="535"/>
      <point x="222" y="498"/>
      <point x="158" y="498" type="curve" smooth="yes"/>
      <point x="139" y="498"/>
      <point x="125" y="502"/>
      <point x="108" y="510" type="curve"/>
      <point x="142" y="483" type="line"/>
      <point x="132" y="552" type="line" smooth="yes"/>
      <point x="125" y="599"/>
      <point x="108" y="611"/>
      <point x="80" y="611" type="curve" smooth="yes"/>
      <point x="63" y="611"/>
      <point x="44" y="604"/>
      <point x="36" y="580" type="curve"/>
      <point x="40" y="508"/>
      <point x="93" y="467"/>
    </contour>
  </outline>
</glyph>
<glyph name="cid41522" format="2">
  <advance height="1000" width="448"/>
  <unicode hex="00B4"/>
  <outline>
    <contour>
      <point x="138" y="651" type="curve"/>
      <point x="174" y="622" type="line"/>
      <point x="203" y="644"/>
      <point x="231" y="665"/>
      <point x="297" y="714" type="curve" smooth="yes"/>
      <point x="340" y="747"/>
      <point x="367" y="774"/>
      <point x="367" y="805" type="curve" smooth="yes"/>
      <point x="367" y="843"/>
      <point x="338" y="865"/>
      <point x="309" y="865" type="curve" smooth="yes"/>
      <point x="274" y="865"/>
      <point x="252" y="843"/>
      <point x="224" y="795" type="curve" smooth="yes"/>
      <point x="177" y="719"/>
      <point x="157" y="684"/>
    </contour>
  </outline>
</glyph>
<glyph name="cid40990" format="2">
  <advance height="1000" width="700"/>
  <unicode hex="00B6"/>
  <outline>
    <contour>
      <point x="352" y="141" type="curve"/>
      <point x="352" y="694" type="line"/>
      <point x="512" y="694" type="line"/>
      <point x="512" y="746" type="line"/>
      <point x="404" y="746" type="line" smooth="yes"/>
      <point x="192" y="746"/>
      <point x="25" y="657"/>
      <point x="25" y="447" type="curve" smooth="yes"/>
      <point x="25" y="241"/>
      <point x="171" y="143"/>
    </contour>
    <contour>
      <point x="430" y="-120" type="curve"/>
      <point x="581" y="-120" type="line"/>
      <point x="577" y="-12"/>
      <point x="577" y="112"/>
      <point x="577" y="227" type="curve" smooth="yes"/>
      <point x="577" y="401" type="line" smooth="yes"/>
      <point x="577" y="517"/>
      <point x="578" y="641"/>
      <point x="581" y="746" type="curve"/>
      <point x="435" y="746" type="line"/>
      <point x="435" y="227" type="line" smooth="yes"/>
      <point x="435" y="110"/>
      <point x="433" y="-15"/>
    </contour>
    <contour>
      <point x="500" y="680" type="line"/>
      <point x="522" y="680" type="line"/>
      <point x="663" y="697" type="line"/>
      <point x="663" y="746" type="line"/>
      <point x="500" y="746" type="line"/>
    </contour>
  </outline>
</glyph>
<glyph name="cid40928" format="2">
  <advance height="1000" width="323"/>
  <unicode hex="00B7"/>
  <outline>
    <contour>
      <point x="161" y="287" type="curve" smooth="yes"/>
      <point x="215" y="287"/>
      <point x="258" y="329"/>
      <point x="258" y="382" type="curve" smooth="yes"/>
      <point x="258" y="434"/>
      <point x="215" y="478"/>
      <point x="161" y="478" type="curve" smooth="yes"/>
      <point x="108" y="478"/>
      <point x="66" y="434"/>
      <point x="66" y="382" type="curve" smooth="yes"/>
      <point x="66" y="329"/>
      <point x="108" y="287"/>
    </contour>
  </outline>
</glyph>
<glyph name="cid41550" format="2">
  <advance height="1000" width="448"/>
  <unicode hex="00B8"/>
  <outline>
    <contour>
      <point x="162" y="-89" type="curve"/>
      <point x="208" y="-94"/>
      <point x="234" y="-110"/>
      <point x="234" y="-142" type="curve" smooth="yes"/>
      <point x="234" y="-171"/>
      <point x="215" y="-188"/>
      <point x="171" y="-188" type="curve" smooth="yes"/>
      <point x="152" y="-188"/>
      <point x="136" y="-185"/>
      <point x="115" y="-179" type="curve"/>
      <point x="115" y="-179"/>
      <point x="105" y="-225"/>
      <point x="105" y="-225" type="curve"/>
      <point x="129" y="-235"/>
      <point x="153" y="-241"/>
      <point x="189" y="-241" type="curve" smooth="yes"/>
      <point x="287" y="-241"/>
      <point x="334" y="-198"/>
      <point x="334" y="-142" type="curve" smooth="yes"/>
      <point x="334" y="-91"/>
      <point x="293" y="-52"/>
      <point x="188" y="-43" type="curve"/>
      <point x="188" y="-43"/>
      <point x="220" y="-67"/>
      <point x="220" y="-67" type="curve"/>
      <point x="220" y="-67"/>
      <point x="231" y="13"/>
      <point x="231" y="13" type="curve"/>
      <point x="231" y="13"/>
      <point x="179" y="13"/>
      <point x="179" y="13" type="curve"/>
      <point x="179" y="13"/>
      <point x="162" y="-89"/>
    </contour>
  </outline>
</glyph>
<glyph name="cid41008" format="2">
  <advance height="1000" width="412"/>
  <unicode hex="00B9"/>
  <outline>
    <contour>
      <point x="68" y="478" type="curve"/>
      <point x="68" y="478"/>
      <point x="360" y="478"/>
      <point x="360" y="478" type="curve"/>
      <point x="360" y="478"/>
      <point x="360" y="508"/>
      <point x="360" y="508" type="curve"/>
      <point x="360" y="508"/>
      <point x="265" y="527"/>
      <point x="265" y="527" type="curve"/>
      <point x="265" y="527"/>
      <point x="167" y="527"/>
      <point x="167" y="527" type="curve"/>
      <point x="167" y="527"/>
      <point x="68" y="508"/>
      <point x="68" y="508" type="curve"/>
      <point x="68" y="508"/>
      <point x="68" y="478"/>
    </contour>
    <contour>
      <point x="157" y="478" type="curve"/>
      <point x="157" y="478"/>
      <point x="274" y="478"/>
      <point x="274" y="478" type="curve"/>
      <point x="274" y="478"/>
      <point x="274" y="922"/>
      <point x="274" y="922" type="curve"/>
      <point x="274" y="922"/>
      <point x="264" y="930"/>
      <point x="264" y="930" type="curve"/>
      <point x="264" y="930"/>
      <point x="78" y="884"/>
      <point x="78" y="884" type="curve"/>
      <point x="78" y="884"/>
      <point x="78" y="847"/>
      <point x="78" y="847" type="curve"/>
      <point x="78" y="847"/>
      <point x="157" y="856"/>
      <point x="157" y="856" type="curve"/>
      <point x="157" y="856"/>
      <point x="157" y="478"/>
    </contour>
  </outline>
</glyph>
<glyph name="cid41134" format="2">
  <advance height="1000" width="422"/>
  <unicode hex="00BA"/>
  <outline>
    <contour>
      <point x="211" y="467" type="curve" smooth="yes"/>
      <point x="321" y="467"/>
      <point x="399" y="541"/>
      <point x="399" y="653" type="curve" smooth="yes"/>
      <point x="399" y="764"/>
      <point x="320" y="835"/>
      <point x="211" y="835" type="curve" smooth="yes"/>
      <point x="105" y="835"/>
      <point x="24" y="763"/>
      <point x="24" y="652" type="curve" smooth="yes"/>
      <point x="24" y="542"/>
      <point x="96" y="467"/>
    </contour>
    <contour>
      <point x="211" y="501" type="curve" smooth="yes"/>
      <point x="165" y="501"/>
      <point x="141" y="542"/>
      <point x="141" y="652" type="curve" smooth="yes"/>
      <point x="141" y="759"/>
      <point x="165" y="803"/>
      <point x="211" y="803" type="curve" smooth="yes"/>
      <point x="256" y="803"/>
      <point x="281" y="760"/>
      <point x="281" y="652" type="curve" smooth="yes"/>
      <point x="281" y="543"/>
      <point x="256" y="501"/>
    </contour>
  </outline>
</glyph>
<glyph name="cid40919" format="2">
  <advance height="1000" width="604"/>
  <unicode hex="00BB"/>
  <outline>
    <contour>
      <point x="312" y="534" type="line"/>
      <point x="281" y="503" type="line"/>
      <point x="483" y="250" type="line"/>
      <point x="483" y="328" type="line"/>
      <point x="281" y="75" type="line"/>
      <point x="312" y="42" type="line"/>
      <point x="576" y="258" type="line"/>
      <point x="576" y="320" type="line"/>
    </contour>
    <contour>
      <point x="74" y="534" type="line"/>
      <point x="43" y="503" type="line"/>
      <point x="244" y="250" type="line"/>
      <point x="244" y="328" type="line"/>
      <point x="43" y="75" type="line"/>
      <point x="74" y="42" type="line"/>
      <point x="337" y="258" type="line"/>
      <point x="337" y="320" type="line"/>
    </contour>
  </outline>
</glyph>
<glyph name="cid41314" format="2">
  <advance height="1000" width="954"/>
  <unicode hex="00BC"/>
  <outline>
    <contour>
      <point x="68" y="305" type="curve"/>
      <point x="68" y="305"/>
      <point x="360" y="305"/>
      <point x="360" y="305" type="curve"/>
      <point x="360" y="305"/>
      <point x="360" y="335"/>
      <point x="360" y="335" type="curve"/>
      <point x="360" y="335"/>
      <point x="265" y="354"/>
      <point x="265" y="354" type="curve"/>
      <point x="265" y="354"/>
      <point x="167" y="354"/>
      <point x="167" y="354" type="curve"/>
      <point x="167" y="354"/>
      <point x="68" y="335"/>
      <point x="68" y="335" type="curve"/>
      <point x="68" y="335"/>
      <point x="68" y="305"/>
    </contour>
    <contour>
      <point x="157" y="305" type="curve"/>
      <point x="157" y="305"/>
      <point x="274" y="305"/>
      <point x="274" y="305" type="curve"/>
      <point x="274" y="305"/>
      <point x="274" y="748"/>
      <point x="274" y="748" type="curve"/>
      <point x="274" y="748"/>
      <point x="264" y="756"/>
      <point x="264" y="756" type="curve"/>
      <point x="264" y="756"/>
      <point x="78" y="710"/>
      <point x="78" y="710" type="curve"/>
      <point x="78" y="710"/>
      <point x="78" y="673"/>
      <point x="78" y="673" type="curve"/>
      <point x="78" y="673"/>
      <point x="157" y="682"/>
      <point x="157" y="682" type="curve"/>
      <point x="157" y="682"/>
      <point x="157" y="305"/>
    </contour>
    <contour>
      <point x="270" y="-25" type="curve"/>
      <point x="270" y="-25"/>
      <point x="771" y="713"/>
      <point x="771" y="713" type="curve"/>
      <point x="771" y="713"/>
      <point x="721" y="747"/>
      <point x="721" y="747" type="curve"/>
      <point x="721" y="747"/>
      <point x="220" y="9"/>
      <point x="220" y="9" type="curve"/>
      <point x="220" y="9"/>
      <point x="270" y="-25"/>
    </contour>
    <contour>
      <point x="755" y="10" type="curve"/>
      <point x="755" y="10"/>
      <point x="862" y="10"/>
      <point x="862" y="10" type="curve"/>
      <point x="862" y="10"/>
      <point x="862" y="454"/>
      <point x="862" y="454" type="curve"/>
      <point x="862" y="454"/>
      <point x="777" y="454"/>
      <point x="777" y="454" type="curve"/>
      <point x="777" y="454"/>
      <point x="569" y="175"/>
      <point x="569" y="175" type="curve"/>
      <point x="569" y="175"/>
      <point x="569" y="107"/>
      <point x="569" y="107" type="curve"/>
      <point x="569" y="107"/>
      <point x="926" y="107"/>
      <point x="926" y="107" type="curve"/>
      <point x="926" y="107"/>
      <point x="926" y="189"/>
      <point x="926" y="189" type="curve"/>
      <point x="926" y="189"/>
      <point x="618" y="189"/>
      <point x="618" y="189" type="curve"/>
      <point x="618" y="189"/>
      <point x="618" y="205"/>
      <point x="618" y="205" type="curve"/>
      <point x="618" y="205"/>
      <point x="608" y="168"/>
      <point x="608" y="168" type="curve"/>
      <point x="608" y="168"/>
      <point x="702" y="294"/>
      <point x="702" y="294" type="curve"/>
      <point x="702" y="294"/>
      <point x="795" y="421"/>
      <point x="795" y="421" type="curve"/>
      <point x="795" y="421"/>
      <point x="744" y="381"/>
      <point x="744" y="381" type="curve"/>
      <point x="744" y="381"/>
      <point x="755" y="381"/>
      <point x="755" y="381" type="curve"/>
      <point x="755" y="381"/>
      <point x="755" y="163"/>
      <point x="755" y="163" type="curve"/>
      <point x="755" y="163"/>
      <point x="755" y="137"/>
      <point x="755" y="137" type="curve"/>
      <point x="755" y="137"/>
      <point x="755" y="10"/>
    </contour>
  </outline>
</glyph>
<glyph name="cid41316" format="2">
  <advance height="1000" width="990"/>
  <unicode hex="00BD"/>
  <outline>
    <contour>
      <point x="68" y="305" type="curve"/>
      <point x="68" y="305"/>
      <point x="360" y="305"/>
      <point x="360" y="305" type="curve"/>
      <point x="360" y="305"/>
      <point x="360" y="335"/>
      <point x="360" y="335" type="curve"/>
      <point x="360" y="335"/>
      <point x="265" y="354"/>
      <point x="265" y="354" type="curve"/>
      <point x="265" y="354"/>
      <point x="167" y="354"/>
      <point x="167" y="354" type="curve"/>
      <point x="167" y="354"/>
      <point x="68" y="335"/>
      <point x="68" y="335" type="curve"/>
      <point x="68" y="335"/>
      <point x="68" y="305"/>
    </contour>
    <contour>
      <point x="157" y="305" type="curve"/>
      <point x="157" y="305"/>
      <point x="274" y="305"/>
      <point x="274" y="305" type="curve"/>
      <point x="274" y="305"/>
      <point x="274" y="748"/>
      <point x="274" y="748" type="curve"/>
      <point x="274" y="748"/>
      <point x="264" y="756"/>
      <point x="264" y="756" type="curve"/>
      <point x="264" y="756"/>
      <point x="78" y="710"/>
      <point x="78" y="710" type="curve"/>
      <point x="78" y="710"/>
      <point x="78" y="673"/>
      <point x="78" y="673" type="curve"/>
      <point x="78" y="673"/>
      <point x="157" y="682"/>
      <point x="157" y="682" type="curve"/>
      <point x="157" y="682"/>
      <point x="157" y="305"/>
    </contour>
    <contour>
      <point x="270" y="-25" type="curve"/>
      <point x="270" y="-25"/>
      <point x="771" y="713"/>
      <point x="771" y="713" type="curve"/>
      <point x="771" y="713"/>
      <point x="721" y="747"/>
      <point x="721" y="747" type="curve"/>
      <point x="721" y="747"/>
      <point x="220" y="9"/>
      <point x="220" y="9" type="curve"/>
      <point x="220" y="9"/>
      <point x="270" y="-25"/>
    </contour>
    <contour>
      <point x="623" y="10" type="curve"/>
      <point x="623" y="10"/>
      <point x="948" y="10"/>
      <point x="948" y="10" type="curve"/>
      <point x="948" y="10"/>
      <point x="948" y="104"/>
      <point x="948" y="104" type="curve"/>
      <point x="948" y="104"/>
      <point x="700" y="104"/>
      <point x="700" y="104" type="curve"/>
      <point x="700" y="104"/>
      <point x="700" y="118"/>
      <point x="700" y="118" type="curve"/>
      <point x="700" y="118"/>
      <point x="675" y="79"/>
      <point x="675" y="79" type="curve"/>
      <point x="675" y="79"/>
      <point x="763" y="139"/>
      <point x="763" y="139" type="curve"/>
      <point x="880" y="216"/>
      <point x="940" y="269"/>
      <point x="940" y="340" type="curve" smooth="yes"/>
      <point x="940" y="408"/>
      <point x="895" y="462"/>
      <point x="791" y="462" type="curve" smooth="yes"/>
      <point x="697" y="462"/>
      <point x="623" y="426"/>
      <point x="619" y="347" type="curve"/>
      <point x="627" y="328"/>
      <point x="646" y="318"/>
      <point x="665" y="318" type="curve" smooth="yes"/>
      <point x="689" y="318"/>
      <point x="710" y="329"/>
      <point x="718" y="377" type="curve"/>
      <point x="718" y="377"/>
      <point x="730" y="445"/>
      <point x="730" y="445" type="curve"/>
      <point x="730" y="445"/>
      <point x="679" y="415"/>
      <point x="679" y="415" type="curve"/>
      <point x="706" y="428"/>
      <point x="726" y="430"/>
      <point x="747" y="430" type="curve" smooth="yes"/>
      <point x="792" y="430"/>
      <point x="821" y="400"/>
      <point x="821" y="340" type="curve" smooth="yes"/>
      <point x="821" y="275"/>
      <point x="784" y="226"/>
      <point x="717" y="161" type="curve"/>
      <point x="717" y="161"/>
      <point x="623" y="69"/>
      <point x="623" y="69" type="curve"/>
      <point x="623" y="69"/>
      <point x="623" y="10"/>
    </contour>
  </outline>
</glyph>
<glyph name="cid41318" format="2">
  <advance height="1000" width="954"/>
  <unicode hex="00BE"/>
  <outline>
    <contour>
      <point x="190" y="293" type="curve" smooth="yes"/>
      <point x="307" y="293"/>
      <point x="376" y="344"/>
      <point x="376" y="421" type="curve" smooth="yes"/>
      <point x="376" y="494"/>
      <point x="326" y="534"/>
      <point x="216" y="540" type="curve"/>
      <point x="216" y="540"/>
      <point x="217" y="531"/>
      <point x="217" y="531" type="curve"/>
      <point x="314" y="539"/>
      <point x="361" y="587"/>
      <point x="361" y="645" type="curve" smooth="yes"/>
      <point x="361" y="709"/>
      <point x="309" y="757"/>
      <point x="203" y="757" type="curve" smooth="yes"/>
      <point x="122" y="757"/>
      <point x="58" y="722"/>
      <point x="55" y="648" type="curve"/>
      <point x="64" y="633"/>
      <point x="80" y="624"/>
      <point x="96" y="624" type="curve" smooth="yes"/>
      <point x="121" y="624"/>
      <point x="143" y="636"/>
      <point x="149" y="675" type="curve"/>
      <point x="149" y="675"/>
      <point x="160" y="739"/>
      <point x="160" y="739" type="curve"/>
      <point x="160" y="739"/>
      <point x="120" y="716"/>
      <point x="120" y="716" type="curve"/>
      <point x="141" y="722"/>
      <point x="158" y="725"/>
      <point x="172" y="725" type="curve" smooth="yes"/>
      <point x="220" y="725"/>
      <point x="246" y="693"/>
      <point x="246" y="641" type="curve" smooth="yes"/>
      <point x="246" y="580"/>
      <point x="218" y="551"/>
      <point x="157" y="551" type="curve"/>
      <point x="157" y="551"/>
      <point x="137" y="551"/>
      <point x="137" y="551" type="curve"/>
      <point x="137" y="551"/>
      <point x="137" y="514"/>
      <point x="137" y="514" type="curve"/>
      <point x="137" y="514"/>
      <point x="161" y="514"/>
      <point x="161" y="514" type="curve"/>
      <point x="226" y="514"/>
      <point x="255" y="479"/>
      <point x="255" y="424" type="curve" smooth="yes"/>
      <point x="255" y="362"/>
      <point x="222" y="325"/>
      <point x="158" y="325" type="curve" smooth="yes"/>
      <point x="139" y="325"/>
      <point x="125" y="328"/>
      <point x="108" y="336" type="curve"/>
      <point x="108" y="336"/>
      <point x="142" y="309"/>
      <point x="142" y="309" type="curve"/>
      <point x="142" y="309"/>
      <point x="132" y="378"/>
      <point x="132" y="378" type="curve"/>
      <point x="125" y="426"/>
      <point x="108" y="438"/>
      <point x="80" y="438" type="curve" smooth="yes"/>
      <point x="63" y="438"/>
      <point x="44" y="430"/>
      <point x="36" y="406" type="curve"/>
      <point x="40" y="335"/>
      <point x="93" y="293"/>
    </contour>
    <contour>
      <point x="270" y="-25" type="curve"/>
      <point x="270" y="-25"/>
      <point x="771" y="713"/>
      <point x="771" y="713" type="curve"/>
      <point x="771" y="713"/>
      <point x="721" y="747"/>
      <point x="721" y="747" type="curve"/>
      <point x="721" y="747"/>
      <point x="220" y="9"/>
      <point x="220" y="9" type="curve"/>
      <point x="220" y="9"/>
      <point x="270" y="-25"/>
    </contour>
    <contour>
      <point x="755" y="10" type="curve"/>
      <point x="755" y="10"/>
      <point x="862" y="10"/>
      <point x="862" y="10" type="curve"/>
      <point x="862" y="10"/>
      <point x="862" y="454"/>
      <point x="862" y="454" type="curve"/>
      <point x="862" y="454"/>
      <point x="777" y="454"/>
      <point x="777" y="454" type="curve"/>
      <point x="777" y="454"/>
      <point x="569" y="175"/>
      <point x="569" y="175" type="curve"/>
      <point x="569" y="175"/>
      <point x="569" y="107"/>
      <point x="569" y="107" type="curve"/>
      <point x="569" y="107"/>
      <point x="926" y="107"/>
      <point x="926" y="107" type="curve"/>
      <point x="926" y="107"/>
      <point x="926" y="189"/>
      <point x="926" y="189" type="curve"/>
      <point x="926" y="189"/>
      <point x="618" y="189"/>
      <point x="618" y="189" type="curve"/>
      <point x="618" y="189"/>
      <point x="618" y="205"/>
      <point x="618" y="205" type="curve"/>
      <point x="618" y="205"/>
      <point x="608" y="168"/>
      <point x="608" y="168" type="curve"/>
      <point x="608" y="168"/>
      <point x="702" y="294"/>
      <point x="702" y="294" type="curve"/>
      <point x="702" y="294"/>
      <point x="795" y="421"/>
      <point x="795" y="421" type="curve"/>
      <point x="795" y="421"/>
      <point x="744" y="381"/>
      <point x="744" y="381" type="curve"/>
      <point x="744" y="381"/>
      <point x="755" y="381"/>
      <point x="755" y="381" type="curve"/>
      <point x="755" y="381"/>
      <point x="755" y="163"/>
      <point x="755" y="163" type="curve"/>
      <point x="755" y="163"/>
      <point x="755" y="137"/>
      <point x="755" y="137" type="curve"/>
      <point x="755" y="137"/>
      <point x="755" y="10"/>
    </contour>
  </outline>
</glyph>
<glyph name="cid40896" format="2">
  <advance height="1000" width="480"/>
  <unicode hex="00BF"/>
  <outline>
    <contour>
      <point x="299" y="560" type="curve" smooth="yes"/>
      <point x="244" y="560"/>
      <point x="200" y="517"/>
      <point x="200" y="464" type="curve" smooth="yes"/>
      <point x="200" y="409"/>
      <point x="244" y="366"/>
      <point x="299" y="366" type="curve" smooth="yes"/>
      <point x="354" y="366"/>
      <point x="398" y="409"/>
      <point x="398" y="464" type="curve" smooth="yes"/>
      <point x="398" y="517"/>
      <point x="354" y="560"/>
    </contour>
    <contour>
      <point x="56" y="48" type="curve" smooth="yes"/>
      <point x="56" y="-68"/>
      <point x="200" y="-185"/>
      <point x="333" y="-212" type="curve"/>
      <point x="384" y="-197"/>
      <point x="409" y="-173"/>
      <point x="409" y="-133" type="curve" smooth="yes"/>
      <point x="409" y="-94"/>
      <point x="389" y="-68"/>
      <point x="310" y="-56" type="curve"/>
      <point x="310" y="-56"/>
      <point x="115" y="-27"/>
      <point x="115" y="-27" type="curve"/>
      <point x="115" y="-27"/>
      <point x="186" y="-85"/>
      <point x="186" y="-85" type="curve"/>
      <point x="155" y="-46"/>
      <point x="137" y="-17"/>
      <point x="137" y="11" type="curve" smooth="yes"/>
      <point x="137" y="39"/>
      <point x="157" y="53"/>
      <point x="196" y="63" type="curve"/>
      <point x="196" y="63"/>
      <point x="278" y="83"/>
      <point x="278" y="83" type="curve"/>
      <point x="339" y="98"/>
      <point x="365" y="120"/>
      <point x="365" y="160" type="curve" smooth="yes"/>
      <point x="365" y="185"/>
      <point x="358" y="212"/>
      <point x="345" y="252" type="curve"/>
      <point x="345" y="252"/>
      <point x="332" y="292"/>
      <point x="332" y="292" type="curve"/>
      <point x="332" y="292"/>
      <point x="276" y="292"/>
      <point x="276" y="292" type="curve"/>
      <point x="276" y="292"/>
      <point x="274" y="258"/>
      <point x="274" y="258" type="curve"/>
      <point x="272" y="227"/>
      <point x="264" y="218"/>
      <point x="224" y="207" type="curve"/>
      <point x="224" y="207"/>
      <point x="176" y="193"/>
      <point x="176" y="193" type="curve"/>
      <point x="93" y="168"/>
      <point x="56" y="126"/>
    </contour>
  </outline>
</glyph>
<glyph name="cid40105" format="2">
  <advance height="1000" width="738"/>
  <unicode hex="00C0"/>
  <outline>
    <contour>
      <point x="11" y="10" type="line"/>
      <point x="236" y="10" type="line"/>
      <point x="236" y="59" type="line"/>
      <point x="136" y="75" type="line"/>
      <point x="115" y="75" type="line"/>
      <point x="11" y="59" type="line"/>
    </contour>
    <contour>
      <point x="74" y="10" type="line"/>
      <point x="131" y="10" type="line"/>
      <point x="317" y="594" type="line"/>
      <point x="323" y="609" type="line"/>
      <point x="302" y="609" type="line"/>
      <point x="489" y="10" type="line"/>
      <point x="674" y="10" type="line"/>
      <point x="428" y="748" type="line"/>
      <point x="321" y="748" type="line"/>
    </contour>
    <contour>
      <point x="184" y="233" type="line"/>
      <point x="507" y="233" type="line"/>
      <point x="507" y="288" type="line"/>
      <point x="184" y="288" type="line"/>
    </contour>
    <contour>
      <point x="386" y="10" type="line"/>
      <point x="724" y="10" type="line"/>
      <point x="724" y="58" type="line"/>
      <point x="595" y="75" type="line"/>
      <point x="512" y="75" type="line"/>
      <point x="386" y="58" type="line"/>
    </contour>
    <contour>
      <point x="467" y="828" type="line"/>
      <point x="429" y="867"/>
      <point x="390" y="905"/>
      <point x="346" y="947" type="curve" smooth="yes"/>
      <point x="311" y="981"/>
      <point x="291" y="991"/>
      <point x="265" y="991" type="curve" smooth="yes"/>
      <point x="231" y="991"/>
      <point x="207" y="963"/>
      <point x="207" y="935" type="curve" smooth="yes"/>
      <point x="207" y="914"/>
      <point x="218" y="887"/>
      <point x="270" y="863" type="curve" smooth="yes"/>
      <point x="325" y="839"/>
      <point x="381" y="816"/>
      <point x="441" y="791" type="curve"/>
    </contour>
  </outline>
</glyph>
<glyph name="cid40107" format="2">
  <advance height="1000" width="738"/>
  <unicode hex="00C1"/>
  <outline>
    <contour>
      <point x="11" y="10" type="curve"/>
      <point x="11" y="10"/>
      <point x="236" y="10"/>
      <point x="236" y="10" type="curve"/>
      <point x="236" y="10"/>
      <point x="236" y="59"/>
      <point x="236" y="59" type="curve"/>
      <point x="236" y="59"/>
      <point x="136" y="75"/>
      <point x="136" y="75" type="curve"/>
      <point x="136" y="75"/>
      <point x="115" y="75"/>
      <point x="115" y="75" type="curve"/>
      <point x="115" y="75"/>
      <point x="11" y="59"/>
      <point x="11" y="59" type="curve"/>
      <point x="11" y="59"/>
      <point x="11" y="10"/>
    </contour>
    <contour>
      <point x="74" y="10" type="curve"/>
      <point x="74" y="10"/>
      <point x="131" y="10"/>
      <point x="131" y="10" type="curve"/>
      <point x="131" y="10"/>
      <point x="317" y="594"/>
      <point x="317" y="594" type="curve"/>
      <point x="317" y="594"/>
      <point x="323" y="609"/>
      <point x="323" y="609" type="curve"/>
      <point x="323" y="609"/>
      <point x="302" y="609"/>
      <point x="302" y="609" type="curve"/>
      <point x="302" y="609"/>
      <point x="489" y="10"/>
      <point x="489" y="10" type="curve"/>
      <point x="489" y="10"/>
      <point x="674" y="10"/>
      <point x="674" y="10" type="curve"/>
      <point x="674" y="10"/>
      <point x="428" y="748"/>
      <point x="428" y="748" type="curve"/>
      <point x="428" y="748"/>
      <point x="321" y="748"/>
      <point x="321" y="748" type="curve"/>
      <point x="321" y="748"/>
      <point x="74" y="10"/>
    </contour>
    <contour>
      <point x="184" y="233" type="curve"/>
      <point x="184" y="233"/>
      <point x="507" y="233"/>
      <point x="507" y="233" type="curve"/>
      <point x="507" y="233"/>
      <point x="507" y="288"/>
      <point x="507" y="288" type="curve"/>
      <point x="507" y="288"/>
      <point x="184" y="288"/>
      <point x="184" y="288" type="curve"/>
      <point x="184" y="288"/>
      <point x="184" y="233"/>
    </contour>
    <contour>
      <point x="386" y="10" type="curve"/>
      <point x="386" y="10"/>
      <point x="724" y="10"/>
      <point x="724" y="10" type="curve"/>
      <point x="724" y="10"/>
      <point x="724" y="58"/>
      <point x="724" y="58" type="curve"/>
      <point x="724" y="58"/>
      <point x="595" y="75"/>
      <point x="595" y="75" type="curve"/>
      <point x="595" y="75"/>
      <point x="512" y="75"/>
      <point x="512" y="75" type="curve"/>
      <point x="512" y="75"/>
      <point x="386" y="58"/>
      <point x="386" y="58" type="curve"/>
      <point x="386" y="58"/>
      <point x="386" y="10"/>
    </contour>
    <contour>
      <point x="277" y="828" type="curve"/>
      <point x="277" y="828"/>
      <point x="302" y="791"/>
      <point x="302" y="791" type="curve"/>
      <point x="364" y="818"/>
      <point x="420" y="840"/>
      <point x="475" y="865" type="curve" smooth="yes"/>
      <point x="525" y="888"/>
      <point x="536" y="914"/>
      <point x="536" y="935" type="curve" smooth="yes"/>
      <point x="536" y="963"/>
      <point x="513" y="991"/>
      <point x="478" y="991" type="curve" smooth="yes"/>
      <point x="452" y="991"/>
      <point x="432" y="981"/>
      <point x="398" y="946" type="curve"/>
      <point x="353" y="905"/>
      <point x="315" y="867"/>
    </contour>
  </outline>
</glyph>
<glyph name="cid40108" format="2">
  <advance height="1000" width="738"/>
  <unicode hex="00C2"/>
  <outline>
    <contour>
      <point x="11" y="10" type="curve"/>
      <point x="11" y="10"/>
      <point x="236" y="10"/>
      <point x="236" y="10" type="curve"/>
      <point x="236" y="10"/>
      <point x="236" y="59"/>
      <point x="236" y="59" type="curve"/>
      <point x="236" y="59"/>
      <point x="136" y="75"/>
      <point x="136" y="75" type="curve"/>
      <point x="136" y="75"/>
      <point x="115" y="75"/>
      <point x="115" y="75" type="curve"/>
      <point x="115" y="75"/>
      <point x="11" y="59"/>
      <point x="11" y="59" type="curve"/>
      <point x="11" y="59"/>
      <point x="11" y="10"/>
    </contour>
    <contour>
      <point x="74" y="10" type="curve"/>
      <point x="74" y="10"/>
      <point x="131" y="10"/>
      <point x="131" y="10" type="curve"/>
      <point x="131" y="10"/>
      <point x="317" y="594"/>
      <point x="317" y="594" type="curve"/>
      <point x="317" y="594"/>
      <point x="323" y="609"/>
      <point x="323" y="609" type="curve"/>
      <point x="323" y="609"/>
      <point x="302" y="609"/>
      <point x="302" y="609" type="curve"/>
      <point x="302" y="609"/>
      <point x="489" y="10"/>
      <point x="489" y="10" type="curve"/>
      <point x="489" y="10"/>
      <point x="674" y="10"/>
      <point x="674" y="10" type="curve"/>
      <point x="674" y="10"/>
      <point x="428" y="748"/>
      <point x="428" y="748" type="curve"/>
      <point x="428" y="748"/>
      <point x="321" y="748"/>
      <point x="321" y="748" type="curve"/>
      <point x="321" y="748"/>
      <point x="74" y="10"/>
    </contour>
    <contour>
      <point x="184" y="233" type="curve"/>
      <point x="184" y="233"/>
      <point x="507" y="233"/>
      <point x="507" y="233" type="curve"/>
      <point x="507" y="233"/>
      <point x="507" y="288"/>
      <point x="507" y="288" type="curve"/>
      <point x="507" y="288"/>
      <point x="184" y="288"/>
      <point x="184" y="288" type="curve"/>
      <point x="184" y="288"/>
      <point x="184" y="233"/>
    </contour>
    <contour>
      <point x="386" y="10" type="curve"/>
      <point x="386" y="10"/>
      <point x="724" y="10"/>
      <point x="724" y="10" type="curve"/>
      <point x="724" y="10"/>
      <point x="724" y="58"/>
      <point x="724" y="58" type="curve"/>
      <point x="724" y="58"/>
      <point x="595" y="75"/>
      <point x="595" y="75" type="curve"/>
      <point x="595" y="75"/>
      <point x="512" y="75"/>
      <point x="512" y="75" type="curve"/>
      <point x="512" y="75"/>
      <point x="386" y="58"/>
      <point x="386" y="58" type="curve"/>
      <point x="386" y="58"/>
      <point x="386" y="10"/>
    </contour>
    <contour>
      <point x="409" y="984" type="curve"/>
      <point x="409" y="984"/>
      <point x="335" y="984"/>
      <point x="335" y="984" type="curve"/>
      <point x="335" y="984"/>
      <point x="174" y="818"/>
      <point x="174" y="818" type="curve"/>
      <point x="174" y="818"/>
      <point x="202" y="784"/>
      <point x="202" y="784" type="curve"/>
      <point x="202" y="784"/>
      <point x="414" y="902"/>
      <point x="414" y="902" type="curve"/>
      <point x="414" y="902"/>
      <point x="329" y="902"/>
      <point x="329" y="902" type="curve"/>
      <point x="329" y="902"/>
      <point x="542" y="784"/>
      <point x="542" y="784" type="curve"/>
      <point x="542" y="784"/>
      <point x="570" y="818"/>
      <point x="570" y="818" type="curve"/>
      <point x="570" y="818"/>
      <point x="409" y="984"/>
    </contour>
  </outline>
</glyph>
<glyph name="cid40110" format="2">
  <advance height="1000" width="738"/>
  <unicode hex="00C3"/>
  <outline>
    <contour>
      <point x="11" y="10" type="line"/>
      <point x="236" y="10" type="line"/>
      <point x="236" y="59" type="line"/>
      <point x="136" y="75" type="line"/>
      <point x="115" y="75" type="line"/>
      <point x="11" y="59" type="line"/>
    </contour>
    <contour>
      <point x="74" y="10" type="line"/>
      <point x="131" y="10" type="line"/>
      <point x="317" y="594" type="line"/>
      <point x="323" y="609" type="line"/>
      <point x="302" y="609" type="line"/>
      <point x="489" y="10" type="line"/>
      <point x="674" y="10" type="line"/>
      <point x="428" y="748" type="line"/>
      <point x="321" y="748" type="line"/>
    </contour>
    <contour>
      <point x="184" y="233" type="line"/>
      <point x="507" y="233" type="line"/>
      <point x="507" y="288" type="line"/>
      <point x="184" y="288" type="line"/>
    </contour>
    <contour>
      <point x="386" y="10" type="line"/>
      <point x="724" y="10" type="line"/>
      <point x="724" y="58" type="line"/>
      <point x="595" y="75" type="line"/>
      <point x="512" y="75" type="line"/>
      <point x="386" y="58" type="line"/>
    </contour>
    <contour>
      <point x="175" y="815" type="curve"/>
      <point x="215" y="800" type="line"/>
      <point x="230" y="840"/>
      <point x="253" y="866"/>
      <point x="286" y="866" type="curve" smooth="yes"/>
      <point x="314" y="866"/>
      <point x="337" y="846"/>
      <point x="362" y="830" type="curve" smooth="yes"/>
      <point x="385" y="814"/>
      <point x="413" y="798"/>
      <point x="448" y="798" type="curve" smooth="yes"/>
      <point x="510" y="798"/>
      <point x="557" y="856"/>
      <point x="570" y="952" type="curve"/>
      <point x="530" y="969" type="line"/>
      <point x="514" y="928"/>
      <point x="491" y="902"/>
      <point x="458" y="902" type="curve" smooth="yes"/>
      <point x="430" y="902"/>
      <point x="407" y="921"/>
      <point x="383" y="937" type="curve" smooth="yes"/>
      <point x="360" y="953"/>
      <point x="333" y="969"/>
      <point x="298" y="969" type="curve" smooth="yes"/>
      <point x="235" y="969"/>
      <point x="187" y="914"/>
    </contour>
  </outline>
</glyph>
<glyph name="cid40112" format="2">
  <advance height="1000" width="738"/>
  <unicode hex="00C4"/>
  <outline>
    <contour>
      <point x="11" y="10" type="line"/>
      <point x="236" y="10" type="line"/>
      <point x="236" y="59" type="line"/>
      <point x="136" y="75" type="line"/>
      <point x="115" y="75" type="line"/>
      <point x="11" y="59" type="line"/>
    </contour>
    <contour>
      <point x="74" y="10" type="line"/>
      <point x="131" y="10" type="line"/>
      <point x="317" y="594" type="line"/>
      <point x="323" y="609" type="line"/>
      <point x="302" y="609" type="line"/>
      <point x="489" y="10" type="line"/>
      <point x="674" y="10" type="line"/>
      <point x="428" y="748" type="line"/>
      <point x="321" y="748" type="line"/>
    </contour>
    <contour>
      <point x="184" y="233" type="line"/>
      <point x="507" y="233" type="line"/>
      <point x="507" y="288" type="line"/>
      <point x="184" y="288" type="line"/>
    </contour>
    <contour>
      <point x="386" y="10" type="line"/>
      <point x="724" y="10" type="line"/>
      <point x="724" y="58" type="line"/>
      <point x="595" y="75" type="line"/>
      <point x="512" y="75" type="line"/>
      <point x="386" y="58" type="line"/>
    </contour>
    <contour>
      <point x="236" y="811" type="curve" smooth="yes"/>
      <point x="279" y="811"/>
      <point x="315" y="839"/>
      <point x="315" y="885" type="curve" smooth="yes"/>
      <point x="315" y="932"/>
      <point x="279" y="959"/>
      <point x="236" y="959" type="curve" smooth="yes"/>
      <point x="196" y="959"/>
      <point x="159" y="932"/>
      <point x="159" y="885" type="curve" smooth="yes"/>
      <point x="159" y="839"/>
      <point x="196" y="811"/>
    </contour>
    <contour>
      <point x="506" y="811" type="curve" smooth="yes"/>
      <point x="549" y="811"/>
      <point x="585" y="839"/>
      <point x="585" y="885" type="curve" smooth="yes"/>
      <point x="585" y="932"/>
      <point x="549" y="959"/>
      <point x="506" y="959" type="curve" smooth="yes"/>
      <point x="466" y="959"/>
      <point x="429" y="932"/>
      <point x="429" y="885" type="curve" smooth="yes"/>
      <point x="429" y="839"/>
      <point x="466" y="811"/>
    </contour>
  </outline>
</glyph>
<glyph name="cid40135" format="2">
  <advance height="1000" width="738"/>
  <unicode hex="00C5"/>
  <outline>
    <contour>
      <point x="11" y="10" type="curve"/>
      <point x="11" y="10"/>
      <point x="236" y="10"/>
      <point x="236" y="10" type="curve"/>
      <point x="236" y="10"/>
      <point x="236" y="59"/>
      <point x="236" y="59" type="curve"/>
      <point x="236" y="59"/>
      <point x="136" y="75"/>
      <point x="136" y="75" type="curve"/>
      <point x="136" y="75"/>
      <point x="115" y="75"/>
      <point x="115" y="75" type="curve"/>
      <point x="115" y="75"/>
      <point x="11" y="59"/>
      <point x="11" y="59" type="curve"/>
      <point x="11" y="59"/>
      <point x="11" y="10"/>
    </contour>
    <contour>
      <point x="74" y="10" type="curve"/>
      <point x="74" y="10"/>
      <point x="131" y="10"/>
      <point x="131" y="10" type="curve"/>
      <point x="131" y="10"/>
      <point x="317" y="594"/>
      <point x="317" y="594" type="curve"/>
      <point x="317" y="594"/>
      <point x="323" y="609"/>
      <point x="323" y="609" type="curve"/>
      <point x="323" y="609"/>
      <point x="302" y="609"/>
      <point x="302" y="609" type="curve"/>
      <point x="302" y="609"/>
      <point x="489" y="10"/>
      <point x="489" y="10" type="curve"/>
      <point x="489" y="10"/>
      <point x="674" y="10"/>
      <point x="674" y="10" type="curve"/>
      <point x="674" y="10"/>
      <point x="428" y="748"/>
      <point x="428" y="748" type="curve"/>
      <point x="428" y="748"/>
      <point x="321" y="748"/>
      <point x="321" y="748" type="curve"/>
      <point x="321" y="748"/>
      <point x="74" y="10"/>
    </contour>
    <contour>
      <point x="184" y="233" type="curve"/>
      <point x="184" y="233"/>
      <point x="507" y="233"/>
      <point x="507" y="233" type="curve"/>
      <point x="507" y="233"/>
      <point x="507" y="288"/>
      <point x="507" y="288" type="curve"/>
      <point x="507" y="288"/>
      <point x="184" y="288"/>
      <point x="184" y="288" type="curve"/>
      <point x="184" y="288"/>
      <point x="184" y="233"/>
    </contour>
    <contour>
      <point x="386" y="10" type="curve"/>
      <point x="386" y="10"/>
      <point x="724" y="10"/>
      <point x="724" y="10" type="curve"/>
      <point x="724" y="10"/>
      <point x="724" y="58"/>
      <point x="724" y="58" type="curve"/>
      <point x="724" y="58"/>
      <point x="595" y="75"/>
      <point x="595" y="75" type="curve"/>
      <point x="595" y="75"/>
      <point x="512" y="75"/>
      <point x="512" y="75" type="curve"/>
      <point x="512" y="75"/>
      <point x="386" y="58"/>
      <point x="386" y="58" type="curve"/>
      <point x="386" y="58"/>
      <point x="386" y="10"/>
    </contour>
    <contour>
      <point x="372" y="796" type="curve" smooth="yes"/>
      <point x="433" y="796"/>
      <point x="486" y="838"/>
      <point x="486" y="906" type="curve" smooth="yes"/>
      <point x="486" y="975"/>
      <point x="433" y="1016"/>
      <point x="372" y="1016" type="curve" smooth="yes"/>
      <point x="310" y="1016"/>
      <point x="258" y="973"/>
      <point x="258" y="906" type="curve" smooth="yes"/>
      <point x="258" y="838"/>
      <point x="310" y="796"/>
    </contour>
    <contour>
      <point x="372" y="842" type="curve" smooth="yes"/>
      <point x="334" y="842"/>
      <point x="310" y="870"/>
      <point x="310" y="906" type="curve" smooth="yes"/>
      <point x="310" y="942"/>
      <point x="334" y="970"/>
      <point x="372" y="970" type="curve" smooth="yes"/>
      <point x="410" y="970"/>
      <point x="433" y="942"/>
      <point x="433" y="906" type="curve" smooth="yes"/>
      <point x="433" y="870"/>
      <point x="410" y="842"/>
    </contour>
  </outline>
</glyph>
<glyph name="cid40138" format="2">
  <advance height="1000" width="978"/>
  <unicode hex="00C6"/>
  <outline>
    <contour>
      <point x="449" y="10" type="curve"/>
      <point x="634" y="10" type="line"/>
      <point x="631" y="118"/>
      <point x="631" y="242"/>
      <point x="631" y="361" type="curve" smooth="yes"/>
      <point x="631" y="401" type="line" smooth="yes"/>
      <point x="631" y="517"/>
      <point x="631" y="641"/>
      <point x="634" y="746" type="curve"/>
      <point x="452" y="746" type="line"/>
      <point x="452" y="339" type="line" smooth="yes"/>
      <point x="452" y="231"/>
      <point x="452" y="111"/>
    </contour>
    <contour>
      <point x="11" y="10" type="line"/>
      <point x="237" y="10" type="line"/>
      <point x="237" y="59" type="line"/>
      <point x="138" y="75" type="line"/>
      <point x="118" y="75" type="line"/>
      <point x="11" y="59" type="line"/>
    </contour>
    <contour>
      <point x="771" y="266" type="line"/>
      <point x="823" y="266" type="line"/>
      <point x="823" y="511" type="line"/>
      <point x="771" y="511" type="line"/>
      <point x="747" y="401" type="line"/>
      <point x="747" y="381" type="line"/>
    </contour>
    <contour>
      <point x="856" y="552" type="line"/>
      <point x="928" y="552" type="line"/>
      <point x="918" y="746" type="line"/>
      <point x="536" y="746" type="line"/>
      <point x="536" y="693" type="line"/>
      <point x="816" y="693" type="line"/>
    </contour>
    <contour>
      <point x="542" y="10" type="line"/>
      <point x="940" y="10" type="line"/>
      <point x="950" y="208" type="line"/>
      <point x="877" y="208" type="line"/>
      <point x="838" y="63" type="line"/>
      <point x="542" y="63" type="line"/>
    </contour>
    <contour>
      <point x="282" y="697" type="line"/>
      <point x="420" y="680" type="line"/>
      <point x="538" y="680" type="line"/>
      <point x="538" y="746" type="line"/>
      <point x="282" y="746" type="line"/>
    </contour>
    <contour>
      <point x="370" y="10" type="line"/>
      <point x="553" y="10" type="line"/>
      <point x="553" y="76" type="line"/>
      <point x="517" y="76" type="line"/>
      <point x="370" y="59" type="line"/>
    </contour>
    <contour>
      <point x="54" y="10" type="line"/>
      <point x="120" y="10" type="line"/>
      <point x="256" y="294" type="line"/>
      <point x="473" y="746" type="line"/>
      <point x="411" y="746" type="line"/>
    </contour>
    <contour>
      <point x="217" y="259" type="line"/>
      <point x="538" y="259" type="line"/>
      <point x="538" y="314" type="line"/>
      <point x="217" y="314" type="line"/>
    </contour>
    <contour>
      <point x="543" y="361" type="line"/>
      <point x="776" y="361" type="line"/>
      <point x="776" y="417" type="line"/>
      <point x="543" y="417" type="line"/>
    </contour>
  </outline>
</glyph>
<glyph name="cid40140" format="2">
  <advance height="1000" width="678"/>
  <unicode hex="00C7"/>
  <outline>
    <contour>
      <point x="416" y="-10" type="curve" smooth="yes"/>
      <point x="502" y="-10"/>
      <point x="578" y="11"/>
      <point x="635" y="44" type="curve"/>
      <point x="642" y="221" type="line"/>
      <point x="575" y="221" type="line"/>
      <point x="522" y="37" type="line"/>
      <point x="594" y="55" type="line"/>
      <point x="595" y="103" type="line"/>
      <point x="544" y="64"/>
      <point x="491" y="44"/>
      <point x="438" y="44" type="curve" smooth="yes"/>
      <point x="324" y="44"/>
      <point x="227" y="142"/>
      <point x="227" y="377" type="curve" smooth="yes"/>
      <point x="227" y="613"/>
      <point x="328" y="713"/>
      <point x="442" y="713" type="curve" smooth="yes"/>
      <point x="491" y="713"/>
      <point x="538" y="695"/>
      <point x="588" y="652" type="curve"/>
      <point x="587" y="702" type="line"/>
      <point x="515" y="720" type="line"/>
      <point x="569" y="539" type="line"/>
      <point x="635" y="539" type="line"/>
      <point x="628" y="713" type="line"/>
      <point x="567" y="749"/>
      <point x="498" y="766"/>
      <point x="421" y="766" type="curve" smooth="yes"/>
      <point x="222" y="766"/>
      <point x="38" y="644"/>
      <point x="38" y="371" type="curve" smooth="yes"/>
      <point x="38" y="114"/>
      <point x="209" y="-10"/>
    </contour>
    <contour>
      <point x="374" y="-89" type="line"/>
      <point x="420" y="-94"/>
      <point x="446" y="-110"/>
      <point x="446" y="-142" type="curve" smooth="yes"/>
      <point x="446" y="-171"/>
      <point x="427" y="-188"/>
      <point x="383" y="-188" type="curve" smooth="yes"/>
      <point x="364" y="-188"/>
      <point x="347" y="-185"/>
      <point x="327" y="-179" type="curve"/>
      <point x="317" y="-225" type="line"/>
      <point x="340" y="-235"/>
      <point x="365" y="-241"/>
      <point x="401" y="-241" type="curve" smooth="yes"/>
      <point x="498" y="-241"/>
      <point x="545" y="-198"/>
      <point x="545" y="-142" type="curve" smooth="yes"/>
      <point x="545" y="-91"/>
      <point x="505" y="-52"/>
      <point x="400" y="-43" type="curve"/>
      <point x="431" y="-67" type="line"/>
      <point x="442" y="13" type="line"/>
      <point x="391" y="13" type="line"/>
    </contour>
  </outline>
</glyph>
<glyph name="cid40162" format="2">
  <advance height="1000" width="645"/>
  <unicode hex="00C9"/>
  <outline>
    <contour>
      <point x="35" y="10" type="line"/>
      <point x="220" y="10" type="line"/>
      <point x="220" y="76" type="line"/>
      <point x="184" y="76" type="line"/>
      <point x="35" y="59" type="line"/>
    </contour>
    <contour>
      <point x="115" y="10" type="curve"/>
      <point x="301" y="10" type="line"/>
      <point x="298" y="118"/>
      <point x="298" y="242"/>
      <point x="298" y="361" type="curve" smooth="yes"/>
      <point x="298" y="401" type="line" smooth="yes"/>
      <point x="298" y="517"/>
      <point x="298" y="641"/>
      <point x="301" y="746" type="curve"/>
      <point x="115" y="746" type="line"/>
      <point x="119" y="639"/>
      <point x="119" y="516"/>
      <point x="119" y="401" type="curve" smooth="yes"/>
      <point x="119" y="357" type="line" smooth="yes"/>
      <point x="119" y="240"/>
      <point x="119" y="115"/>
    </contour>
    <contour>
      <point x="209" y="10" type="line"/>
      <point x="607" y="10" type="line"/>
      <point x="616" y="208" type="line"/>
      <point x="543" y="208" type="line"/>
      <point x="498" y="35" type="line"/>
      <point x="538" y="63" type="line"/>
      <point x="209" y="63" type="line"/>
    </contour>
    <contour>
      <point x="209" y="361" type="line"/>
      <point x="442" y="361" type="line"/>
      <point x="442" y="417" type="line"/>
      <point x="209" y="417" type="line"/>
    </contour>
    <contour>
      <point x="437" y="266" type="line"/>
      <point x="489" y="266" type="line"/>
      <point x="489" y="511" type="line"/>
      <point x="437" y="511" type="line"/>
      <point x="413" y="401" type="line"/>
      <point x="413" y="381" type="line"/>
    </contour>
    <contour>
      <point x="35" y="697" type="line"/>
      <point x="184" y="680" type="line"/>
      <point x="220" y="680" type="line"/>
      <point x="220" y="746" type="line"/>
      <point x="35" y="746" type="line"/>
    </contour>
    <contour>
      <point x="523" y="552" type="line"/>
      <point x="595" y="552" type="line"/>
      <point x="586" y="746" type="line"/>
      <point x="203" y="746" type="line"/>
      <point x="203" y="693" type="line"/>
      <point x="516" y="693" type="line"/>
      <point x="477" y="721" type="line"/>
    </contour>
    <contour>
      <point x="261" y="828" type="curve"/>
      <point x="287" y="791" type="line"/>
      <point x="348" y="818"/>
      <point x="404" y="840"/>
      <point x="459" y="865" type="curve" smooth="yes"/>
      <point x="510" y="888"/>
      <point x="521" y="914"/>
      <point x="521" y="935" type="curve" smooth="yes"/>
      <point x="521" y="963"/>
      <point x="497" y="991"/>
      <point x="463" y="991" type="curve" smooth="yes"/>
      <point x="437" y="991"/>
      <point x="417" y="981"/>
      <point x="382" y="946" type="curve" smooth="yes"/>
      <point x="337" y="905"/>
      <point x="299" y="867"/>
    </contour>
  </outline>
</glyph>
<glyph name="cid40167" format="2">
  <advance height="1000" width="645"/>
  <unicode hex="00CB"/>
  <outline>
    <contour>
      <point x="35" y="10" type="curve"/>
      <point x="35" y="10"/>
      <point x="220" y="10"/>
      <point x="220" y="10" type="curve"/>
      <point x="220" y="10"/>
      <point x="220" y="76"/>
      <point x="220" y="76" type="curve"/>
      <point x="220" y="76"/>
      <point x="184" y="76"/>
      <point x="184" y="76" type="curve"/>
      <point x="184" y="76"/>
      <point x="35" y="59"/>
      <point x="35" y="59" type="curve"/>
      <point x="35" y="59"/>
      <point x="35" y="10"/>
    </contour>
    <contour>
      <point x="115" y="10" type="curve"/>
      <point x="115" y="10"/>
      <point x="301" y="10"/>
      <point x="301" y="10" type="curve"/>
      <point x="298" y="118"/>
      <point x="298" y="242"/>
      <point x="298" y="361" type="curve"/>
      <point x="298" y="361"/>
      <point x="298" y="401"/>
      <point x="298" y="401" type="curve"/>
      <point x="298" y="517"/>
      <point x="298" y="641"/>
      <point x="301" y="746" type="curve"/>
      <point x="301" y="746"/>
      <point x="115" y="746"/>
      <point x="115" y="746" type="curve"/>
      <point x="119" y="639"/>
      <point x="119" y="516"/>
      <point x="119" y="401" type="curve"/>
      <point x="119" y="401"/>
      <point x="119" y="357"/>
      <point x="119" y="357" type="curve"/>
      <point x="119" y="240"/>
      <point x="119" y="115"/>
    </contour>
    <contour>
      <point x="209" y="10" type="curve"/>
      <point x="209" y="10"/>
      <point x="607" y="10"/>
      <point x="607" y="10" type="curve"/>
      <point x="607" y="10"/>
      <point x="616" y="208"/>
      <point x="616" y="208" type="curve"/>
      <point x="616" y="208"/>
      <point x="543" y="208"/>
      <point x="543" y="208" type="curve"/>
      <point x="543" y="208"/>
      <point x="498" y="35"/>
      <point x="498" y="35" type="curve"/>
      <point x="498" y="35"/>
      <point x="538" y="63"/>
      <point x="538" y="63" type="curve"/>
      <point x="538" y="63"/>
      <point x="209" y="63"/>
      <point x="209" y="63" type="curve"/>
      <point x="209" y="63"/>
      <point x="209" y="10"/>
    </contour>
    <contour>
      <point x="209" y="361" type="curve"/>
      <point x="209" y="361"/>
      <point x="442" y="361"/>
      <point x="442" y="361" type="curve"/>
      <point x="442" y="361"/>
      <point x="442" y="417"/>
      <point x="442" y="417" type="curve"/>
      <point x="442" y="417"/>
      <point x="209" y="417"/>
      <point x="209" y="417" type="curve"/>
      <point x="209" y="417"/>
      <point x="209" y="361"/>
    </contour>
    <contour>
      <point x="437" y="266" type="curve"/>
      <point x="437" y="266"/>
      <point x="489" y="266"/>
      <point x="489" y="266" type="curve"/>
      <point x="489" y="266"/>
      <point x="489" y="511"/>
      <point x="489" y="511" type="curve"/>
      <point x="489" y="511"/>
      <point x="437" y="511"/>
      <point x="437" y="511" type="curve"/>
      <point x="437" y="511"/>
      <point x="413" y="401"/>
      <point x="413" y="401" type="curve"/>
      <point x="413" y="401"/>
      <point x="413" y="381"/>
      <point x="413" y="381" type="curve"/>
      <point x="413" y="381"/>
      <point x="437" y="266"/>
    </contour>
    <contour>
      <point x="35" y="697" type="curve"/>
      <point x="35" y="697"/>
      <point x="184" y="680"/>
      <point x="184" y="680" type="curve"/>
      <point x="184" y="680"/>
      <point x="220" y="680"/>
      <point x="220" y="680" type="curve"/>
      <point x="220" y="680"/>
      <point x="220" y="746"/>
      <point x="220" y="746" type="curve"/>
      <point x="220" y="746"/>
      <point x="35" y="746"/>
      <point x="35" y="746" type="curve"/>
      <point x="35" y="746"/>
      <point x="35" y="697"/>
    </contour>
    <contour>
      <point x="523" y="552" type="curve"/>
      <point x="523" y="552"/>
      <point x="595" y="552"/>
      <point x="595" y="552" type="curve"/>
      <point x="595" y="552"/>
      <point x="586" y="746"/>
      <point x="586" y="746" type="curve"/>
      <point x="586" y="746"/>
      <point x="203" y="746"/>
      <point x="203" y="746" type="curve"/>
      <point x="203" y="746"/>
      <point x="203" y="693"/>
      <point x="203" y="693" type="curve"/>
      <point x="203" y="693"/>
      <point x="516" y="693"/>
      <point x="516" y="693" type="curve"/>
      <point x="516" y="693"/>
      <point x="477" y="721"/>
      <point x="477" y="721" type="curve"/>
      <point x="477" y="721"/>
      <point x="523" y="552"/>
    </contour>
    <contour>
      <point x="221" y="811" type="curve" smooth="yes"/>
      <point x="263" y="811"/>
      <point x="299" y="839"/>
      <point x="299" y="885" type="curve" smooth="yes"/>
      <point x="299" y="932"/>
      <point x="263" y="959"/>
      <point x="221" y="959" type="curve" smooth="yes"/>
      <point x="180" y="959"/>
      <point x="143" y="932"/>
      <point x="143" y="885" type="curve" smooth="yes"/>
      <point x="143" y="839"/>
      <point x="180" y="811"/>
    </contour>
    <contour>
      <point x="491" y="811" type="curve" smooth="yes"/>
      <point x="533" y="811"/>
      <point x="569" y="839"/>
      <point x="569" y="885" type="curve" smooth="yes"/>
      <point x="569" y="932"/>
      <point x="533" y="959"/>
      <point x="491" y="959" type="curve" smooth="yes"/>
      <point x="450" y="959"/>
      <point x="413" y="932"/>
      <point x="413" y="885" type="curve" smooth="yes"/>
      <point x="413" y="839"/>
      <point x="450" y="811"/>
    </contour>
  </outline>
</glyph>
<glyph name="cid40207" format="2">
  <advance height="1000" width="417"/>
  <unicode hex="00CC"/>
  <outline>
    <contour>
      <point x="35" y="10" type="line"/>
      <point x="382" y="10" type="line"/>
      <point x="382" y="59" type="line"/>
      <point x="231" y="76" type="line"/>
      <point x="184" y="76" type="line"/>
      <point x="35" y="59" type="line"/>
    </contour>
    <contour>
      <point x="115" y="10" type="curve"/>
      <point x="301" y="10" type="line"/>
      <point x="298" y="118"/>
      <point x="298" y="242"/>
      <point x="298" y="358" type="curve" smooth="yes"/>
      <point x="298" y="401" type="line" smooth="yes"/>
      <point x="298" y="517"/>
      <point x="298" y="641"/>
      <point x="301" y="746" type="curve"/>
      <point x="115" y="746" type="line"/>
      <point x="119" y="639"/>
      <point x="119" y="516"/>
      <point x="119" y="401" type="curve" smooth="yes"/>
      <point x="119" y="357" type="line" smooth="yes"/>
      <point x="119" y="240"/>
      <point x="119" y="115"/>
    </contour>
    <contour>
      <point x="35" y="697" type="line"/>
      <point x="184" y="680" type="line"/>
      <point x="231" y="680" type="line"/>
      <point x="382" y="697" type="line"/>
      <point x="382" y="746" type="line"/>
      <point x="35" y="746" type="line"/>
    </contour>
    <contour>
      <point x="305" y="828" type="line"/>
      <point x="267" y="867"/>
      <point x="227" y="905"/>
      <point x="184" y="947" type="curve" smooth="yes"/>
      <point x="149" y="981"/>
      <point x="129" y="991"/>
      <point x="103" y="991" type="curve" smooth="yes"/>
      <point x="68" y="991"/>
      <point x="45" y="963"/>
      <point x="45" y="935" type="curve" smooth="yes"/>
      <point x="45" y="914"/>
      <point x="56" y="887"/>
      <point x="108" y="863" type="curve" smooth="yes"/>
      <point x="162" y="839"/>
      <point x="218" y="816"/>
      <point x="279" y="791" type="curve"/>
    </contour>
  </outline>
</glyph>
<glyph name="cid40208" format="2">
  <advance height="1000" width="417"/>
  <unicode hex="00CD"/>
  <outline>
    <contour>
      <point x="35" y="10" type="line"/>
      <point x="382" y="10" type="line"/>
      <point x="382" y="59" type="line"/>
      <point x="231" y="76" type="line"/>
      <point x="184" y="76" type="line"/>
      <point x="35" y="59" type="line"/>
    </contour>
    <contour>
      <point x="115" y="10" type="curve"/>
      <point x="301" y="10" type="line"/>
      <point x="298" y="118"/>
      <point x="298" y="242"/>
      <point x="298" y="358" type="curve" smooth="yes"/>
      <point x="298" y="401" type="line" smooth="yes"/>
      <point x="298" y="517"/>
      <point x="298" y="641"/>
      <point x="301" y="746" type="curve"/>
      <point x="115" y="746" type="line"/>
      <point x="119" y="639"/>
      <point x="119" y="516"/>
      <point x="119" y="401" type="curve" smooth="yes"/>
      <point x="119" y="357" type="line" smooth="yes"/>
      <point x="119" y="240"/>
      <point x="119" y="115"/>
    </contour>
    <contour>
      <point x="35" y="697" type="line"/>
      <point x="184" y="680" type="line"/>
      <point x="231" y="680" type="line"/>
      <point x="382" y="697" type="line"/>
      <point x="382" y="746" type="line"/>
      <point x="35" y="746" type="line"/>
    </contour>
    <contour>
      <point x="114" y="828" type="curve"/>
      <point x="140" y="791" type="line"/>
      <point x="202" y="818"/>
      <point x="258" y="840"/>
      <point x="312" y="865" type="curve" smooth="yes"/>
      <point x="363" y="888"/>
      <point x="374" y="914"/>
      <point x="374" y="935" type="curve" smooth="yes"/>
      <point x="374" y="963"/>
      <point x="351" y="991"/>
      <point x="316" y="991" type="curve" smooth="yes"/>
      <point x="290" y="991"/>
      <point x="270" y="981"/>
      <point x="235" y="946" type="curve" smooth="yes"/>
      <point x="190" y="905"/>
      <point x="152" y="867"/>
    </contour>
  </outline>
</glyph>
